<svg xmlns="http://www.w3.org/2000/svg" xmlns:xlink="http://www.w3.org/1999/xlink" width="1920" height="10303" viewBox="0 0 1920 10303">
  <defs>
    <clipPath id="clip-about">
      <rect width="1920" height="10303"/>
    </clipPath>
  </defs>
  <g id="about" clip-path="url(#clip-about)">
    <rect width="1920" height="10303" fill="rgba(27,18,3,0)"/>
    <path id="Screenshot_2022-10-25_at_10.46.43_AM" data-name="Screenshot 2022-10-25 at 10.46.43 AM" d="M2278,0c411.4,0,797.329,18.908,1129.458,51.886,686.6,68.174,1129.721,1610,1129.721,1756.8,0,218.125-1019.9,394.95-2278,394.95s-2278-176.825-2278-394.95c0-144.4,465.783-1684.434,1134.047-1753.431C1454.735,20.2,1852.761,0,2278,0Z" transform="translate(-1318 1233)" fill="#ffc64e"/>
    <path id="Path_2246" data-name="Path 2246" d="M960,0c530.193,0,960,429.807,960,960V5820c0,530.193-429.807,960-960,960s-970.776,48.818-970.776-481.375L0,960C0,429.807,429.807,0,960,0Z" transform="translate(0 2412)" fill="#f8f2de"/>
    <text id="_Lorem_ipsum_dolor_sit_amet_consetetur_sadipscing_elitr_sed_diam_nonumy_eirmod_tempor_invidunt_ut_labore_et_dolore_magna_aliquyam_erat_sed_diam_voluptua._At_vero_eos_et_accusam_et_justo_duo_dolores_et_ea_rebum._Stet_clita_kasd._Lorem_ipsum_dolor_sit_am" data-name="“Lorem ipsum dolor sit amet, consetetur sadipscing elitr, sed diam nonumy eirmod tempor invidunt ut labore et dolore magna aliquyam erat, sed diam voluptua. At vero eos et accusam et justo duo dolores et ea rebum. Stet clita kasd.”“Lorem ipsum dolor sit am" transform="translate(-1171 9985.579)" fill="#f9f2dc" font-size="40" font-family="Montserrat-Medium, Montserrat" font-weight="500"><tspan x="0" y="39">“Lorem ipsum dolor sit amet, consetetur sadipscing elitr, </tspan><tspan x="0" y="88">sed diam nonumy eirmod tempor invidunt ut labore et </tspan><tspan x="0" y="137">dolore magna aliquyam erat, sed diam voluptua. At vero </tspan><tspan x="0" y="186">eos et accusam et justo duo dolores et ea rebum. Stet clita </tspan><tspan x="0" y="235">kasd.”“Lorem ipsum dolor sit amet, consetetur sadipscing </tspan></text>
    <rect id="Rectangle_195" data-name="Rectangle 195" width="2937" height="2375" rx="796" transform="translate(-331 8366)" fill="#f9f2dc"/>
    <g id="MDI_facebook" data-name="MDI / facebook" transform="translate(1671.305 9929.818)">
      <g id="Boundary" fill="#fff" stroke="rgba(0,0,0,0)" stroke-width="1" opacity="0">
        <rect width="24" height="24" stroke="none"/>
        <rect x="0.5" y="0.5" width="23" height="23" fill="none"/>
      </g>
      <path id="Path_facebook" data-name="Path / facebook" d="M12,2.04a10.023,10.023,0,0,0-1.56,19.92v-7H7.9v-2.9h2.54V9.85a3.526,3.526,0,0,1,3.78-3.89,15.676,15.676,0,0,1,2.23.19V8.62H15.19a1.446,1.446,0,0,0-1.63,1.56v1.88h2.78l-.45,2.9H13.56v7A10.023,10.023,0,0,0,12,2.04Z" transform="translate(0 -0.04)" fill="#fff"/>
    </g>
    <g id="MDI_instagram" data-name="MDI / instagram" transform="translate(1671.145 9977.939)">
      <rect id="Boundary-2" data-name="Boundary" width="24" height="24" fill="#fff" stroke="rgba(0,0,0,0)" stroke-width="1" opacity="0"/>
      <path id="Path_instagram" data-name="Path / instagram" d="M7.8,2h8.4A5.8,5.8,0,0,1,22,7.8v8.4A5.8,5.8,0,0,1,16.2,22H7.8A5.8,5.8,0,0,1,2,16.2V7.8A5.8,5.8,0,0,1,7.8,2M7.6,4A3.6,3.6,0,0,0,4,7.6v8.8A3.6,3.6,0,0,0,7.6,20h8.8A3.6,3.6,0,0,0,20,16.4V7.6A3.6,3.6,0,0,0,16.4,4H7.6m9.65,1.5A1.25,1.25,0,1,1,16,6.75,1.25,1.25,0,0,1,17.25,5.5M12,7a5,5,0,1,1-5,5,5,5,0,0,1,5-5m0,2a3,3,0,1,0,3,3,3,3,0,0,0-3-3Z" fill="#fff" stroke="rgba(0,0,0,0)" stroke-width="1"/>
    </g>
    <g id="MDI_twitter" data-name="MDI / twitter" transform="translate(1671.145 10025.939)">
      <rect id="Boundary-3" data-name="Boundary" width="24" height="24" fill="#fff" stroke="rgba(0,0,0,0)" stroke-width="1" opacity="0"/>
      <path id="Path_twitter" data-name="Path / twitter" d="M22.46,6A8.568,8.568,0,0,1,20,6.69a4.3,4.3,0,0,0,1.88-2.38,8.641,8.641,0,0,1-2.72,1.05A4.225,4.225,0,0,0,16,4a4.285,4.285,0,0,0-4.27,4.29,4.459,4.459,0,0,0,.11.98A12.194,12.194,0,0,1,3,4.79,4.273,4.273,0,0,0,4.33,10.5,4.243,4.243,0,0,1,2.38,10v.03a4.293,4.293,0,0,0,3.44,4.21,4.206,4.206,0,0,1-1.93.07,4.28,4.28,0,0,0,4,2.98,8.521,8.521,0,0,1-5.33,1.84,8.722,8.722,0,0,1-1.02-.06A12.144,12.144,0,0,0,8.12,21,12.136,12.136,0,0,0,20.33,8.79c0-.19,0-.37-.01-.56A8.572,8.572,0,0,0,22.46,6Z" transform="translate(0.46)" fill="#fff" stroke="rgba(0,0,0,0)" stroke-width="1"/>
    </g>
    <g id="MDI_youtube" data-name="MDI / youtube" transform="translate(1671.145 10074.404)">
      <rect id="Boundary-4" data-name="Boundary" width="24" height="24" fill="#fff" stroke="rgba(0,0,0,0)" stroke-width="1" opacity="0"/>
      <path id="Path_youtube" data-name="Path / youtube" d="M10,15l5.19-3L10,9v6M21.56,7.17a10.338,10.338,0,0,1,.28,1.9c.07.8.1,1.49.1,2.09L22,12a19.868,19.868,0,0,1-.44,4.83,2.343,2.343,0,0,1-1.73,1.73,14.1,14.1,0,0,1-2.65.28c-1.3.07-2.49.1-3.59.1L12,19a40.932,40.932,0,0,1-7.83-.44,2.343,2.343,0,0,1-1.73-1.73,10.339,10.339,0,0,1-.28-1.9c-.07-.8-.1-1.49-.1-2.09L2,12a19.868,19.868,0,0,1,.44-4.83A2.343,2.343,0,0,1,4.17,5.44a14.1,14.1,0,0,1,2.65-.28c1.3-.07,2.49-.1,3.59-.1L12,5a40.932,40.932,0,0,1,7.83.44A2.343,2.343,0,0,1,21.56,7.17Z" fill="#fff" stroke="rgba(0,0,0,0)" stroke-width="1"/>
    </g>
    <path id="Path_2149" data-name="Path 2149" d="M21546.332,851.444s1720.828,107.38,2063.422,444.706,204.6-158.785,204.6-158.785,567.7,2892.6.688,3309.957c-326.594,240.4-1062.02-100.355-1582.672-249.443-384.086-109.982-677.332,0-677.332,0l-8.709-3346.434" transform="translate(-21561.344 3359)" fill="#181208"/>
  </g>
</svg>
