<svg xmlns="http://www.w3.org/2000/svg" width="1697.857" height="1144.177" viewBox="0 0 1697.857 1144.177">
  <g id="Group_1786" data-name="Group 1786" transform="translate(-293.68 -281.943)" opacity="0.158">
    <g id="Group_1131" data-name="Group 1131" transform="translate(1396.388 1118.563)">
      <path id="Path_1540" data-name="Path 1540" d="M1773.165,1190.541H1511.205c-16.14,0-29.345,12.91-29.345,28.689v83.924c0,15.779,13.205,28.689,29.345,28.689h201.8c14.5,26.725,48.363,38.026,48.363,38.026-10.354-15.263-15.369-28.037-17.6-38.026h29.4c16.14,0,29.346-12.91,29.346-28.689V1219.23C1802.511,1203.451,1789.3,1190.541,1773.165,1190.541Z" transform="translate(-1481.86 -1190.541)" fill="#1b1204"/>
    </g>
    <g id="Group_1132" data-name="Group 1132" transform="translate(545.358 347.6)">
      <path id="Path_1541" data-name="Path 1541" d="M603.557,359.82H948.93c21.28,0,38.691,17.021,38.691,37.824V508.293c0,20.8-17.411,37.824-38.691,37.824H682.871c-19.122,35.235-63.764,50.136-63.764,50.136,13.652-20.124,20.262-36.965,23.207-50.136H603.557c-21.281,0-38.691-17.021-38.691-37.824V397.644C564.866,376.841,582.276,359.82,603.557,359.82Z" transform="translate(-564.866 -359.82)" fill="#1b1204"/>
    </g>
    <g id="Group_1134" data-name="Group 1134" transform="translate(1412.806 638.373)">
      <path id="Path_1544" data-name="Path 1544" d="M1883.615,673.131H1538.242c-21.28,0-38.691,17.021-38.691,37.824V821.6c0,20.8,17.411,37.823,38.691,37.823H1804.3c19.122,35.236,63.764,50.136,63.764,50.136-13.652-20.123-20.262-36.965-23.207-50.136h38.758c21.28,0,38.691-17.021,38.691-37.823V710.955C1922.306,690.152,1904.9,673.131,1883.615,673.131Z" transform="translate(-1499.551 -673.131)" fill="#1b1204"/>
    </g>
    <g id="Group_1135" data-name="Group 1135" transform="translate(952.094 668.521)" opacity="0.5">
      <path id="Path_1545" data-name="Path 1545" d="M1538.2,705.616H1057.032c-29.648,0-53.9,23.713-53.9,52.7V912.466c0,28.982,24.256,52.7,53.9,52.7H1427.7c26.641,49.09,88.834,69.849,88.834,69.849-19.018-28.036-28.229-51.5-32.331-69.849h54c29.646,0,53.9-23.713,53.9-52.7V758.311C1592.1,729.329,1567.847,705.616,1538.2,705.616Z" transform="translate(-1003.128 -705.616)" fill="#1b1204"/>
    </g>
    <g id="Group_1136" data-name="Group 1136" transform="translate(830.729 568.233)" opacity="0.5">
      <path id="Path_1546" data-name="Path 1546" d="M904.937,597.555h290.83c17.92,0,32.581,14.332,32.581,31.85v93.174c0,17.518-14.661,31.851-32.581,31.851H971.726c-16.1,29.67-53.694,42.218-53.694,42.218,11.495-16.946,17.062-31.126,19.542-42.218H904.937c-17.92,0-32.581-14.333-32.581-31.851V629.405C872.356,611.887,887.017,597.555,904.937,597.555Z" transform="translate(-872.356 -597.555)" fill="#1b1204"/>
    </g>
    <g id="Group_1138" data-name="Group 1138" transform="translate(1290.506 745.223)">
      <g id="Group_1137" data-name="Group 1137" transform="translate(0)">
        <path id="Path_1547" data-name="Path 1547" d="M1701.818,936.308c0-81.763-74.779-148.044-167.024-148.044s-167.023,66.281-167.023,148.044,74.779,148.044,167.023,148.044a186.375,186.375,0,0,0,53.312-7.7c14.11,15.123,37.125,31.627,73.713,39.916,0,0-23.852-26.163-31.6-58.751C1673.5,1031.061,1701.818,986.619,1701.818,936.308Z" transform="translate(-1367.771 -788.264)" fill="#ffd47d"/>
      </g>
    </g>
    <g id="Group_1139" data-name="Group 1139" transform="translate(1324.567 364.545)">
      <path id="Path_1548" data-name="Path 1548" d="M2022.777,384.729H1677.4c-21.28,0-38.691,17.021-38.691,37.823V533.2c0,20.8,17.411,37.824,38.691,37.824h266.059c19.122,35.236,63.764,50.136,63.764,50.136-13.652-20.123-20.262-36.965-23.207-50.136h38.758c21.281,0,38.691-17.021,38.691-37.824V422.552C2061.468,401.75,2044.057,384.729,2022.777,384.729Z" transform="translate(-1638.713 -384.729)" fill="#1b1204"/>
    </g>
    <g id="Group_1141" data-name="Group 1141" transform="translate(1640.223 927.713)" opacity="0.5">
      <path id="Path_1551" data-name="Path 1551" d="M2063.757,984.9h-287.01c-17.684,0-32.153,14.145-32.153,31.432v91.951c0,17.288,14.469,31.433,32.153,31.433h221.1c15.891,29.281,52.989,41.664,52.989,41.664-11.345-16.723-16.838-30.718-19.285-41.664h32.209c17.684,0,32.153-14.145,32.153-31.433v-91.951C2095.91,999.044,2081.442,984.9,2063.757,984.9Z" transform="translate(-1744.595 -984.899)" fill="#eceff2"/>
    </g>
    <g id="Group_1143" data-name="Group 1143" transform="translate(681.36 1065.851)">
      <path id="Path_1554" data-name="Path 1554" d="M1002.716,1133.744H740.756c-16.14,0-29.346,12.91-29.346,28.688v83.925c0,15.779,13.206,28.688,29.346,28.688h201.8c14.5,26.726,48.363,38.027,48.363,38.027-10.354-15.263-15.369-28.037-17.6-38.027h29.4c16.14,0,29.346-12.909,29.346-28.688v-83.925C1032.062,1146.654,1018.856,1133.744,1002.716,1133.744Z" transform="translate(-711.41 -1133.744)" fill="#1b1204"/>
    </g>
    <g id="Group_1146" data-name="Group 1146" transform="translate(1264.7 281.943)">
      <g id="Group_1145" data-name="Group 1145">
        <path id="Path_1556" data-name="Path 1556" d="M1483.478,286.134c-.418-53.573-49.754-96.637-110.194-96.187s-109.1,44.245-108.682,97.817,49.753,96.637,110.194,96.187a122.122,122.122,0,0,0,34.891-5.309c9.323,9.84,24.487,20.542,48.5,25.795,0,0-15.762-17.026-21-38.341C1465.405,348.356,1483.735,319.1,1483.478,286.134Z" transform="translate(-1264.6 -189.943)" fill="#ffd47d"/>
      </g>
    </g>
    <g id="Group_1150" data-name="Group 1150" transform="translate(474.827 1111.585)">
      <g id="Group_1149" data-name="Group 1149">
        <path id="Path_1559" data-name="Path 1559" d="M810.214,1498.23c-.537-69,62.132-125.4,139.977-125.984s141.386,54.886,141.924,123.885-62.132,125.4-139.977,125.984a157.342,157.342,0,0,1-45.04-6.167c-11.808,12.851-31.122,26.923-61.944,34.149,0,0,19.957-22.229,26.278-49.779C834.737,1578.014,810.545,1540.688,810.214,1498.23Z" transform="translate(-810.21 -1372.242)" fill="#ffd47d"/>
      </g>
    </g>
    <g id="Group_1173" data-name="Group 1173" transform="translate(1146.339 1208.227)">
      <path id="Path_1560" data-name="Path 1560" d="M1566.379,1287.156H1248.087c-19.612,0-35.657,15.686-35.657,34.858v101.972c0,19.172,16.045,34.858,35.657,34.858h245.2c17.623,32.473,58.764,46.2,58.764,46.2-12.581-18.546-18.673-34.067-21.387-46.2h35.719c19.611,0,35.656-15.686,35.656-34.858V1322.014C1602.035,1302.842,1585.99,1287.156,1566.379,1287.156Z" transform="translate(-1212.43 -1287.156)" fill="#ffd47d"/>
    </g>
    <g id="Group_1179" data-name="Group 1179" transform="translate(1238.378 1255.532)">
      <g id="Group_1174" data-name="Group 1174" transform="translate(41.811)">
        <rect id="Rectangle_136" data-name="Rectangle 136" width="134.602" height="8.19" transform="translate(0 1.002) rotate(-0.427)" fill="#fff"/>
      </g>
      <g id="Group_1175" data-name="Group 1175" transform="translate(41.811 62.557)">
        <rect id="Rectangle_137" data-name="Rectangle 137" width="134.602" height="8.19" transform="translate(0 1.002) rotate(-0.427)" fill="#fff"/>
      </g>
      <g id="Group_1178" data-name="Group 1178" transform="translate(0 32.297)">
        <g id="Group_1176" data-name="Group 1176" transform="translate(0 0.68)">
          <rect id="Rectangle_138" data-name="Rectangle 138" width="126.961" height="8.19" transform="translate(0 0.946) rotate(-0.427)" fill="#fff"/>
        </g>
        <g id="Group_1177" data-name="Group 1177" transform="translate(137.88)">
          <rect id="Rectangle_139" data-name="Rectangle 139" width="80.343" height="8.19" transform="translate(0 0.598) rotate(-0.427)" fill="#fff"/>
        </g>
      </g>
    </g>
    <g id="Group_1185" data-name="Group 1185" transform="translate(527.91 1201.491)">
      <g id="Group_1180" data-name="Group 1180" transform="translate(33.686)">
        <rect id="Rectangle_140" data-name="Rectangle 140" width="108.604" height="8.19" transform="matrix(1, -0.007, 0.007, 1, 0, 0.809)" fill="#fff"/>
      </g>
      <g id="Group_1181" data-name="Group 1181" transform="translate(33.78 62.556)">
        <rect id="Rectangle_141" data-name="Rectangle 141" width="108.605" height="8.19" transform="matrix(1, -0.007, 0.007, 1, 0, 0.809)" fill="#fff"/>
      </g>
      <g id="Group_1184" data-name="Group 1184" transform="translate(0 32.357)">
        <g id="Group_1182" data-name="Group 1182" transform="translate(0 0.548)">
          <rect id="Rectangle_142" data-name="Rectangle 142" width="102.439" height="8.19" transform="matrix(1, -0.007, 0.007, 1, 0, 0.763)" fill="#fff"/>
        </g>
        <g id="Group_1183" data-name="Group 1183" transform="translate(111.249)">
          <rect id="Rectangle_143" data-name="Rectangle 143" width="64.825" height="8.19" transform="matrix(1, -0.007, 0.007, 1, 0, 0.483)" fill="#fff"/>
        </g>
      </g>
    </g>
    <g id="Group_1191" data-name="Group 1191" transform="translate(1374.14 877.925)">
      <g id="Group_1186" data-name="Group 1186" transform="translate(32.704)">
        <rect id="Rectangle_144" data-name="Rectangle 144" width="105.286" height="6.406" transform="matrix(1, -0.007, 0.007, 1, 0, 0.784)" fill="#fff"/>
      </g>
      <g id="Group_1187" data-name="Group 1187" transform="translate(32.704 48.932)">
        <rect id="Rectangle_145" data-name="Rectangle 145" width="105.286" height="6.406" transform="matrix(1, -0.007, 0.007, 1, 0, 0.784)" fill="#fff"/>
      </g>
      <g id="Group_1190" data-name="Group 1190" transform="translate(0 25.263)">
        <g id="Group_1188" data-name="Group 1188" transform="translate(0 0.532)">
          <rect id="Rectangle_146" data-name="Rectangle 146" width="99.308" height="6.406" transform="translate(0 0.74) rotate(-0.427)" fill="#fff"/>
        </g>
        <g id="Group_1189" data-name="Group 1189" transform="translate(107.849)">
          <rect id="Rectangle_147" data-name="Rectangle 147" width="62.844" height="6.406" transform="translate(0 0.468) rotate(-0.427)" fill="#fff"/>
        </g>
      </g>
    </g>
    <g id="Group_1197" data-name="Group 1197" transform="translate(756.317 1105.093)">
      <g id="Group_1192" data-name="Group 1192" transform="translate(32.704)">
        <rect id="Rectangle_148" data-name="Rectangle 148" width="105.286" height="6.406" transform="matrix(1, -0.007, 0.007, 1, 0, 0.784)" fill="#fff"/>
      </g>
      <g id="Group_1193" data-name="Group 1193" transform="translate(32.704 48.932)">
        <rect id="Rectangle_149" data-name="Rectangle 149" width="105.286" height="6.406" transform="matrix(1, -0.007, 0.007, 1, 0, 0.784)" fill="#fff"/>
      </g>
      <g id="Group_1196" data-name="Group 1196" transform="translate(0 25.263)">
        <g id="Group_1194" data-name="Group 1194" transform="translate(0 0.532)">
          <rect id="Rectangle_150" data-name="Rectangle 150" width="99.308" height="6.406" transform="translate(0 0.74) rotate(-0.427)" fill="#fff"/>
        </g>
        <g id="Group_1195" data-name="Group 1195" transform="translate(107.849)">
          <rect id="Rectangle_151" data-name="Rectangle 151" width="62.844" height="6.406" transform="translate(0 0.468) rotate(-0.427)" fill="#fff"/>
        </g>
      </g>
    </g>
    <g id="Group_1203" data-name="Group 1203" transform="translate(1518.303 699.642)">
      <g id="Group_1198" data-name="Group 1198" transform="translate(32.704)">
        <rect id="Rectangle_152" data-name="Rectangle 152" width="105.286" height="6.406" transform="matrix(1, -0.007, 0.007, 1, 0, 0.784)" fill="#fff"/>
      </g>
      <g id="Group_1199" data-name="Group 1199" transform="translate(32.704 48.932)">
        <rect id="Rectangle_153" data-name="Rectangle 153" width="105.286" height="6.406" transform="matrix(1, -0.007, 0.007, 1, 0, 0.784)" fill="#fff"/>
      </g>
      <g id="Group_1202" data-name="Group 1202" transform="translate(0 25.263)">
        <g id="Group_1200" data-name="Group 1200" transform="translate(0 0.532)">
          <rect id="Rectangle_154" data-name="Rectangle 154" width="99.308" height="6.406" transform="translate(0 0.74) rotate(-0.427)" fill="#fff"/>
        </g>
        <g id="Group_1201" data-name="Group 1201" transform="translate(107.849)">
          <rect id="Rectangle_155" data-name="Rectangle 155" width="62.844" height="6.406" transform="matrix(1, -0.007, 0.007, 1, 0, 0.468)" fill="#fff"/>
        </g>
      </g>
    </g>
    <g id="Group_1217" data-name="Group 1217" transform="translate(293.68 932.256)">
      <path id="Path_1563" data-name="Path 1563" d="M323.026,989.794H584.985c16.141,0,29.346,12.91,29.346,28.688v83.925c0,15.779-13.205,28.689-29.346,28.689h-201.8c-14.5,26.725-48.364,38.026-48.364,38.026,10.354-15.263,15.369-28.037,17.6-38.026h-29.4c-16.141,0-29.346-12.91-29.346-28.689v-83.925C293.68,1002.7,306.885,989.794,323.026,989.794Z" transform="translate(-293.68 -989.794)" fill="#ffd47d"/>
    </g>
    <g id="Group_1218" data-name="Group 1218" transform="translate(347.743 626.076)" opacity="0.5">
      <path id="Path_1564" data-name="Path 1564" d="M379.824,659.881H628.791c15.34,0,27.891,12.269,27.891,27.266v79.763c0,15-12.551,27.266-27.891,27.266H437c-13.784,25.4-45.964,36.142-45.964,36.142,9.84-14.507,14.606-26.647,16.729-36.142h-27.94c-15.339,0-27.89-12.269-27.89-27.266V687.147C351.934,672.15,364.485,659.881,379.824,659.881Z" transform="translate(-351.934 -659.881)" fill="#1b1204"/>
    </g>
  </g>
</svg>
