<svg id="Group_1785" data-name="Group 1785" xmlns="http://www.w3.org/2000/svg" width="574.863" height="917.705" viewBox="0 0 574.863 917.705">
  <path id="Path_217" data-name="Path 217" d="M574.18,266.883c-.385-11.884-2.636-19.857-3.728-27.994-2.746-20.463-8.908-40.03-16.569-59.041A271.255,271.255,0,0,0,534.9,141.493a320.315,320.315,0,0,0-27.383-38.743,254.937,254.937,0,0,0-32.847-33.3,282.9,282.9,0,0,0-34.845-25.572,330.234,330.234,0,0,0-42.464-22.041A271.291,271.291,0,0,0,351.508,7.052,313.447,313.447,0,0,0,312.37.966C298.814-.349,285.29.033,271.758.113a155.665,155.665,0,0,0-28.717,3.3c-11.347,2.2-22.914,3.48-33.933,7.087-14.129,4.623-28.183,9.429-41.779,15.6A291.006,291.006,0,0,0,130.18,46.512,275.279,275.279,0,0,0,89.938,78.464,280.376,280.376,0,0,0,53.65,120.223,290.163,290.163,0,0,0,17.5,188.592a295.423,295.423,0,0,0-10.952,37.32,315.657,315.657,0,0,0-6.1,44.194c-.872,11.443-.177,22.842-.177,34.255,0,10.867,2.191,21.537,3.947,32.237,2.223,13.541,5,26.973,9.5,39.913,3.432,9.865,7.263,19.614,11.564,29.187a283.268,283.268,0,0,0,68.813,93.809,292.191,292.191,0,0,0,54.033,38.506,287.169,287.169,0,0,0,37.26,17.323c2.417.916,4.393,2.014,4.924,5.021,4.992,28.3,10.186,56.559,15.108,84.869,1.791,10.314,4.223,20.382,10.172,29.11a58.391,58.391,0,0,0,24.61,20.656,55.094,55.094,0,0,0,28.157,4.86c9.75-.913,19.3-3.126,28.915-4.851C338.93,687.531,380.6,680.1,422.22,672.389c11.9-2.2,24.12-3.03,35.379-8.3a56.937,56.937,0,0,0,23.371-19.907c9.316-13.758,11.839-29.02,8.77-45.422-5.57-29.767-10.782-59.6-16.223-89.394-.412-2.253-.058-3.912,1.674-5.411,2.7-2.34,5.364-4.728,7.942-7.2,20.839-20.006,38.939-42.141,53.3-67.324a287.568,287.568,0,0,0,32.233-84.084,269.966,269.966,0,0,0,5.955-49.2C574.86,285.191,575.173,274.208,574.18,266.883ZM199.956,164.843c-32.242,28.155-43.962,49.189-44.077,49.4l-1.989,3.63-1.4-3.893c-8.642-24-24.227-44.505-46.322-60.936-1-.742-1.653-1.232-2.062-1.588-1.7-1.491-7.293-.658-10.536.374l-1.132-3.554c1.678-.534,10.24-3.024,14.123.374.3.259.975.763,1.833,1.4A140.776,140.776,0,0,1,130.1,169.6a130.452,130.452,0,0,1,24.536,39.511c4.558-7.064,17.2-24.626,42.663-46.9,19.122-16.724,41.538-32.615,66.628-47.23C295.264,96.726,330.887,80.416,369.807,66.5l1.255,3.512C283.582,101.288,229.728,138.845,199.956,164.843Z" transform="translate(0 0)" fill="#ffc64e"/>
  <path id="Path_218" data-name="Path 218" d="M24.32,64.74C47.244,60.985,70.115,56.905,92.979,52.8c32.367-5.81,64.71-11.754,97.063-17.634,22.389-4.069,44.8-8,67.158-12.257,7.659-1.458,14.94-4.371,20.856-9.64,4.6-4.092,3.469-8.847-2.3-10.925C271.122.677,266.339-.271,262.65.068c-3.9.095-6.509-.021-9.12.449Q182.468,13.318,111.4,26.072c-29.66,5.355-59.324,10.7-88.935,16.322C14.7,43.871,7.492,47.059,1.67,52.811A4.94,4.94,0,0,0,.164,57.9C.8,61.014,3.18,62.173,5.641,62.949A40.5,40.5,0,0,0,24.32,64.74Z" transform="translate(239.969 765.455)" fill="#ffc64e"/>
  <path id="Path_219" data-name="Path 219" d="M266.029,2.873c-7.585-3.63-15.707-3.235-23.54-1.984C220.482,4.4,198.564,8.457,176.629,12.4Q126.3,21.44,75.992,30.631c-18.523,3.39-37.175,6.139-55.509,10.5-6.866,1.633-13.44,4.257-18.407,9.691-3.348,3.664-2.58,7.249,1.83,9.493,5.417,2.757,11.345,2.376,17.114,3.175,1.664-.183,3.336-.266,4.971-.561Q87.929,51.795,149.863,40.623C182,34.839,214.172,29.2,246.278,23.228c8-1.489,15.618-4.415,21.507-10.519C271.634,8.721,271.013,5.258,266.029,2.873Z" transform="translate(250.59 790.219)" fill="#ffc64e"/>
  <path id="Path_220" data-name="Path 220" d="M1.888,50.881C-1.078,54.141-.507,57.65,3.3,59.77a27.505,27.505,0,0,0,4.943,2.014c7.035,2.27,14.2,1.57,21.243.344Q72.1,54.713,114.656,46.97q64.205-11.575,128.385-23.307c8.932-1.645,17.711-4.094,24.454-10.843,4.344-4.349,3.391-8.374-2.484-10.5C260.493.679,255.853-.338,252.134.1c-4.116.077-7.082-.05-10.05.485q-40.1,7.231-80.223,14.38c-32.367,5.822-64.74,11.61-97.081,17.564-14.88,2.74-29.912,4.753-44.593,8.45C13.366,42.7,6.813,45.463,1.888,50.881Z" transform="translate(239.784 742.512)" fill="#ffc64e"/>
  <path id="Path_221" data-name="Path 221" d="M4.954,57.452C9.672,59.474,14.737,59.335,19.688,60c2.844-.34,5.707-.539,8.514-1.04Q82.748,49.231,137.28,39.425q20.4-3.662,40.8-7.373c16.408-3,32.852-5.832,49.19-9.182,7-1.436,13.691-4.125,18.767-9.673,3.4-3.722,2.936-7.47-1.583-9.862-6.465-3.419-13.59-3.9-20.516-2.825C206.874,3.162,189.894,6.382,172.9,9.452Q118.372,19.3,63.862,29.225c-14.652,2.662-29.332,5.193-43.934,8.11A35.978,35.978,0,0,0,2.92,45.988C-1.7,50.131-.7,55.027,4.954,57.452Z" transform="translate(246.299 719.897)" fill="#ffc64e"/>
  <path id="Path_222" data-name="Path 222" d="M243.508,2.464A24.249,24.249,0,0,0,230.681.143C221.841-.319,213.7,1.8,205.518,3.26q-62.46,11.132-124.862,22.6c-19.575,3.559-39.174,7-58.7,10.83-7.021,1.376-13.806,3.8-19.122,9.058C-1.6,50.133-.8,54.806,5,57.183A36.559,36.559,0,0,0,25.39,59.162c38.721-6.816,77.4-13.888,116.092-20.853,27.438-4.939,54.9-9.777,82.318-14.807,8.049-1.476,15.669-4.239,21.724-10.089C249.8,9.28,248.971,4.917,243.508,2.464Z" transform="translate(266.033 816.279)" fill="#ffc64e"/>
  <path id="Path_223" data-name="Path 223" d="M2.4,41.5c-3.828,3.6-2.94,8.8,1.7,11.176a24.541,24.541,0,0,0,12.765,2.688,43.53,43.53,0,0,0,11.4-.973q42.768-7.569,85.5-15.354Q155.8,31.447,197.826,23.8c7.331-1.336,14.224-3.63,20.225-8.394,6.3-5,4-11.176-2.179-13.333a40.02,40.02,0,0,0-20.731-1.3q-30.957,5.575-61.907,11.208Q77.645,21.991,22.052,31.96A37.722,37.722,0,0,0,2.4,41.5Z" transform="translate(255.249 698.016)" fill="#ffc64e"/>
  <path id="Path_224" data-name="Path 224" d="M217.2,2.621C210.338-.529,203.067-.452,195.83.833q-48.566,8.62-97.1,17.411-36.59,6.581-73.171,13.208c-8.386,1.526-16.6,3.613-22.974,9.807-4.219,4.1-3.116,9.357,2.228,11.8,4.69,2.147,9.752,1.98,14.737,2.707,1.382-.171,2.812-.277,4.213-.53Q90.245,43.2,156.721,31.12c15.823-2.894,31.79-5,47.472-8.641a31.673,31.673,0,0,0,14.872-8.147C223.467,10.116,222.729,5.161,217.2,2.621Z" transform="translate(283.477 842.303)" fill="#ffc64e"/>
  <path id="Path_225" data-name="Path 225" d="M16.191,46.418c.884-.132,1.827-.249,2.764-.417q30.785-5.516,61.569-11.049c22.161-4.009,44.325-8,66.458-12.153,5.765-1.081,10.883-3.6,14.057-8.921a7.338,7.338,0,0,0-2.349-10.315,19.376,19.376,0,0,0-14.6-3.243Q79.55,12,14.973,23.482c-5.194.915-8.967,3.508-12.364,7.125C-1.5,34.976-.659,40.324,4.428,43.585,8.048,45.9,12.162,45.708,16.191,46.418Z" transform="translate(281.88 678.362)" fill="#ffc64e"/>
  <path id="Path_226" data-name="Path 226" d="M158.82,3.288C153.455-.22,147.545-.52,141.588.538Q83.85,10.8,26.157,21.3c-6.427,1.162-13.02,1.712-18.843,5.181C.534,30.518-2.064,36.79,1.8,40.957c3.636,3.923,8.73,6.1,13.836,5.21C60.244,38.36,104.8,30.229,149.368,22.185c4.581-.827,7.966-3.6,10.885-7a7.837,7.837,0,0,0,2.007-5.245A7.526,7.526,0,0,0,158.82,3.288Z" transform="translate(316.474 871.339)" fill="#ffc64e"/>
</svg>
