<svg id="facebook" xmlns="http://www.w3.org/2000/svg" width="24" height="24" viewBox="0 0 24 24">
  <g id="Boundary" fill="#fff" stroke="rgba(0,0,0,0)" stroke-width="1" opacity="0">
    <rect width="24" height="24" stroke="none"/>
    <rect x="0.5" y="0.5" width="23" height="23" fill="none"/>
  </g>
  <path id="Path_facebook" data-name="Path / facebook" d="M12,2.04a10.023,10.023,0,0,0-1.56,19.92v-7H7.9v-2.9h2.54V9.85a3.526,3.526,0,0,1,3.78-3.89,15.676,15.676,0,0,1,2.23.19V8.62H15.19a1.446,1.446,0,0,0-1.63,1.56v1.88h2.78l-.45,2.9H13.56v7A10.023,10.023,0,0,0,12,2.04Z" transform="translate(0 -0.04)" fill="#fff"/>
</svg>
