<svg xmlns="http://www.w3.org/2000/svg" width="497.125" height="755.473" viewBox="0 0 497.125 755.473">
  <g id="footer-bulb" transform="matrix(0.978, -0.208, 0.208, 0.978, -285.87, 38.627)">
    <g id="Chatacrer_4" data-name="Chatacrer 4" transform="translate(457.264 107.937)">
      <g id="Group_1059" data-name="Group 1059">
        <g id="Group_1058" data-name="Group 1058">
          <path id="Path_1474" data-name="Path 1474" d="M423.068,197.587a32.457,32.457,0,1,0-10.714,45.005l.4-.275L390.782,332.43,461.606,349.7l-.275-.4a32.031,32.031,0,0,1-3.81-24.259,32.364,32.364,0,1,1,48.816,34.973l-.688.425L581.784,379c16.468-36.676,26-85.974,5.808-142.242C555,145.949,479.961,117.514,454.287,110.27l-8.812-2.15-21.982,90.155Z" transform="translate(-363.124 -107.766)" fill="#161616"/>
          <g id="Group_1057" data-name="Group 1057">
            <path id="Path_1475" data-name="Path 1475" d="M423.2,197.758s.085.11.443.677l-.039.006c.769-3.579,8.605-36.106,21.719-90.219l.07-.284.284.07,7.258,1.759c2.467.568,4.924,1.406,7.437,2.158,4.986,1.643,10.092,3.49,15.242,5.665a200.088,200.088,0,0,1,31.422,16.468,195.8,195.8,0,0,1,58.107,56.829c2.069,3.047,3.87,6.306,5.842,9.492q1.45,2.407,2.915,4.833c.893,1.663,1.707,3.377,2.569,5.075l5.141,10.3,4.383,10.836a193.165,193.165,0,0,1,12.182,46.728,182.954,182.954,0,0,1-.739,50.672c-.572,4.292-1.535,8.537-2.393,12.822-1.048,4.244-2.063,8.516-3.381,12.727a208.059,208.059,0,0,1-9.287,25.005l-.17.379-.406-.1c-16.969-4.135-34.935-8.514-53.135-12.953q-11.568-2.819-23-5.609l-1.189-.29,1.044-.626a31.664,31.664,0,0,0,15.244-24.04,30.1,30.1,0,0,0-.479-9.668,35.306,35.306,0,0,0-1.3-4.657,36.149,36.149,0,0,0-2.044-4.363,30.712,30.712,0,0,0-5.827-7.578,31.861,31.861,0,0,0-48.806,5.767,30.385,30.385,0,0,0-3.758,8.245,29.5,29.5,0,0,0-1.318,8.883,31.779,31.779,0,0,0,4.9,16.835l.632,1-1.131-.276q-37.154-9.077-70.817-17.3l-.422-.1.1-.423c8.06-32.947,15.433-63.083,22.042-90.1l.559.385a32.542,32.542,0,0,1-16.439,5.021,32.1,32.1,0,0,1-15.878-3.725,32.609,32.609,0,0,1-11.08-48.383,33.266,33.266,0,0,1,17.925-12.072,35.694,35.694,0,0,1,9.266-1.023,36.751,36.751,0,0,1,8.081,1.3,32.389,32.389,0,0,1,11.3,5.935,31.833,31.833,0,0,1,5.438,5.686,19.955,19.955,0,0,1,1.494,2.229s-.141-.18-.4-.547-.638-.918-1.179-1.618A32.963,32.963,0,0,0,416.134,190a32.437,32.437,0,0,0-11.256-5.8,36.5,36.5,0,0,0-8.006-1.241,35.293,35.293,0,0,0-9.152,1.056,32.865,32.865,0,0,0-17.634,11.975A32.057,32.057,0,0,0,381.075,243.5a31.483,31.483,0,0,0,15.555,3.615,31.9,31.9,0,0,0,16.046-4.93l.769-.487-.211.872c-6.567,27.022-13.893,57.169-21.9,90.13l-.319-.526q33.625,8.184,70.832,17.235l-.5.723a32.7,32.7,0,0,1-5.077-17.369,30.528,30.528,0,0,1,1.353-9.154,31.342,31.342,0,0,1,3.867-8.5,32.841,32.841,0,0,1,50.3-5.962,31.683,31.683,0,0,1,6.011,7.813,36.843,36.843,0,0,1,2.109,4.5,36.446,36.446,0,0,1,1.34,4.8,31.1,31.1,0,0,1,.5,9.972,32.669,32.669,0,0,1-15.71,24.794l-.145-.916,23,5.608,53.135,12.959-.576.28a207.26,207.26,0,0,0,9.251-24.88c1.315-4.189,2.324-8.441,3.368-12.661.856-4.261,1.817-8.485,2.388-12.754a182.142,182.142,0,0,0,.762-50.4,192.347,192.347,0,0,0-12.087-46.517l-4.354-10.8q-2.575-5.174-5.108-10.264c-.858-1.692-1.667-3.4-2.554-5.057q-1.456-2.419-2.9-4.814c-1.96-3.174-3.749-6.422-5.8-9.458a195.3,195.3,0,0,0-57.788-56.688A199.914,199.914,0,0,0,475.352,118.2c-5.129-2.181-10.214-4.033-15.176-5.682-2.5-.756-4.932-1.593-7.4-2.169l-7.244-1.777.354-.215c-13.264,54.076-21.28,86.559-22.246,90.09l-.012.048-.025-.043C423.258,197.883,423.2,197.758,423.2,197.758Z" transform="translate(-363.252 -107.937)" fill="#263238"/>
          </g>
        </g>
      </g>
    </g>
    <g id="Character_3" data-name="Character 3" transform="translate(463.103 377.126)">
      <g id="Group_1063" data-name="Group 1063">
        <g id="Group_1061" data-name="Group 1061">
          <path id="Path_1476" data-name="Path 1476" d="M486.608,301.605l.557-.565a31.843,31.843,0,1,0-45.388.247l.356.317h-75.6v84.846l.317-.356a31.428,31.428,0,0,1,22.239-9.27A31.752,31.752,0,1,1,367.1,431.484l-.565-.557v97.285h85.249s3.886-32.46,7.77-57.129,59.056-75,74.9-95.98c6.38-8.45,22.134-36.141,29.042-73.5Z" transform="translate(-366.028 -247.062)" fill="#161616"/>
          <path id="Path_1477" data-name="Path 1477" d="M512.7,340.371a10.139,10.139,0,0,0-11.493-5.879c-3.074.773-5.869,3.037-9.021,2.693-2.884-.315-5.083-2.77-6.391-5.361s-2.026-5.469-3.563-7.928-4.271-4.528-7.132-4.054c-3.745.619-6.08,5.208-9.875,5.278-2.237.041-4.184-1.587-5.438-3.437s-2.045-3.99-3.329-5.823c-4.058-5.792-13.235-7.029-18.726-2.6-3.619,1.837-7.5,7.93-8.015,14.123-1.566,18.753-8.88,22.127-8.88,22.127A31.752,31.752,0,0,1,367.1,372.412l-.565-.557V469.14h85.249s3.884-32.46,7.77-57.129l-.135-.63c.05-.22.1-.47.135-.762C461.958,393.063,512.7,340.371,512.7,340.371Z" transform="translate(-366.028 -187.99)" fill="#ffb200"/>
          <path id="Path_1479" data-name="Path 1479" d="M406.4,310.333a7.355,7.355,0,1,1-7.354-7.354A7.356,7.356,0,0,1,406.4,310.333Z" transform="translate(-342.554 -195.094)" fill="#ffb200"/>
        </g>
        <g id="Group_1062" data-name="Group 1062" transform="translate(0.965 183.61)" opacity="0.2">
          <path id="Path_1480" data-name="Path 1480" d="M391.8,351.275c-7.507.624-15.82-2.415-19.24-9.127l-5.786,2.544c-.021,3.822,4.806,11.463,8.338,12.92,7.1,2.929,15.186,4,22.517,1.709a23.511,23.511,0,0,0,15.192-16.957C406.137,347.2,399.3,350.651,391.8,351.275Z" transform="translate(-366.771 -342.148)"/>
        </g>
      </g>
    </g>
    <g id="Character_2" data-name="Character 2" transform="translate(262.52 137.408)">
      <g id="Group_1067" data-name="Group 1067">
        <g id="Group_1066" data-name="Group 1066">
          <g id="Group_1065" data-name="Group 1065">
            <path id="Path_1481" data-name="Path 1481" d="M419.529,207.522a31.644,31.644,0,0,1,23.1,5.311l.646.462-14.194-89.927h0l-8.785,1.386c-25.686,5-101.359,26.728-140.583,112.881-24.3,53.38-18.969,102.352-5.839,139.545l9.361-1.477,72.885-11.5-.464.646a31.843,31.843,0,1,0,44.794-7.321l-.4-.257,2.02-.319,62.326-9.837-14.187-89.887-.259.4a31.423,31.423,0,0,1-20.52,12.622,31.752,31.752,0,1,1-9.9-62.728Z" transform="translate(-262.302 -123.006)" fill="#ffb200"/>
          </g>
        </g>
      </g>
    </g>
    <g id="Character_1" data-name="Character 1" transform="translate(273.31 431.325)">
      <g id="Group_1116" data-name="Group 1116">
        <path id="Path_1483" data-name="Path 1483" d="M456.982,502.118h-77.09s-3.886-32.46-7.772-57.127-59.056-75-74.9-95.982c-6.378-8.449-22.134-36.139-29.042-73.5h72.806l-.559.566a31.842,31.842,0,1,0,45.388-.249l-.356-.317,70.865.516v84.846s6.612-10.076,22.556-9.626,28.006,11.758,30.575,23.194.416,33.055-21.071,38.863-32.3-9.334-32.3-9.334l.238,98.664" transform="translate(-268.027 -274.929)" fill="#161616"/>
        <g id="Group_1099" data-name="Group 1099" transform="translate(51.366)">
          <g id="Group_1068" data-name="Group 1068" transform="translate(136.423 222.872)">
            <path id="Path_1484" data-name="Path 1484" d="M365.732,390.491c.278,0,.507,1.081.51,2.415s-.22,2.419-.5,2.419-.5-1.081-.508-2.415S365.453,390.491,365.732,390.491Z" transform="translate(-365.235 -390.491)" fill="#263238"/>
          </g>
          <g id="Group_1069" data-name="Group 1069" transform="translate(136.38 203.095)">
            <path id="Path_1485" data-name="Path 1485" d="M365.706,380.261c.276,0,.508,2.214.514,4.943s-.213,4.945-.491,4.945-.508-2.212-.516-4.943S365.428,380.263,365.706,380.261Z" transform="translate(-365.213 -380.261)" fill="#263238"/>
          </g>
          <g id="Group_1070" data-name="Group 1070" transform="translate(136.334 183.317)">
            <path id="Path_1486" data-name="Path 1486" d="M365.68,370.031c.278,0,.508,2.214.514,4.943s-.213,4.945-.491,4.945-.508-2.212-.514-4.943S365.4,370.033,365.68,370.031Z" transform="translate(-365.189 -370.031)" fill="#263238"/>
          </g>
          <g id="Group_1071" data-name="Group 1071" transform="translate(136.285 163.542)">
            <path id="Path_1487" data-name="Path 1487" d="M365.655,359.8c.278,0,.508,2.212.516,4.941s-.215,4.945-.493,4.945-.508-2.212-.514-4.941S365.377,359.8,365.655,359.8Z" transform="translate(-365.164 -359.802)" fill="#263238"/>
          </g>
          <g id="Group_1072" data-name="Group 1072" transform="translate(136.237 143.764)">
            <path id="Path_1488" data-name="Path 1488" d="M365.63,349.572c.278,0,.51,2.212.516,4.943s-.213,4.943-.491,4.945-.508-2.214-.516-4.943S365.354,349.572,365.63,349.572Z" transform="translate(-365.139 -349.572)" fill="#263238"/>
          </g>
          <g id="Group_1073" data-name="Group 1073" transform="translate(136.191 128.723)">
            <path id="Path_1489" data-name="Path 1489" d="M368.953,345.6c-.089.1-.588-.151-1.291-.7a13.346,13.346,0,0,1-1.172-1.036q-.316-.31-.638-.673l-.321-.373-.16-.2-.079-.1-.041-.054-.019-.027-.012-.015-.006-.008,0,0,0,0c.406-.132-.913.292.911-.294.008,2.668-.213,4.833-.491,4.833s-.508-2.161-.514-4.831l.913-.294,0,0,0,0,0,0,.008.012.017.023.035.046.072.093.145.186.292.363.568.682.984,1.152C368.715,345.046,369.045,345.489,368.953,345.6Z" transform="translate(-365.115 -341.792)" fill="#263238"/>
          </g>
          <g id="Group_1074" data-name="Group 1074" transform="translate(148.02 137.41)">
            <path id="Path_1490" data-name="Path 1490" d="M380.392,348.5c-.008.267-2.185.394-4.779-.218s-4.489-1.69-4.375-1.933c.114-.263,2.111.377,4.605.953S380.408,348.21,380.392,348.5Z" transform="translate(-371.233 -346.286)" fill="#263238"/>
          </g>
          <g id="Group_1075" data-name="Group 1075" transform="translate(166.561 135.839)">
            <path id="Path_1491" data-name="Path 1491" d="M389.73,345.519c.137.236-1.661,1.471-4.184,2.32s-4.682.982-4.721.75c-.064-.313,1.966-.88,4.4-1.705S389.6,345.27,389.73,345.519Z" transform="translate(-380.824 -345.473)" fill="#263238"/>
          </g>
          <g id="Group_1076" data-name="Group 1076" transform="translate(182.931 122.29)">
            <path id="Path_1492" data-name="Path 1492" d="M394.4,338.469c.247.1-.346,2.194-1.788,4.439s-3.113,3.656-3.3,3.464c-.207-.2,1.081-1.848,2.451-4.008C393.151,340.215,394.133,338.359,394.4,338.469Z" transform="translate(-389.292 -338.465)" fill="#263238"/>
          </g>
          <g id="Group_1077" data-name="Group 1077" transform="translate(190.351 103.791)">
            <path id="Path_1493" data-name="Path 1493" d="M393.515,328.9c.269-.035.739,2.078.679,4.727s-.607,4.74-.876,4.694-.178-2.142-.131-4.715S393.233,328.927,393.515,328.9Z" transform="translate(-393.129 -328.896)" fill="#263238"/>
          </g>
          <g id="Group_1078" data-name="Group 1078" transform="translate(183.115 86.896)">
            <path id="Path_1494" data-name="Path 1494" d="M389.408,320.174c.189-.189,1.868,1.195,3.366,3.4s2.163,4.282,1.914,4.383-1.293-1.707-2.745-3.816S389.2,320.374,389.408,320.174Z" transform="translate(-389.387 -320.157)" fill="#263238"/>
          </g>
          <g id="Group_1079" data-name="Group 1079" transform="translate(167.108 77.306)">
            <path id="Path_1495" data-name="Path 1495" d="M381.109,315.29c.058-.263,2.212.014,4.663,1.04s4.166,2.353,4.021,2.579c-.149.245-2.04-.669-4.41-1.649S381.041,315.568,381.109,315.29Z" transform="translate(-381.107 -315.197)" fill="#263238"/>
          </g>
          <g id="Group_1080" data-name="Group 1080" transform="translate(148.473 76)">
            <path id="Path_1496" data-name="Path 1496" d="M371.472,316.4c-.1-.251,1.866-1.21,4.5-1.638s4.787-.2,4.783.07c0,.29-2.09.5-4.619.924C373.6,316.164,371.568,316.669,371.472,316.4Z" transform="translate(-371.468 -314.521)" fill="#263238"/>
          </g>
          <g id="Group_1081" data-name="Group 1081" transform="translate(136.426 81.112)">
            <path id="Path_1497" data-name="Path 1497" d="M365.742,317.165c.278,0,.5,2.165.5,4.833-1.846-.551-.512-.153-.924-.278l0,0,0,0,.006-.008.01-.015.019-.029.039-.056.077-.106.157-.2.315-.385c.213-.245.423-.476.634-.684a12.089,12.089,0,0,1,1.175-1.04c.711-.541,1.216-.785,1.3-.68s-.249.543-.814,1.2l-.98,1.148c-.2.244-.381.468-.557.684l-.282.367-.137.189-.068.095-.033.046-.016.021-.008.012,0,0,0,0,0,0-.924-.276C365.239,319.33,365.465,317.165,365.742,317.165Z" transform="translate(-365.237 -317.165)" fill="#263238"/>
          </g>
          <g id="Group_1082" data-name="Group 1082" transform="translate(136.429 59.633)">
            <path id="Path_1498" data-name="Path 1498" d="M365.741,306.055c.278,0,.5,2.405.5,5.369s-.226,5.371-.5,5.371-.5-2.4-.5-5.371S365.464,306.055,365.741,306.055Z" transform="translate(-365.238 -306.055)" fill="#263238"/>
          </g>
          <g id="Group_1083" data-name="Group 1083" transform="translate(136.429 38.152)">
            <path id="Path_1499" data-name="Path 1499" d="M365.741,294.944c.278,0,.5,2.4.5,5.371s-.226,5.369-.5,5.369-.5-2.4-.5-5.369S365.464,294.944,365.741,294.944Z" transform="translate(-365.238 -294.944)" fill="#263238"/>
          </g>
          <g id="Group_1084" data-name="Group 1084" transform="translate(136.429 16.673)">
            <path id="Path_1500" data-name="Path 1500" d="M365.741,283.834c.278,0,.5,2.4.5,5.369s-.226,5.371-.5,5.371-.5-2.4-.5-5.371S365.462,283.834,365.741,283.834Z" transform="translate(-365.238 -283.834)" fill="#263238"/>
          </g>
          <g id="Group_1085" data-name="Group 1085" transform="translate(132.098 0.595)">
            <path id="Path_1501" data-name="Path 1501" d="M363,275.986c0-.278,2.169-.487,4.837-.468,1,1.005.276.28.5.5v.124l0,.124,0,.245-.008.479c-.008.288-.017.584-.029.909-.025.578-.062,1.1-.108,1.535-.091.874-.216,1.415-.356,1.415s-.265-.541-.356-1.415c-.044-.437-.081-.957-.108-1.535l-.029-.909-.008-.479,0-.245v-.247l.5.5C365.159,276.506,363,276.265,363,275.986Z" transform="translate(-362.998 -275.517)" fill="#263238"/>
          </g>
          <g id="Group_1086" data-name="Group 1086" transform="translate(114.613 0.463)">
            <path id="Path_1502" data-name="Path 1502" d="M353.954,275.922c0-.278,1.96-.489,4.375-.472s4.369.257,4.367.536-1.96.489-4.375.472S353.952,276.2,353.954,275.922Z" transform="translate(-353.954 -275.449)" fill="#263238"/>
          </g>
          <g id="Group_1087" data-name="Group 1087" transform="translate(97.129 0.336)">
            <path id="Path_1503" data-name="Path 1503" d="M344.91,275.856c0-.276,1.96-.489,4.375-.472s4.369.257,4.367.536-1.96.489-4.375.472S344.908,276.135,344.91,275.856Z" transform="translate(-344.91 -275.383)" fill="#263238"/>
          </g>
          <g id="Group_1088" data-name="Group 1088" transform="translate(79.642 0.21)">
            <path id="Path_1504" data-name="Path 1504" d="M335.865,275.791c0-.278,1.962-.491,4.375-.472s4.371.257,4.369.534-1.962.489-4.375.472S335.863,276.068,335.865,275.791Z" transform="translate(-335.865 -275.318)" fill="#263238"/>
          </g>
          <g id="Group_1089" data-name="Group 1089" transform="translate(65.657 0.013)">
            <path id="Path_1505" data-name="Path 1505" d="M332.254,279.392c-.112.083-.566-.247-1.2-.839-.319-.3-.682-.659-1.073-1.071l-.6-.652-.315-.35-.176-.159-.091-.079-.044-.041-.023-.019-.012-.01,0-.006,0,0,0,0c-.3.785.412-1.071.34-.88,2.668.019,4.829.261,4.827.539s-2.165.487-4.835.468c-.075.191.64-1.665.338-.88l0,0,0,0,.008.006.012.012.023.021.048.043.095.085.186.172.317.373c.184.228.375.462.584.717.369.462.688.885.943,1.249C332.109,278.821,332.364,279.306,332.254,279.392Z" transform="translate(-328.631 -275.216)" fill="#263238"/>
          </g>
          <g id="Group_1090" data-name="Group 1090" transform="translate(73.703 12.354)">
            <path id="Path_1506" data-name="Path 1506" d="M334.74,290.735c-.286.012-.568-2.049-1.086-4.536-.5-2.488-1.059-4.491-.791-4.6.247-.1,1.253,1.808,1.777,4.392S335.009,290.733,334.74,290.735Z" transform="translate(-332.793 -281.6)" fill="#263238"/>
          </g>
          <g id="Group_1091" data-name="Group 1091" transform="translate(71.175 30.777)">
            <path id="Path_1507" data-name="Path 1507" d="M331.525,299.759c-.244-.153.669-2.022,1.632-4.373s1.641-4.319,1.922-4.255c.263.054.019,2.2-.992,4.638S331.751,299.9,331.525,299.759Z" transform="translate(-331.485 -291.129)" fill="#263238"/>
          </g>
          <g id="Group_1092" data-name="Group 1092" transform="translate(57.564 46.601)">
            <path id="Path_1508" data-name="Path 1508" d="M324.451,304.538c-.118-.261,1.676-1.311,3.78-2.732s3.764-2.678,3.959-2.469c.19.193-1.2,1.837-3.4,3.3S324.557,304.785,324.451,304.538Z" transform="translate(-324.445 -299.314)" fill="#263238"/>
          </g>
          <g id="Group_1093" data-name="Group 1093" transform="translate(39.318 54.279)">
            <path id="Path_1509" data-name="Path 1509" d="M315.008,303.565c.046-.278,2.136-.346,4.665-.174,2.531-.189,4.621-.114,4.669.16s-2.042.655-4.667.847C317.05,304.224,314.96,303.835,315.008,303.565Z" transform="translate(-315.008 -303.286)" fill="#263238"/>
          </g>
          <g id="Group_1094" data-name="Group 1094" transform="translate(22.614 46.655)">
            <path id="Path_1510" data-name="Path 1510" d="M306.384,299.365c.2-.209,1.85,1.054,3.965,2.459s3.909,2.463,3.789,2.724c-.1.247-2.158-.418-4.348-1.887S306.2,299.558,306.384,299.365Z" transform="translate(-306.367 -299.342)" fill="#263238"/>
          </g>
          <g id="Group_1095" data-name="Group 1095" transform="translate(13.036 30.86)">
            <path id="Path_1511" data-name="Path 1511" d="M301.51,291.174c.28-.064.953,1.9,1.933,4.247s1.885,4.215,1.641,4.367c-.224.147-1.566-1.543-2.571-3.983S301.247,291.23,301.51,291.174Z" transform="translate(-301.413 -291.172)" fill="#263238"/>
          </g>
          <g id="Group_1096" data-name="Group 1096" transform="translate(11.966 12.422)">
            <path id="Path_1512" data-name="Path 1512" d="M302.933,281.639c.271.1-.265,2.111-.752,4.607s-.775,4.555-1.063,4.547c-.269,0-.443-2.156.075-4.742S302.686,281.538,302.933,281.639Z" transform="translate(-300.859 -281.635)" fill="#263238"/>
          </g>
          <g id="Group_1097" data-name="Group 1097" transform="translate(16.76)">
            <path id="Path_1513" data-name="Path 1513" d="M303.339,275.792c0-.276,2.163-.5,4.831-.5.16.383-.356-.856.359.856l0,0,0,0-.006,0-.012.012-.021.023-.044.043-.087.089-.172.172a4.557,4.557,0,0,0-.329.342l-.6.663c-.387.418-.746.785-1.061,1.086-.628.6-1.077.938-1.189.855s.137-.572.638-1.307c.251-.365.565-.793.924-1.258.2-.257.392-.493.574-.723a3.758,3.758,0,0,1,.325-.358l.172-.178.087-.089.043-.044.023-.023.01-.01.006-.006,0,0v0c.717,1.713.2.476.358.858C305.5,276.3,303.339,276.07,303.339,275.792Z" transform="translate(-303.339 -275.21)" fill="#263238"/>
          </g>
          <g id="Group_1098" data-name="Group 1098" transform="translate(0 0.08)">
            <path id="Path_1514" data-name="Path 1514" d="M294.67,275.754c0-.276,1.083-.5,2.417-.5s2.417.226,2.417.5-1.081.5-2.417.5S294.67,276.032,294.67,275.754Z" transform="translate(-294.67 -275.251)" fill="#263238"/>
          </g>
        </g>
        <g id="Group_1100" data-name="Group 1100" transform="translate(0 0.246)">
          <path id="Path_1515" data-name="Path 1515" d="M457.3,502.281s-.47.041-1.384.06l-4.048.058c-3.6.027-8.818.064-15.482.11-13.436.041-32.7.1-56.176.174h-.354l-.046-.365c-1.968-15.824-4.288-33.779-7.225-53.108-.737-9.842-6.4-18.654-12.313-27.124A311.08,311.08,0,0,0,340.058,397.2c-9.494-10.739-19.128-20.868-28.226-30.772-4.541-4.961-8.978-9.844-13.034-14.871a70.278,70.278,0,0,1-5.485-7.855c-1.659-2.678-3.171-5.39-4.609-8.091a205.124,205.124,0,0,1-13.332-31.669,209.793,209.793,0,0,1-7.2-28.207l-.072-.4.4,0c15.47.066,27.836.118,36.379.153l9.752.089,2.519.046c.566.015.855.046.855.046s-.288.033-.855.048l-2.519.046c-2.264.019-5.535.05-9.752.089l-36.379.151.329-.394a212.514,212.514,0,0,0,7.308,28.075,206.166,206.166,0,0,0,13.375,31.493c1.435,2.681,2.944,5.376,4.6,8.027a69.476,69.476,0,0,0,5.435,7.753c4.033,4.982,8.47,9.852,13.011,14.8,9.1,9.885,18.747,20.013,28.257,30.77a309.623,309.623,0,0,1,20.272,24.976,106.309,106.309,0,0,1,8.157,13.179,45.029,45.029,0,0,1,2.871,7.049,50.975,50.975,0,0,1,1.417,7.327c2.908,19.366,5.172,37.293,7.084,53.179l-.4-.365c23.478.073,42.739.133,56.176.174l15.482.108q2.616.038,4.048.06C456.833,502.24,457.3,502.281,457.3,502.281Z" transform="translate(-268.101 -275.337)" fill="#263238"/>
        </g>
        <g id="Group_1115" data-name="Group 1115" transform="translate(29.141 74.056)">
          <g id="Group_1101" data-name="Group 1101" transform="translate(154.98 152.629)">
            <path id="Path_1516" data-name="Path 1516" d="M363.338,392.968c0-.278,1.081-.5,2.417-.5s2.417.226,2.417.5-1.083.5-2.417.5S363.338,393.246,363.338,392.968Z" transform="translate(-363.338 -392.463)" fill="#263238"/>
          </g>
          <g id="Group_1102" data-name="Group 1102" transform="translate(135.714 152.629)">
            <path id="Path_1517" data-name="Path 1517" d="M353.373,392.968c0-.278,2.158-.5,4.816-.5s4.818.226,4.818.5-2.158.5-4.818.5S353.373,393.246,353.373,392.968Z" transform="translate(-353.373 -392.463)" fill="#263238"/>
          </g>
          <g id="Group_1103" data-name="Group 1103" transform="translate(116.451 152.629)">
            <path id="Path_1518" data-name="Path 1518" d="M343.409,392.968c0-.278,2.158-.5,4.816-.5s4.816.226,4.816.5-2.156.5-4.816.5S343.409,393.246,343.409,392.968Z" transform="translate(-343.409 -392.463)" fill="#263238"/>
          </g>
          <g id="Group_1104" data-name="Group 1104" transform="translate(97.188 152.629)">
            <path id="Path_1519" data-name="Path 1519" d="M333.445,392.968c0-.278,2.156-.5,4.816-.5s4.816.226,4.816.5-2.156.5-4.816.5S333.445,393.246,333.445,392.968Z" transform="translate(-333.445 -392.463)" fill="#263238"/>
          </g>
          <g id="Group_1105" data-name="Group 1105" transform="translate(81.953 148.34)">
            <path id="Path_1520" data-name="Path 1520" d="M325.749,390.245c.137-.017.329.5.526,1.365.1.429.2.943.294,1.516.048.321.095.615.139.9l.066.476.031.244.016.124.008.062,0,.031,0,.016,0,.01v0l-.5-.458h0c2.668,0,4.831.226,4.831.5s-2.163.5-4.831.5h0c.071-1.011-.654-.22-.5-.458v-.012l0-.015,0-.031-.008-.062-.016-.124-.027-.242-.05-.476-.081-.9c-.044-.574-.07-1.092-.077-1.531C325.552,390.814,325.612,390.263,325.749,390.245Z" transform="translate(-325.565 -390.245)" fill="#263238"/>
          </g>
          <g id="Group_1106" data-name="Group 1106" transform="translate(79.417 128.437)">
            <path id="Path_1521" data-name="Path 1521" d="M324.423,379.95c.276-.037.789,2.161,1.146,4.909s.425,5,.149,5.038-.789-2.161-1.146-4.909S324.147,379.987,324.423,379.95Z" transform="translate(-324.253 -379.95)" fill="#263238"/>
          </g>
          <g id="Group_1107" data-name="Group 1107" transform="translate(76.681 108.555)">
            <path id="Path_1522" data-name="Path 1522" d="M323,369.666c.276-.039.812,2.154,1.2,4.9s.478,5,.2,5.038-.814-2.154-1.2-4.9S322.722,369.707,323,369.666Z" transform="translate(-322.838 -369.666)" fill="#263238"/>
          </g>
          <g id="Group_1108" data-name="Group 1108" transform="translate(72.75 88.957)">
            <path id="Path_1523" data-name="Path 1523" d="M320.861,359.533c.238-.11,1.406,1.868,2.138,4.605.692,2.77.636,5.019.414,5.061-.323.062-.731-2.194-1.388-4.806C321.325,361.768,320.593,359.647,320.861,359.533Z" transform="translate(-320.805 -359.529)" fill="#263238"/>
          </g>
          <g id="Group_1109" data-name="Group 1109" transform="translate(62.527 71.743)">
            <path id="Path_1524" data-name="Path 1524" d="M315.546,350.635c.224-.164,1.663,1.578,3.211,3.89s2.61,4.3,2.372,4.447-1.676-1.6-3.211-3.89S315.322,350.8,315.546,350.635Z" transform="translate(-315.517 -350.624)" fill="#263238"/>
          </g>
          <g id="Group_1110" data-name="Group 1110" transform="translate(50.096 55.985)">
            <path id="Path_1525" data-name="Path 1525" d="M309.11,342.488c.213-.18,1.812,1.415,3.573,3.561s3.012,4.025,2.8,4.2-1.819-1.423-3.575-3.561S308.9,342.669,309.11,342.488Z" transform="translate(-309.087 -342.474)" fill="#263238"/>
          </g>
          <g id="Group_1111" data-name="Group 1111" transform="translate(36.844 40.921)">
            <path id="Path_1526" data-name="Path 1526" d="M302.253,334.7c.2-.188,1.873,1.336,3.724,3.4s3.182,3.89,2.973,4.075-1.875-1.34-3.724-3.4S302.048,334.885,302.253,334.7Z" transform="translate(-302.232 -334.682)" fill="#263238"/>
          </g>
          <g id="Group_1112" data-name="Group 1112" transform="translate(23.237 26.164)">
            <path id="Path_1527" data-name="Path 1527" d="M295.214,327.065c.2-.189,1.9,1.3,3.781,3.337s3.248,3.832,3.045,4.021-1.9-1.305-3.783-3.337S295.011,327.254,295.214,327.065Z" transform="translate(-295.194 -327.049)" fill="#263238"/>
          </g>
          <g id="Group_1113" data-name="Group 1113" transform="translate(9.641 11.394)">
            <path id="Path_1528" data-name="Path 1528" d="M288.182,319.425c.207-.187,1.889,1.322,3.756,3.368s3.215,3.857,3.01,4.046-1.885-1.32-3.754-3.37S287.975,319.608,288.182,319.425Z" transform="translate(-288.161 -319.409)" fill="#263238"/>
          </g>
          <g id="Group_1114" data-name="Group 1114">
            <path id="Path_1529" data-name="Path 1529" d="M283.228,313.54c.222-.166,1.071.539,1.9,1.578s1.32,2.022,1.108,2.2-1.063-.526-1.9-1.576S283.005,313.706,283.228,313.54Z" transform="translate(-283.174 -313.515)" fill="#263238"/>
          </g>
        </g>
      </g>
    </g>
    <path id="Path_1530" data-name="Path 1530" d="M15.824,42.124c14.915-2.443,29.8-5.1,44.674-7.769,21.06-3.78,42.1-7.648,63.155-11.474,14.568-2.647,29.153-5.205,43.7-7.975a27.835,27.835,0,0,0,13.57-6.272c2.99-2.663,2.257-5.757-1.5-7.109A21.24,21.24,0,0,0,170.9.045a40.851,40.851,0,0,0-5.934.292Q118.726,8.666,72.485,16.965c-19.3,3.484-38.6,6.96-57.867,10.62A25.562,25.562,0,0,0,1.087,34.362a3.214,3.214,0,0,0-.98,3.311C.518,39.7,2.069,40.454,3.67,40.959A26.351,26.351,0,0,0,15.824,42.124Z" transform="matrix(0.985, 0.174, -0.174, 0.985, 376.789, 713.51)" fill="#ffad00"/>
    <path id="Path_1531" data-name="Path 1531" d="M173.1,1.869C168.161-.493,162.876-.236,157.779.578,143.46,2.865,129.2,5.5,114.927,8.066Q82.177,13.951,49.445,19.931c-12.053,2.206-24.188,3.995-36.118,6.832-4.467,1.063-8.745,2.77-11.977,6.306-2.179,2.384-1.678,4.716,1.191,6.177,3.524,1.794,7.382,1.546,11.135,2.066,1.082-.119,2.171-.173,3.234-.365q40.3-7.245,80.6-14.515c20.913-3.763,41.844-7.43,62.734-11.318,5.2-.969,10.162-2.873,13.994-6.844C176.743,5.674,176.339,3.421,173.1,1.869Z" transform="matrix(0.985, 0.174, -0.174, 0.985, 380.797, 730.576)" fill="#ffad00"/>
    <path id="Path_1532" data-name="Path 1532" d="M1.228,33.106c-1.929,2.122-1.558,4.4.921,5.784A17.9,17.9,0,0,0,5.366,40.2c4.577,1.477,9.239,1.021,13.822.224Q46.914,35.6,74.6,30.562,116.379,23.03,158.139,15.4c5.811-1.071,11.524-2.664,15.911-7.055,2.826-2.83,2.206-5.449-1.616-6.835a19.517,19.517,0,0,0-8.379-1.44,42.549,42.549,0,0,0-6.539.316q-26.095,4.705-52.2,9.357c-21.06,3.788-42.124,7.554-63.167,11.429-9.682,1.783-19.463,3.093-29.015,5.5C8.7,27.784,4.433,29.582,1.228,33.106Z" transform="matrix(0.985, 0.174, -0.174, 0.985, 379.261, 698.788)" fill="#ffad00"/>
    <path id="Path_1533" data-name="Path 1533" d="M3.224,37.382c3.07,1.316,6.366,1.225,9.586,1.656,1.851-.221,3.713-.35,5.54-.676q35.491-6.329,70.973-12.709,13.275-2.383,26.548-4.8c10.676-1.953,21.376-3.795,32.006-5.974,4.557-.934,8.908-2.684,12.211-6.294,2.216-2.421,1.91-4.86-1.03-6.417A21.148,21.148,0,0,0,145.71.332c-11.1,1.725-22.153,3.82-33.213,5.818Q77.021,12.556,41.553,19.016c-9.533,1.732-19.086,3.379-28.587,5.277A23.41,23.41,0,0,0,1.9,29.923C-1.106,32.619-.457,35.8,3.224,37.382Z" transform="matrix(0.985, 0.174, -0.174, 0.985, 385.991, 685.032)" fill="#ffad00"/>
    <path id="Path_1534" data-name="Path 1534" d="M158.442,1.6A15.778,15.778,0,0,0,150.1.093c-5.752-.3-11.048,1.08-16.372,2.029q-40.64,7.243-81.243,14.7c-12.737,2.315-25.489,4.558-38.192,7.047-4.568.9-8.983,2.475-12.442,5.894-2.887,2.854-2.365,5.894,1.4,7.441a23.788,23.788,0,0,0,13.27,1.288c25.194-4.435,50.359-9.036,75.537-13.568,17.853-3.213,35.718-6.362,53.561-9.634,5.237-.96,10.2-2.758,14.135-6.564C162.538,6.038,162,3.2,158.442,1.6Z" transform="matrix(0.985, 0.174, -0.174, 0.985, 387.745, 749.019)" fill="#ffad00"/>
    <path id="Path_1535" data-name="Path 1535" d="M1.561,27C-.93,29.35-.352,32.734,2.668,34.276a15.968,15.968,0,0,0,8.306,1.749,28.324,28.324,0,0,0,7.418-.633q27.827-4.925,55.629-9.99,27.352-4.94,54.7-9.913c4.77-.869,9.255-2.362,13.16-5.462,4.1-3.255,2.605-7.272-1.418-8.675A26.04,26.04,0,0,0,126.972.505Q106.829,4.133,86.691,7.8q-36.169,6.511-72.342,13A24.545,24.545,0,0,0,1.561,27Z" transform="matrix(0.985, 0.174, -0.174, 0.985, 394.199, 672.021)" fill="#ffad00"/>
    <path id="Path_1536" data-name="Path 1536" d="M141.324,1.706c-4.465-2.05-9.2-2-13.9-1.164Q95.82,6.151,64.237,11.871q-23.808,4.282-47.61,8.594c-5.456.993-10.8,2.351-14.948,6.381-2.745,2.667-2.028,6.088,1.45,7.679,3.051,1.4,6.345,1.288,9.589,1.761.9-.111,1.829-.18,2.741-.345q43.261-7.83,86.514-15.692c10.3-1.883,20.685-3.251,30.888-5.622a20.609,20.609,0,0,0,9.677-5.3C145.4,6.582,144.922,3.358,141.324,1.706Z" transform="matrix(0.985, 0.174, -0.174, 0.985, 395.984, 767.667)" fill="#ffad00"/>
    <path id="Path_1537" data-name="Path 1537" d="M10.535,30.2c.575-.086,1.189-.162,1.8-.272q20.031-3.589,40.061-7.189c14.419-2.609,28.841-5.206,43.242-7.908,3.751-.7,7.081-2.346,9.147-5.8a4.775,4.775,0,0,0-1.529-6.712,12.607,12.607,0,0,0-9.5-2.11q-42,7.6-84.014,15.071A14.035,14.035,0,0,0,1.7,19.915c-2.671,2.843-2.126,6.323,1.184,8.444C5.236,29.868,7.913,29.741,10.535,30.2Z" transform="matrix(0.985, 0.174, -0.174, 0.985, 413.484, 662.436)" fill="#ffad00"/>
    <path id="Path_1538" data-name="Path 1538" d="M103.339,2.139C99.848-.143,96-.339,92.126.35Q54.558,7.028,17.02,13.857c-4.182.756-8.472,1.114-12.26,3.371-4.412,2.629-6.1,6.71-3.589,9.422a10.046,10.046,0,0,0,9,3.39c29.026-5.08,58.016-10.371,87.016-15.6,2.981-.538,5.183-2.345,7.082-4.552a5.1,5.1,0,0,0,1.306-3.412A4.9,4.9,0,0,0,103.339,2.139Z" transform="matrix(0.985, 0.174, -0.174, 0.985, 413.847, 790.002)" fill="#ffad00"/>
  </g>
</svg>
