<svg xmlns="http://www.w3.org/2000/svg" width="302.008" height="187.23" viewBox="0 0 302.008 187.23">
  <g id="full-logo" transform="translate(-2306.006 1391.768)">
    <g id="Group_26" data-name="Group 26" transform="translate(2381.222 -1219.826)">
      <path id="Path_190" data-name="Path 190" d="M3418.238-184.43c-.856-1.245-1.277-2.591-.217-3.935a2.984,2.984,0,0,1,3.249-.921,2.489,2.489,0,0,1,1.917,2.254c-.17.045-.344.086-.516.139a.559.559,0,0,1-.807-.387,1.535,1.535,0,0,0-1.72-1,1.625,1.625,0,0,0-1.206,2.439,5.649,5.649,0,0,0,1.089,1.4c.99.981,2.025,1.917,3.081,2.908a14.381,14.381,0,0,0,.492-1.447c.226-.964.2-.97,1.246-.856a5.909,5.909,0,0,1-1,3.294l2.3,2.084c-.053.1-.107.2-.161.3a5.269,5.269,0,0,1-1.672-.189,5.8,5.8,0,0,1-1.3-1.183c-.275.2-.543.419-.831.6a4.659,4.659,0,0,1-4.226.632,2.984,2.984,0,0,1-1.215-4.924A12.858,12.858,0,0,1,3418.238-184.43Zm3.94,4.1c-1.109-1.075-2.2-2.127-3.394-3.286a7.539,7.539,0,0,0-1.158,1.323,2.039,2.039,0,0,0,1.718,3.083A3.558,3.558,0,0,0,3422.179-180.327Z" transform="translate(-3333.001 189.676)" fill="#fff"/>
      <path id="Path_191" data-name="Path 191" d="M2833.972-184.83h2.681c3.295,0,5.063,1.915,5.063,5.32s-1.769,5.4-5,5.4h-2.741Zm2.58,9.6c2.5,0,3.755-1.57,3.755-4.279s-1.25-4.2-3.755-4.2h-1.217v8.482Z" transform="translate(-2833.972 185.747)" fill="#fff"/>
      <path id="Path_192" data-name="Path 192" d="M2897.266-188.087a.865.865,0,0,1,.928-.868.863.863,0,0,1,.928.868.875.875,0,0,1-.928.868A.877.877,0,0,1,2897.266-188.087Zm.246,2.5h1.343v7.939h-1.343Z" transform="translate(-2888.249 189.284)" fill="#fff"/>
      <path id="Path_193" data-name="Path 193" d="M2918.375-157.033a2.23,2.23,0,0,1,1.164-1.795v-.065a1.469,1.469,0,0,1-.708-1.3,1.905,1.905,0,0,1,.871-1.474v-.065a2.767,2.767,0,0,1-1.026-2.132,2.818,2.818,0,0,1,2.979-2.827,3.251,3.251,0,0,1,1.121.2h2.769v1.035h-1.629a2.289,2.289,0,0,1,.646,1.633,2.714,2.714,0,0,1-2.906,2.752,2.823,2.823,0,0,1-1.184-.269,1.163,1.163,0,0,0-.506.938c0,.5.328.862,1.391.862h1.545c1.846,0,2.774.579,2.774,1.9,0,1.475-1.561,2.745-4.015,2.745C2919.717-154.9,2918.375-155.666,2918.375-157.033Zm5.983-.416c0-.734-.557-.985-1.6-.985h-1.372a4.522,4.522,0,0,1-1.03-.119,1.655,1.655,0,0,0-.809,1.331c0,.853.859,1.392,2.3,1.392C2923.364-155.83,2924.358-156.62,2924.358-157.449Zm-1.017-6.416a1.7,1.7,0,0,0-1.687-1.854,1.69,1.69,0,0,0-1.686,1.854,1.735,1.735,0,0,0,1.686,1.886A1.738,1.738,0,0,0,2923.342-163.865Z" transform="translate(-2906.351 170.192)" fill="#fff"/>
      <path id="Path_194" data-name="Path 194" d="M2974.054-188.087a.865.865,0,0,1,.928-.868.864.864,0,0,1,.928.868.876.876,0,0,1-.928.868A.877.877,0,0,1,2974.054-188.087Zm.246,2.5h1.344v7.939H2974.3Z" transform="translate(-2954.097 189.284)" fill="#fff"/>
      <path id="Path_195" data-name="Path 195" d="M2993.932-173.234v-4.39h-1.182v-1.017l1.241-.077.161-2.226h1.122v2.226h2.15v1.094h-2.15v4.413c0,.971.313,1.533,1.228,1.533a2.651,2.651,0,0,0,.9-.213l.259,1.014a4.77,4.77,0,0,1-1.473.294C2994.5-170.584,2993.932-171.655,2993.932-173.234Z" transform="translate(-2970.13 182.415)" fill="#fff"/>
      <path id="Path_196" data-name="Path 196" d="M3027.683-160.619c0-1.729,1.492-2.594,4.875-2.961,0-1.022-.342-2.005-1.638-2.005a4.375,4.375,0,0,0-2.367.851l-.526-.92a5.818,5.818,0,0,1,3.117-1.037c1.938,0,2.758,1.288,2.758,3.264v4.871h-1.109l-.113-.949h-.045a4.216,4.216,0,0,1-2.625,1.145A2.158,2.158,0,0,1,3027.683-160.619Zm4.875.124v-2.2c-2.659.32-3.559.971-3.559,1.986,0,.9.612,1.269,1.391,1.269A3.264,3.264,0,0,0,3032.558-160.495Z" transform="translate(-3000.086 170.192)" fill="#fff"/>
      <path id="Path_197" data-name="Path 197" d="M3084.314-181.223v-10.04h1.343v10.138c0,.411.18.574.375.574a1.167,1.167,0,0,0,.294-.033l.182,1.026a2.148,2.148,0,0,1-.772.126C3084.729-179.432,3084.314-180.075,3084.314-181.223Z" transform="translate(-3048.649 191.263)" fill="#fff"/>
      <path id="Path_198" data-name="Path 198" d="M3127.292-166.5h1.11l.113,1.151h.045a3.53,3.53,0,0,1,2.471-1.347,2.094,2.094,0,0,1,2.19,1.513,3.75,3.75,0,0,1,2.618-1.513c1.632,0,2.416,1.079,2.416,3.1v5.03h-1.344v-4.856c0-1.479-.467-2.112-1.478-2.112a2.9,2.9,0,0,0-1.988,1.219v5.749H3132.1v-4.856c0-1.479-.47-2.112-1.479-2.112a2.946,2.946,0,0,0-1.989,1.219v5.749h-1.344Z" transform="translate(-3085.505 170.192)" fill="#fff"/>
      <path id="Path_199" data-name="Path 199" d="M3213.58-162.517c0-2.584,1.741-4.175,3.568-4.175,2.024,0,3.168,1.454,3.168,3.725a4.314,4.314,0,0,1-.062.763h-5.346a2.639,2.639,0,0,0,2.638,2.772,3.469,3.469,0,0,0,1.976-.635l.48.881a4.666,4.666,0,0,1-2.62.824C3215.266-158.362,3213.58-159.909,3213.58-162.517Zm5.55-.65c0-1.591-.716-2.455-1.957-2.455a2.434,2.434,0,0,0-2.276,2.455Z" transform="translate(-3159.5 170.192)" fill="#fff"/>
      <path id="Path_200" data-name="Path 200" d="M3266.014-183.587c0-2.575,1.624-4.175,3.435-4.175a3.25,3.25,0,0,1,2.225.92l-.057-1.362v-3.059h1.342v11.635h-1.108l-.113-.937h-.045a3.512,3.512,0,0,1-2.408,1.133C3267.3-179.432,3266.014-180.942,3266.014-183.587Zm5.6,1.941v-4.161a2.793,2.793,0,0,0-1.937-.826c-1.27,0-2.278,1.225-2.278,3.033,0,1.9.787,3.036,2.18,3.036A2.741,2.741,0,0,0,3271.616-181.646Z" transform="translate(-3204.464 191.263)" fill="#fff"/>
      <path id="Path_201" data-name="Path 201" d="M3327.282-188.087a.864.864,0,0,1,.929-.868.864.864,0,0,1,.928.868.876.876,0,0,1-.928.868A.876.876,0,0,1,3327.282-188.087Zm.246,2.5h1.343v7.939h-1.343Z" transform="translate(-3257.004 189.284)" fill="#fff"/>
      <path id="Path_202" data-name="Path 202" d="M3349.164-160.619c0-1.729,1.493-2.594,4.876-2.961,0-1.022-.342-2.005-1.639-2.005a4.375,4.375,0,0,0-2.367.851l-.526-.92a5.824,5.824,0,0,1,3.118-1.037c1.938,0,2.757,1.288,2.757,3.264v4.871h-1.11l-.112-.949h-.046a4.209,4.209,0,0,1-2.625,1.145A2.159,2.159,0,0,1,3349.164-160.619Zm4.876.124v-2.2c-2.661.32-3.561.971-3.561,1.986,0,.9.612,1.269,1.392,1.269A3.266,3.266,0,0,0,3354.04-160.495Z" transform="translate(-3275.768 170.192)" fill="#fff"/>
      <path id="Path_203" data-name="Path 203" d="M3508.926-180.448h-.044l-.127.82h-1.073v-11.635h1.344v3.182l-.045,1.424a4.015,4.015,0,0,1,2.494-1.105c2.051,0,3.154,1.592,3.154,4.039,0,2.712-1.625,4.292-3.438,4.292A3.548,3.548,0,0,1,3508.926-180.448Zm4.313-3.258c0-1.752-.6-2.926-2.091-2.926a3.224,3.224,0,0,0-2.123,1.083v4.161a3.059,3.059,0,0,0,1.934.825C3512.271-180.563,3513.239-181.746,3513.239-183.706Z" transform="translate(-3411.703 191.263)" fill="#fff"/>
      <path id="Path_204" data-name="Path 204" d="M3566.477-166.5h1.109l.114,1.446h.043a2.735,2.735,0,0,1,2.258-1.641,1.843,1.843,0,0,1,.848.163l-.252,1.178a2.2,2.2,0,0,0-.768-.131c-.672,0-1.474.483-2.009,1.826v5.1h-1.344Z" transform="translate(-3462.122 170.192)" fill="#fff"/>
      <path id="Path_205" data-name="Path 205" d="M3595.46-160.619c0-1.729,1.493-2.594,4.876-2.961,0-1.022-.342-2.005-1.639-2.005a4.375,4.375,0,0,0-2.367.851l-.526-.92a5.821,5.821,0,0,1,3.118-1.037c1.937,0,2.757,1.288,2.757,3.264v4.871h-1.109l-.114-.949h-.045a4.21,4.21,0,0,1-2.626,1.145A2.158,2.158,0,0,1,3595.46-160.619Zm4.876.124v-2.2c-2.661.32-3.561.971-3.561,1.986,0,.9.612,1.269,1.392,1.269A3.268,3.268,0,0,0,3600.336-160.495Z" transform="translate(-3486.976 170.192)" fill="#fff"/>
      <path id="Path_206" data-name="Path 206" d="M3652.09-166.5h1.111l.113,1.145h.044a3.792,3.792,0,0,1,2.664-1.341c1.672,0,2.422,1.079,2.422,3.1v5.03H3657.1v-4.856c0-1.479-.445-2.112-1.5-2.112a3.016,3.016,0,0,0-2.172,1.219v5.749h-1.343Z" transform="translate(-3535.538 170.192)" fill="#fff"/>
      <path id="Path_207" data-name="Path 207" d="M3706.231-183.587c0-2.575,1.623-4.175,3.434-4.175a3.25,3.25,0,0,1,2.225.92l-.057-1.362v-3.059h1.343v11.635h-1.108l-.113-.937h-.047a3.5,3.5,0,0,1-2.407,1.133C3707.518-179.432,3706.231-180.942,3706.231-183.587Zm5.6,1.941v-4.161a2.791,2.791,0,0,0-1.936-.826c-1.269,0-2.279,1.225-2.279,3.033,0,1.9.787,3.036,2.181,3.036A2.738,2.738,0,0,0,3711.833-181.646Z" transform="translate(-3581.967 191.263)" fill="#fff"/>
      <path id="Path_208" data-name="Path 208" d="M3767.5-188.087a.865.865,0,0,1,.93-.868.864.864,0,0,1,.927.868.876.876,0,0,1-.927.868A.877.877,0,0,1,3767.5-188.087Zm.246,2.5h1.343v7.939h-1.343Z" transform="translate(-3634.508 189.284)" fill="#fff"/>
      <path id="Path_209" data-name="Path 209" d="M3792.834-166.5h1.11l.113,1.145h.045a3.786,3.786,0,0,1,2.663-1.341c1.672,0,2.422,1.079,2.422,3.1v5.03h-1.343v-4.856c0-1.479-.445-2.112-1.5-2.112a3.013,3.013,0,0,0-2.17,1.219v5.749h-1.343Z" transform="translate(-3656.232 170.192)" fill="#fff"/>
      <path id="Path_210" data-name="Path 210" d="M3846.717-157.033a2.231,2.231,0,0,1,1.163-1.795v-.065a1.468,1.468,0,0,1-.709-1.3,1.9,1.9,0,0,1,.873-1.474v-.065a2.762,2.762,0,0,1-1.028-2.132,2.819,2.819,0,0,1,2.979-2.827,3.255,3.255,0,0,1,1.121.2h2.769v1.035h-1.631a2.29,2.29,0,0,1,.647,1.633,2.713,2.713,0,0,1-2.906,2.752,2.819,2.819,0,0,1-1.184-.269,1.158,1.158,0,0,0-.506.938c0,.5.327.862,1.391.862h1.546c1.845,0,2.772.579,2.772,1.9,0,1.475-1.561,2.745-4.014,2.745C3848.057-154.9,3846.717-155.666,3846.717-157.033Zm5.982-.416c0-.734-.558-.985-1.6-.985h-1.37a4.5,4.5,0,0,1-1.03-.119,1.655,1.655,0,0,0-.812,1.331c0,.853.859,1.392,2.3,1.392C3851.7-155.83,3852.7-156.62,3852.7-157.449Zm-1.018-6.416a1.7,1.7,0,0,0-1.687-1.854,1.692,1.692,0,0,0-1.688,1.854,1.737,1.737,0,0,0,1.688,1.886A1.737,1.737,0,0,0,3851.682-163.865Z" transform="translate(-3702.438 170.192)" fill="#fff"/>
    </g>
    <path id="Path_211" data-name="Path 211" d="M2306.007-867.636c11.511,0,23.021-.035,34.531.019a47.8,47.8,0,0,1,21.065,4.7,39.948,39.948,0,0,1,19.4,19.918,44.943,44.943,0,0,1,3.736,14.307,48.653,48.653,0,0,1-2.045,20.167,39.816,39.816,0,0,1-21.032,24.248,46.409,46.409,0,0,1-18.408,4.621c-1.274.061-2.552.1-3.826.1q-16.709.014-33.42.009Zm18.405,73.8h.8c4.653,0,9.3.025,13.957-.013a47.276,47.276,0,0,0,5.23-.289,23.629,23.629,0,0,0,10.756-4,24.093,24.093,0,0,0,9.4-13.365,42.176,42.176,0,0,0,.54-22.242,25.663,25.663,0,0,0-6.6-12.425,23.92,23.92,0,0,0-16.979-7.1c-5.574-.16-11.156-.051-16.735-.058a2.9,2.9,0,0,0-.367.048Z" transform="translate(-0.001 -448.539)" fill="#f9f9f9"/>
    <path id="Path_212" data-name="Path 212" d="M3233.435-1342.833c-.009.247-.021.494-.021.74q0,24.863,0,49.726v.833c1.6-.1,3.156.178,4.69-.252a3.853,3.853,0,0,0,2.026-1.447q2.971-3.9,5.91-7.836,4.15-5.529,8.288-11.069a6.525,6.525,0,0,1,5.533-2.831c4.963.017,9.924.005,14.889.007.135,0,.271.019.5.037l-2.553,3.253q-7.964,10.117-15.929,20.23a16.119,16.119,0,0,1-4.323,3.789c3.117,2.286,4.717,5.677,6.709,8.75,5.573,8.595,11.078,17.232,16.611,25.853.117.185.225.378.386.657h-.676q-7.32,0-14.64,0a5.942,5.942,0,0,1-5.507-3.071c-4.61-7.666-9.329-15.267-13.971-22.915a4.086,4.086,0,0,0-3.783-2.193c-1.355.016-2.712,0-4.138,0v28.13h-16.81v-90.394Z" transform="translate(-780.895 -41.049)" fill="#f9f9f9"/>
    <path id="Path_213" data-name="Path 213" d="M3272.3-632.98h-16.7v-.8q0-19.61-.006-39.222a13.7,13.7,0,0,0-1.026-5.48,8.152,8.152,0,0,0-7.439-5.134c-4.755-.359-8.677,1.518-12.254,4.455a3.475,3.475,0,0,0-1.384,3.023c.053,14.083.032,28.166.032,42.249V-633h-16.688v-62.515h.674q4.724,0,9.449,0c2.524,0,3.88,1.074,4.475,3.534.29,1.2.576,2.4.89,3.7.226-.205.413-.375.6-.547a27.286,27.286,0,0,1,9.635-6.2c6.171-2.107,12.327-2.2,18.314.615,5.033,2.365,8.162,6.45,9.915,11.646a30.334,30.334,0,0,1,1.508,9.771q.006,19.7,0,39.407Z" transform="translate(-781.07 -595.244)" fill="#f9f9f9"/>
    <path id="Path_214" data-name="Path 214" d="M3649.942-661.478c.6,5.008,1.583,9.724,5.467,13.233a14.667,14.667,0,0,0,8.679,3.59,22.684,22.684,0,0,0,13.681-3.291c.752-.425,1.521-.82,2.293-1.2a5.146,5.146,0,0,1,3.757-.576,4,4,0,0,1,1.871,1.078c1.752,2.045,3.4,4.184,5.105,6.32a24.457,24.457,0,0,1-4.308,4.058,31.249,31.249,0,0,1-14.561,5.815,58.438,58.438,0,0,1-7.869.559,30.932,30.932,0,0,1-18.084-5.432,28.562,28.562,0,0,1-10.425-13.9,39.852,39.852,0,0,1-2.21-16.392,30.3,30.3,0,0,1,7.893-19.43,28.075,28.075,0,0,1,15.126-8.529,32.594,32.594,0,0,1,17.59.862c8.226,2.806,13.45,8.527,15.961,16.775a34.346,34.346,0,0,1,1.235,12.883,6.486,6.486,0,0,1-.177,1.031c-.454,1.823-1.238,2.458-3.12,2.545-.228.011-.453.005-.68.005h-37.225Zm.153-10.037h26.253c-.137-1.157-.216-2.262-.407-3.348a11.578,11.578,0,0,0-3.285-6.5,11.186,11.186,0,0,0-7.016-3.11,15.733,15.733,0,0,0-7.334.925,12,12,0,0,0-6.819,7.388C3650.923-674.671,3650.565-673.108,3650.1-671.515Z" transform="translate(-1138.163 -595.398)" fill="#f9f9f9"/>
    <path id="Path_215" data-name="Path 215" d="M3645.068-1128.184c-.007-2.722.177-5.421-.54-8.065-1.121-4.129-4.155-6.346-8.59-6.489a19.712,19.712,0,0,0-10.331,2.605q-1.594.877-3.2,1.734a7.167,7.167,0,0,1-4.433.745,5.635,5.635,0,0,1-4.033-2.98c-.965-1.576-1.8-3.23-2.728-4.835-.213-.372-.117-.564.173-.82a37.29,37.29,0,0,1,17.175-8.614,40.489,40.489,0,0,1,12.214-.751c8.927.852,16.393,6.15,19.34,15.4a29.127,29.127,0,0,1,1.325,8.871q.021,19.336.006,38.67v.643c-.232.015-.412.038-.59.038-2.532,0-5.065.011-7.6-.006a12.283,12.283,0,0,1-1.656-.16,4.045,4.045,0,0,1-3.316-2.875c-.464-1.229-.854-2.486-1.277-3.73-.064-.188-.136-.374-.227-.621-.85.7-1.652,1.361-2.463,2.014a26.348,26.348,0,0,1-10.086,5.414c-5.613,1.4-11.221,1.506-16.667-.688-5.21-2.1-8.205-6.077-9.218-11.567a16.3,16.3,0,0,1,1.432-10.855,17.046,17.046,0,0,1,5.9-6.186,36.014,36.014,0,0,1,10.383-4.452,63.656,63.656,0,0,1,13.249-2.125C3641.2-1127.987,3643.09-1128.075,3645.068-1128.184Zm-.022,10.083a1.211,1.211,0,0,0-.2-.035,65.913,65.913,0,0,0-11.264,1.306,17.726,17.726,0,0,0-6.82,2.728,6.217,6.217,0,0,0-2.707,5.454c.065,3.108,1.366,5.008,4.18,5.824a15.616,15.616,0,0,0,7.938-.022c3.5-.8,6.215-2.914,8.68-5.4a1.012,1.012,0,0,0,.219-.661c.014-2.924.009-5.848.008-8.772C3645.075-1117.816,3645.057-1117.955,3645.046-1118.1Z" transform="translate(-1116.517 -201.415)" fill="#f9f9f9"/>
    <path id="Path_216" data-name="Path 216" d="M3983.931-1064.556c1.238-2.644,2.447-5.229,3.656-7.812q3.938-8.4,7.885-16.8a1.305,1.305,0,0,0,.018-1.21q-8.511-19.452-17-38.916-3.823-8.756-7.645-17.513c-.057-.127-.1-.26-.191-.5h.717q6.917,0,13.834,0a4.669,4.669,0,0,1,4.943,3.389c3.832,9.662,7.707,19.308,11.5,28.986.941,2.4,1.641,4.9,2.453,7.361.029-.066.092-.177.135-.294q4.216-11.547,8.43-23.094c1.605-4.378,3.236-8.746,4.855-13.119a4.548,4.548,0,0,1,4.455-3.2c4.406-.076,8.813-.022,13.219-.02a2.264,2.264,0,0,1,.316.055c-.074.212-.125.4-.2.58q-8.039,18.918-16.08,37.834l-13.811,32.5c-1.174,2.761-2.367,5.512-3.523,8.28a5.173,5.173,0,0,1-5.166,3.547c-4.18-.022-8.359-.007-12.539-.009A1.965,1.965,0,0,1,3983.931-1064.556Z" transform="translate(-1427.499 -208.708)" fill="#f9f9f9"/>
    <g id="Group_27" data-name="Group 27" transform="translate(2342.213 -1391.767)">
      <path id="Path_217" data-name="Path 217" d="M101.109,47a38.821,38.821,0,0,0-.656-4.93,43.242,43.242,0,0,0-2.918-10.4,47.765,47.765,0,0,0-3.342-6.754,56.408,56.408,0,0,0-4.822-6.822,44.894,44.894,0,0,0-5.784-5.864,49.816,49.816,0,0,0-6.136-4.5,58.153,58.153,0,0,0-7.478-3.881,47.773,47.773,0,0,0-8.075-2.6A55.2,55.2,0,0,0,55.006.17,69.51,69.51,0,0,0,47.855.02,27.412,27.412,0,0,0,42.8.6a48.973,48.973,0,0,0-5.975,1.248,71.572,71.572,0,0,0-7.357,2.746,51.245,51.245,0,0,0-6.542,3.6,48.475,48.475,0,0,0-7.086,5.627,49.373,49.373,0,0,0-6.39,7.354A51.1,51.1,0,0,0,3.081,33.21a52.022,52.022,0,0,0-1.929,6.572A55.585,55.585,0,0,0,.077,47.564C-.076,49.579.046,51.586.046,53.6a35.174,35.174,0,0,0,.695,5.677A42.045,42.045,0,0,0,2.414,66.3c.6,1.737,1.279,3.454,2.036,5.14A49.881,49.881,0,0,0,16.568,87.96a51.453,51.453,0,0,0,9.515,6.781,50.571,50.571,0,0,0,6.561,3.05c.426.161.774.355.867.884.879,4.983,1.794,9.96,2.66,14.945a12.693,12.693,0,0,0,1.791,5.126,10.282,10.282,0,0,0,4.334,3.637,9.7,9.7,0,0,0,4.958.856c1.717-.161,3.4-.551,5.092-.854,7.337-1.316,14.675-2.625,22-3.982,2.1-.388,4.247-.534,6.23-1.461a10.026,10.026,0,0,0,4.116-3.505,10.339,10.339,0,0,0,1.544-8c-.981-5.242-1.9-10.5-2.857-15.742a.9.9,0,0,1,.295-.953c.476-.412.945-.833,1.4-1.268A52.441,52.441,0,0,0,94.461,75.62a50.639,50.639,0,0,0,5.676-14.807,47.542,47.542,0,0,0,1.049-8.664A38.639,38.639,0,0,0,101.109,47Zm-65.9-17.969c-5.678,4.958-7.741,8.662-7.762,8.7l-.35.639-.247-.686A22.983,22.983,0,0,0,18.7,26.95c-.175-.131-.291-.217-.363-.28-.3-.263-1.284-.116-1.855.066l-.2-.626c.3-.094,1.8-.532,2.487.066.053.046.172.134.323.247a24.79,24.79,0,0,1,3.823,3.442,22.972,22.972,0,0,1,4.321,6.958,41.249,41.249,0,0,1,7.513-8.258,75.789,75.789,0,0,1,11.733-8.317A112.161,112.161,0,0,1,65.12,11.711l.221.618C49.937,17.836,40.454,24.45,35.211,29.028Z" transform="translate(0 0)" fill="#ffad00"/>
      <path id="Path_218" data-name="Path 218" d="M4.283,11.4c4.037-.661,8.064-1.38,12.09-2.1,5.7-1.023,11.395-2.07,17.092-3.105,3.943-.716,7.89-1.409,11.826-2.158a7.533,7.533,0,0,0,3.673-1.7c.809-.721.611-1.558-.405-1.924a5.748,5.748,0,0,0-2.307-.4,11.056,11.056,0,0,0-1.606.079q-12.514,2.254-25.028,4.5C14.394,5.534,9.17,6.475,3.956,7.465A6.918,6.918,0,0,0,.294,9.3a.87.87,0,0,0-.265.9,1.2,1.2,0,0,0,.965.889A7.132,7.132,0,0,0,4.283,11.4Z" transform="translate(42.257 134.792)" fill="#ffad00"/>
      <path id="Path_219" data-name="Path 219" d="M46.846.506A6.867,6.867,0,0,0,42.7.157c-3.875.619-7.735,1.333-11.6,2.027Q22.24,3.776,13.382,5.394c-3.262.6-6.546,1.081-9.775,1.849A6.12,6.12,0,0,0,.366,8.949a.956.956,0,0,0,.322,1.672A9,9,0,0,0,3.7,11.18c.293-.032.588-.047.875-.1Q15.484,9.121,26.39,7.153C32.05,6.135,37.714,5.143,43.368,4.09a6.8,6.8,0,0,0,3.787-1.852C47.833,1.536,47.724.926,46.846.506Z" transform="translate(44.127 139.152)" fill="#ffad00"/>
      <path id="Path_220" data-name="Path 220" d="M.332,8.96a.919.919,0,0,0,.249,1.565,4.844,4.844,0,0,0,.87.355,7.7,7.7,0,0,0,3.741.061q7.5-1.306,15-2.669Q31.5,6.233,42.8,4.167A7.748,7.748,0,0,0,47.1,2.258c.765-.766.6-1.475-.437-1.85A5.282,5.282,0,0,0,44.4.018,11.515,11.515,0,0,0,42.629.1Q35.567,1.377,28.5,2.636c-5.7,1.025-11.4,2.044-17.1,3.093-2.62.483-5.267.837-7.852,1.488A6.25,6.25,0,0,0,.332,8.96Z" transform="translate(42.224 130.751)" fill="#ffad00"/>
      <path id="Path_221" data-name="Path 221" d="M.872,10.117a9.555,9.555,0,0,0,2.594.448c.5-.06,1-.095,1.5-.183q9.605-1.713,19.208-3.44,3.593-.645,7.185-1.3c2.889-.529,5.785-1.027,8.662-1.617a5.915,5.915,0,0,0,3.3-1.7A.994.994,0,0,0,43.047.587a5.723,5.723,0,0,0-3.613-.5c-3.005.467-6,1.034-8.989,1.574q-9.6,1.734-19.2,3.482c-2.58.469-5.165.914-7.737,1.428A6.336,6.336,0,0,0,.514,8.1,1.108,1.108,0,0,0,.872,10.117Z" transform="translate(43.372 126.769)" fill="#ffad00"/>
      <path id="Path_222" data-name="Path 222" d="M42.88.434A4.27,4.27,0,0,0,40.621.025,19.066,19.066,0,0,0,36.19.574q-11,1.96-21.987,3.979C10.756,5.18,7.3,5.787,3.867,6.461A6.344,6.344,0,0,0,.5,8.056c-.781.772-.64,1.6.38,2.014a6.438,6.438,0,0,0,3.591.348c6.818-1.2,13.629-2.446,20.443-3.672,4.832-.87,9.667-1.722,14.5-2.607a7.165,7.165,0,0,0,3.825-1.777C43.988,1.634,43.842.866,42.88.434Z" transform="translate(46.847 143.741)" fill="#ffad00"/>
      <path id="Path_223" data-name="Path 223" d="M.422,7.308a1.159,1.159,0,0,0,.3,1.968A4.321,4.321,0,0,0,2.97,9.75a7.666,7.666,0,0,0,2.008-.171q7.531-1.333,15.055-2.7,7.4-1.337,14.8-2.683A7.777,7.777,0,0,0,38.4,2.714,1.26,1.26,0,0,0,38.014.366,7.047,7.047,0,0,0,34.363.137q-5.451.982-10.9,1.974Q13.673,3.873,3.883,5.628A6.643,6.643,0,0,0,.422,7.308Z" transform="translate(44.948 122.916)" fill="#ffad00"/>
      <path id="Path_224" data-name="Path 224" d="M38.247.462A6.211,6.211,0,0,0,34.484.147q-8.552,1.518-17.1,3.066Q10.942,4.371,4.5,5.538A7.374,7.374,0,0,0,.454,7.265,1.193,1.193,0,0,0,.847,9.344a9.137,9.137,0,0,0,2.6.477c.243-.03.5-.049.742-.093Q15.892,7.608,27.6,5.48c2.786-.51,5.6-.88,8.359-1.522a5.577,5.577,0,0,0,2.619-1.435A1.152,1.152,0,0,0,38.247.462Z" transform="translate(49.918 148.324)" fill="#ffad00"/>
      <path id="Path_225" data-name="Path 225" d="M2.851,8.174c.156-.023.322-.044.487-.074Q8.759,7.129,14.18,6.155c3.9-.706,7.805-1.409,11.7-2.14a3.441,3.441,0,0,0,2.475-1.571A1.292,1.292,0,0,0,27.944.627a3.412,3.412,0,0,0-2.57-.571Q14.008,2.113,2.637,4.135A3.8,3.8,0,0,0,.459,5.39,1.4,1.4,0,0,0,.78,7.675,5.229,5.229,0,0,0,2.851,8.174Z" transform="translate(49.637 119.455)" fill="#ffad00"/>
      <path id="Path_226" data-name="Path 226" d="M27.967.579A4.035,4.035,0,0,0,24.933.095Q14.765,1.9,4.606,3.75a9.478,9.478,0,0,0-3.318.912C.094,5.374-.364,6.478.317,7.212a2.719,2.719,0,0,0,2.436.917c7.855-1.375,15.7-2.807,23.55-4.223a3.316,3.316,0,0,0,1.917-1.232,1.38,1.38,0,0,0,.353-.924A1.325,1.325,0,0,0,27.967.579Z" transform="translate(55.729 153.437)" fill="#ffad00"/>
    </g>
  </g>
</svg>
