<svg xmlns="http://www.w3.org/2000/svg" width="25" height="25" viewBox="0 0 25 25">
  <g id="instagram" transform="translate(0.5 0.5)">
    <rect id="Boundary" width="24" height="24" fill="#fff" stroke="rgba(0,0,0,0)" stroke-width="1" opacity="0"/>
    <path id="Path_instagram" data-name="Path / instagram" d="M7.8,2h8.4A5.8,5.8,0,0,1,22,7.8v8.4A5.8,5.8,0,0,1,16.2,22H7.8A5.8,5.8,0,0,1,2,16.2V7.8A5.8,5.8,0,0,1,7.8,2M7.6,4A3.6,3.6,0,0,0,4,7.6v8.8A3.6,3.6,0,0,0,7.6,20h8.8A3.6,3.6,0,0,0,20,16.4V7.6A3.6,3.6,0,0,0,16.4,4H7.6m9.65,1.5A1.25,1.25,0,1,1,16,6.75,1.25,1.25,0,0,1,17.25,5.5M12,7a5,5,0,1,1-5,5,5,5,0,0,1,5-5m0,2a3,3,0,1,0,3,3,3,3,0,0,0-3-3Z" fill="#fff" stroke="rgba(0,0,0,0)" stroke-width="1"/>
  </g>
</svg>
