<svg xmlns="http://www.w3.org/2000/svg" xmlns:xlink="http://www.w3.org/1999/xlink" width="131.05" height="147.757" viewBox="0 0 131.05 147.757">
  <defs>
    <filter id="Path_217" x="0" y="0" width="130.351" height="138.904" filterUnits="userSpaceOnUse">
      <feOffset dx="-5" dy="5" input="SourceAlpha"/>
      <feGaussianBlur stdDeviation="2.5" result="blur"/>
      <feFlood flood-opacity="0.161"/>
      <feComposite operator="in" in2="blur"/>
      <feComposite in="SourceGraphic"/>
    </filter>
    <filter id="Union_1" x="76.514" y="94.749" width="54.535" height="53.008" filterUnits="userSpaceOnUse">
      <feOffset dx="-5" dy="5" input="SourceAlpha"/>
      <feGaussianBlur stdDeviation="2.5" result="blur-2"/>
      <feFlood flood-opacity="0.161"/>
      <feComposite operator="in" in2="blur-2"/>
      <feComposite in="SourceGraphic"/>
    </filter>
  </defs>
  <g id="mouse" transform="translate(-3564.444 -581.847)">
    <g transform="matrix(1, 0, 0, 1, 3564.44, 581.85)" filter="url(#Path_217)">
      <path id="Path_217-2" data-name="Path 217" d="M81.08,37.686a31.133,31.133,0,0,0-.526-3.953,34.674,34.674,0,0,0-2.34-8.337,38.3,38.3,0,0,0-2.68-5.416,45.232,45.232,0,0,0-3.867-5.471,36,36,0,0,0-4.638-4.7A39.948,39.948,0,0,0,62.108,6.2a46.632,46.632,0,0,0-6-3.112A38.309,38.309,0,0,0,49.636,1,44.262,44.262,0,0,0,44.11.136,55.74,55.74,0,0,0,38.375.016,21.981,21.981,0,0,0,34.32.481a39.272,39.272,0,0,0-4.792,1,57.394,57.394,0,0,0-5.9,2.2,41.093,41.093,0,0,0-5.246,2.884A38.872,38.872,0,0,0,12.7,11.08a39.592,39.592,0,0,0-5.124,5.9,40.974,40.974,0,0,0-5.105,9.654A41.716,41.716,0,0,0,.924,31.9a44.574,44.574,0,0,0-.862,6.241c-.123,1.616-.025,3.226-.025,4.837a28.206,28.206,0,0,0,.557,4.552,33.716,33.716,0,0,0,1.342,5.636c.485,1.393,1.026,2.77,1.633,4.121a40,40,0,0,0,9.717,13.247,41.26,41.26,0,0,0,7.63,5.437,40.552,40.552,0,0,0,5.262,2.446c.341.129.62.284.7.709.7,4,1.438,7.987,2.133,11.984a10.179,10.179,0,0,0,1.436,4.111,8.245,8.245,0,0,0,3.475,2.917,7.78,7.78,0,0,0,3.976.686c1.377-.129,2.725-.441,4.083-.685,5.883-1.055,11.768-2.1,17.645-3.193a19.943,19.943,0,0,0,5-1.172,8.04,8.04,0,0,0,3.3-2.811,8.291,8.291,0,0,0,1.238-6.414c-.786-4.2-1.523-8.416-2.291-12.623a.725.725,0,0,1,.236-.764c.381-.33.758-.668,1.122-1.017a42.053,42.053,0,0,0,7.526-9.507A40.607,40.607,0,0,0,80.3,48.766a38.122,38.122,0,0,0,.841-6.948A30.983,30.983,0,0,0,81.08,37.686ZM28.236,23.277a29.871,29.871,0,0,0-6.224,6.975l-.281.513-.2-.55a18.43,18.43,0,0,0-6.541-8.6c-.141-.1-.233-.174-.291-.224-.24-.211-1.03-.093-1.488.053l-.109-.946c.237-.075,1.446-.427,1.994.053.042.037.138.108.259.2a19.879,19.879,0,0,1,3.065,2.76,18.421,18.421,0,0,1,3.465,5.579,33.078,33.078,0,0,1,6.024-6.622,60.776,60.776,0,0,1,9.409-6.669A89.942,89.942,0,0,1,52.271,8.947l.126.94C40.044,14.3,32.44,19.606,28.236,23.277Z" transform="translate(12.5 36.81) rotate(-25)" fill="#ffc64e"/>
    </g>
    <g transform="matrix(1, 0, 0, 1, 3564.44, 581.85)" filter="url(#Union_1)">
      <path id="Union_1-2" data-name="Union 1" d="M18.154,36.819c-.743-.3-.785-1.261-.158-2.182a7.6,7.6,0,0,1,2.1-1.788Q26.86,28.07,33.632,23.3A3.235,3.235,0,0,1,36,22.627a1.063,1.063,0,0,1,.838.646,1.107,1.107,0,0,1,.056.791,2.659,2.659,0,0,1-.976,1.545C30.7,29.3,25.479,33,20.235,36.66a1.982,1.982,0,0,1-1.145.348A2.491,2.491,0,0,1,18.154,36.819Zm-5.838-1.755a5.914,5.914,0,0,1,2.355-2.626q4.284-3.034,8.576-6.057,5.692-4.015,11.388-8.023a4.982,4.982,0,0,1,2.842-1.046.924.924,0,0,1,.937,1.387A4.472,4.472,0,0,1,37,20.629c-1.789,1.4-3.707,2.624-5.56,3.939q-7.78,5.522-15.577,11.022c-.164.116-.341.215-.508.319a7.324,7.324,0,0,1-2.048.533h-.012A.955.955,0,0,1,12.316,35.064Zm-3.485-1.73a5.088,5.088,0,0,1,1.907-2.3c2.27-1.655,4.573-3.265,6.866-4.889Q24.915,20.966,32.235,15.8a15.289,15.289,0,0,1,3.034-1.9,3.425,3.425,0,0,1,1.78-.469c.846-.012,1.212.5.911,1.281A5.745,5.745,0,0,1,35.782,17.3c-3.209,2.28-6.434,4.538-9.651,6.808-4.537,3.2-9.064,6.414-13.613,9.6a5.163,5.163,0,0,1-2.728.964l-.092,0C8.881,34.671,8.536,34.131,8.831,33.334Zm-2.525-.613c-.7-.024-1.011-.437-.8-1.106a4.909,4.909,0,0,1,1.777-2.339c2.086-1.652,4.309-3.117,6.477-4.656q5.888-4.18,11.791-8.339c2.572-1.813,5.135-3.64,7.742-5.4a5.507,5.507,0,0,1,3.131-1.151c.78.008,1.066.414.812,1.154a5.452,5.452,0,0,1-2.125,2.63c-3.752,2.681-7.533,5.322-11.3,7.98Q16.548,26.613,9.288,31.737c-.192.135-.4.246-.6.368a7.815,7.815,0,0,1-2.29.616ZM2.846,30.1a.7.7,0,0,1-.111-.741,5.548,5.548,0,0,1,2.04-2.574c3.454-2.487,6.932-4.941,10.408-7.4q8.328-5.882,16.664-11.752a8.843,8.843,0,0,1,1.14-.6A4.609,4.609,0,0,1,34.8,6.543c.863-.078,1.29.463.947,1.261a6.04,6.04,0,0,1-2.094,2.478c-2.607,1.879-5.241,3.72-7.863,5.577q-5.684,4.025-11.37,8.049c-2.681,1.89-5.365,3.777-8.074,5.625a5.721,5.721,0,0,1-2.5.886,2.151,2.151,0,0,1-.279.021A.832.832,0,0,1,2.846,30.1Zm-.88-2.873a.737.737,0,0,1-.712-1.053,5.012,5.012,0,0,1,1.751-2.359c1.658-1.349,3.462-2.5,5.2-3.743q5.676-4.038,11.376-8.041,4.7-3.317,9.409-6.628a9.228,9.228,0,0,1,1.257-.662,4.236,4.236,0,0,1,1.78-.485c.879-.078,1.241.38.945,1.2A6.213,6.213,0,0,1,30.493,8.3q-7.506,5.342-15.04,10.644-4.99,3.523-10,7.023a6.169,6.169,0,0,1-2.739,1.224,4.677,4.677,0,0,1-.575.043C2.084,27.232,2.025,27.23,1.966,27.226ZM.579,22.2a5.079,5.079,0,0,1,1.66-2.122c1.695-1.245,3.422-2.445,5.139-3.66q6.386-4.52,12.774-9.037c1.992-1.407,3.973-2.833,6-4.191a4.59,4.59,0,0,1,2.794-.863c.721.036,1,.488.791,1.168a4.743,4.743,0,0,1-1.825,2.358c-1.891,1.4-3.827,2.747-5.747,4.111q-2.387,1.695-4.782,3.379-6.4,4.507-12.794,9.009c-.329.232-.684.428-1.028.641a7.666,7.666,0,0,1-2.037.553H1.464A.879.879,0,0,1,.579,22.2Zm.39-2.549a.929.929,0,0,1-.885-1.329A5.326,5.326,0,0,1,2.03,15.931q6.517-4.6,13.037-9.192Q18.7,4.179,22.321,1.61A5.65,5.65,0,0,1,25.051.54c.92-.093,1.583.56,1.075,1.576A6.236,6.236,0,0,1,24.039,4.4q-4.922,3.488-9.849,6.967Q9.18,14.9,4.164,18.431a6.147,6.147,0,0,1-1.4.8,3.46,3.46,0,0,1-1.661.42ZM2.7,14.366A1.118,1.118,0,0,1,1.7,12.813a3.046,3.046,0,0,1,1.157-1.65Q10.441,5.852,18,.494A2.736,2.736,0,0,1,20.057.037a1.036,1.036,0,0,1,.916,1.18A2.76,2.76,0,0,1,19.707,3.2Q15.83,5.976,11.927,8.72q-3.607,2.549-7.22,5.088c-.11.077-.224.149-.329.218a5.662,5.662,0,0,1-1.452.354A1.67,1.67,0,0,1,2.7,14.366Z" transform="translate(89.52 97.75)" fill="#ffc64e" stroke="rgba(0,0,0,0)" stroke-miterlimit="10" stroke-width="1"/>
    </g>
  </g>
</svg>
