<svg xmlns="http://www.w3.org/2000/svg" width="1465.5" height="1826.102" viewBox="0 0 1465.5 1826.102">
  <g id="numbers" transform="translate(-175 -6112.126)">
    <g id="Group_1730" data-name="Group 1730" transform="translate(175 6112.126)">
      <path id="Path_2150" data-name="Path 2150" d="M1052.83,743.6a96.585,96.585,0,0,0,91.852-113.694l137.255-19.135a238.442,238.442,0,0,1,2.778,36.3c0,128.473-103.055,232.871-231.01,235.049L1052.83,743.6Z" transform="translate(-748.123 -320.31)" fill="#f7f2e0"/>
      <path id="Path_2151" data-name="Path 2151" d="M1101.715,753.653a96.572,96.572,0,0,0-38.357-61.39L1145.3,580.6a234.92,234.92,0,0,1,93.734,154.447c-37.6,5.124-91.276,12.389-137.322,18.606Z" transform="translate(-705.086 -443.645)" fill="#f6c864"/>
      <path id="Path_2152" data-name="Path 2152" d="M1187.261,571.7a233.987,233.987,0,0,1,138.7,45.292l-81.945,111.663a96.513,96.513,0,0,0-123.778,8.6l-101.08-94.8a234.363,234.363,0,0,1,168.1-70.757Z" transform="translate(-885.749 -480.035)" fill="#616262"/>
      <path id="Path_2153" data-name="Path 2153" d="M1174.824,681.152a96.563,96.563,0,0,0-13.234,125.136l-112.37,81a235.115,235.115,0,0,1,25.566-302.041l100.037,95.906Z" transform="translate(-939.586 -424.653)" fill="#f6c864"/>
      <path id="Path_2154" data-name="Path 2154" d="M1014.489,709.69l112.37-81a96.5,96.5,0,0,0,79.508,41.731c1.073,0,2.132-.046,3.215-.081l.891,138.527c-1.364.02-2.738.046-4.106.046a234.78,234.78,0,0,1-191.879-99.223Z" transform="translate(-904.855 -247.056)" fill="#616262"/>
      <path id="Path_2155" data-name="Path 2155" d="M1161.978,761.678h-83.014V637.438h5.088V756.591h77.926v5.087Z" transform="translate(-641.291 -211.299)" fill="#f7f2e0"/>
      <path id="Path_2156" data-name="Path 2156" d="M1090.854,702.709h-5.088V577.246h76.2v5.088h-71.113V702.709Z" transform="translate(-613.485 -457.356)" fill="#f6c864"/>
      <path id="Path_2157" data-name="Path 2157" d="M1069.812,717.123h-5.088V596.745h-71.1v-5.088h76.191V717.123Z" transform="translate(-990.161 -398.443)" fill="#f6c864"/>
      <path id="Path_2158" data-name="Path 2158" d="M1053.9,686.4h-5.088V560.938H1125v5.088h-71.1V686.4Z" transform="translate(-764.544 -524.021)" fill="#616262"/>
      <path id="Path_2159" data-name="Path 2159" d="M1115.134,770.994h-98.491v-5.088h93.4V645.532h5.087V770.994Z" transform="translate(-896.046 -178.212)" fill="#616262"/>
      <path id="Path_2160" data-name="Path 2160" d="M1065.529,560.853c0,3.46-2.238,5.536-5.286,6.268,3.414.326,6.141,2.483,6.141,6.589,0,4.762-3.623,8.339-9.275,8.339a10.247,10.247,0,0,1-8.176-3.658l2.233-2.076a7.661,7.661,0,0,0,5.821,2.681c3.414,0,5.49-2.111,5.49-5.327,0-3.74-2.111-4.879-5.408-4.879h-2.035l.448-2.89h1.384a4.574,4.574,0,0,0,4.92-4.8c0-2.559-1.786-4.146-4.513-4.146a7.659,7.659,0,0,0-5.612,2.442l-1.954-2.239a10.988,10.988,0,0,1,7.77-3.216c5.2,0,8.053,3.256,8.053,6.915Z" transform="translate(-764.053 -552.636)" fill="#616262"/>
      <path id="Path_2161" data-name="Path 2161" d="M1057.152,567.976c0,8.013,1.786,11.1,5.205,11.1,3.378,0,5.2-3.089,5.2-11.1,0-7.978-1.827-11.066-5.2-11.066-3.419,0-5.205,3.089-5.205,11.066Zm14.318,0c0,9.031-3.012,14.073-9.112,14.073s-9.113-5.042-9.113-14.073,3.007-14.038,9.113-14.038,9.112,5.047,9.112,14.038Z" transform="translate(-746.426 -552.636)" fill="#616262"/>
      <path id="Path_2162" data-name="Path 2162" d="M1077.686,576.221c0,2.117.687,4.35,3.291,4.35,2.646,0,3.3-2.157,3.3-4.35,0-2.117-.651-4.315-3.3-4.315-2.6,0-3.291,2.117-3.291,4.315Zm9.885,0c0,4.228-2.768,6.874-6.594,6.874s-6.629-2.646-6.629-6.874,2.808-6.874,6.629-6.874,6.594,2.641,6.594,6.874Zm-4.233-20.83L1064.5,583.868l-2.6-1.71,18.836-28.477,2.6,1.709Zm-22.417,6.471c0,2.112.7,4.351,3.3,4.351,2.646,0,3.3-2.157,3.3-4.351,0-2.116-.651-4.355-3.3-4.355-2.6,0-3.3,2.152-3.3,4.355Zm9.927,0c0,4.228-2.8,6.874-6.63,6.874-3.78,0-6.589-2.646-6.589-6.874s2.808-6.879,6.589-6.879c3.826,0,6.63,2.646,6.63,6.879Z" transform="translate(-728.505 -553.682)" fill="#616262"/>
      <path id="Path_2163" data-name="Path 2163" d="M1098.119,598.012h-3.744V574.784l-6.344,3.866L1086.4,576l8.42-5.207h3.3v27.215Z" transform="translate(-610.885 -483.721)" fill="#f6c864"/>
      <path id="Path_2164" data-name="Path 2164" d="M1093.928,584.753c0,8.013,1.791,11.107,5.21,11.107,3.373,0,5.2-3.094,5.2-11.107,0-7.972-1.832-11.066-5.2-11.066-3.419,0-5.21,3.094-5.21,11.066Zm14.323,0c0,9.031-3.012,14.073-9.112,14.073s-9.113-5.042-9.113-14.073,3.007-14.037,9.113-14.037,9.112,5.047,9.112,14.037Z" transform="translate(-596.071 -484.049)" fill="#f6c864"/>
      <path id="Path_2165" data-name="Path 2165" d="M1114.461,593c0,2.117.693,4.355,3.3,4.355,2.641,0,3.292-2.157,3.292-4.355,0-2.112-.651-4.314-3.292-4.314-2.6,0-3.3,2.117-3.3,4.314Zm9.885,0c0,4.233-2.767,6.874-6.588,6.874s-6.629-2.641-6.629-6.874,2.8-6.874,6.629-6.874,6.588,2.646,6.588,6.874Zm-4.227-20.83-18.835,28.482-2.6-1.709,18.836-28.477,2.6,1.7Zm-22.417,6.472c0,2.111.692,4.35,3.3,4.35,2.646,0,3.293-2.157,3.293-4.35,0-2.117-.647-4.355-3.293-4.355-2.6,0-3.3,2.157-3.3,4.355Zm9.926,0c0,4.228-2.808,6.874-6.63,6.874-3.785,0-6.588-2.646-6.588-6.874s2.8-6.879,6.588-6.879c3.822,0,6.63,2.646,6.63,6.879Z" transform="translate(-578.15 -485.092)" fill="#f6c864"/>
      <path id="Path_2166" data-name="Path 2166" d="M1100.236,674.693h-3.541V681.4h-3.622v-6.711h-11.631v-2.687l8.176-18.224,3.13,1.3-7.362,16.642h7.734l.326-7.326h3.251v7.326h3.541v2.966Z" transform="translate(-631.161 -144.487)" fill="#f7f2e0"/>
      <path id="Path_2167" data-name="Path 2167" d="M1089.72,667.819c0,8.013,1.791,11.107,5.21,11.107,3.373,0,5.2-3.093,5.2-11.107,0-7.973-1.831-11.066-5.2-11.066-3.419,0-5.21,3.093-5.21,11.066Zm14.323,0c0,9.031-3.012,14.073-9.113,14.073s-9.112-5.042-9.112-14.073,3.007-14.038,9.112-14.038,9.113,5.047,9.113,14.038Z" transform="translate(-613.273 -144.487)" fill="#f7f2e0"/>
      <path id="Path_2168" data-name="Path 2168" d="M1110.253,676.065c0,2.117.692,4.355,3.3,4.355,2.641,0,3.291-2.157,3.291-4.355,0-2.112-.651-4.315-3.291-4.315-2.6,0-3.3,2.117-3.3,4.315Zm9.886,0c0,4.233-2.768,6.874-6.589,6.874s-6.63-2.641-6.63-6.874,2.8-6.874,6.63-6.874,6.589,2.646,6.589,6.874Zm-4.229-20.83-18.835,28.482-2.6-1.709,18.836-28.482,2.6,1.71Zm-22.417,6.472c0,2.112.692,4.35,3.3,4.35,2.646,0,3.292-2.157,3.292-4.35,0-2.117-.646-4.355-3.292-4.355-2.6,0-3.3,2.157-3.3,4.355Zm9.927,0c0,4.228-2.808,6.873-6.63,6.873-3.785,0-6.588-2.645-6.588-6.873s2.8-6.879,6.588-6.879c3.822,0,6.63,2.646,6.63,6.879Z" transform="translate(-595.352 -145.533)" fill="#f7f2e0"/>
      <path id="Path_2169" data-name="Path 2169" d="M1029.636,689.239H1025.9V666.013l-6.345,3.862-1.628-2.646,8.421-5.2h3.291v27.215Z" transform="translate(-890.814 -110.795)" fill="#616262"/>
      <path id="Path_2170" data-name="Path 2170" d="M1037.343,664.954h-10.618v8.013a9.411,9.411,0,0,1,4.355-1.058c4.594,0,7.729,3.216,7.729,8.624s-3.786,9.194-9.438,9.194a10.663,10.663,0,0,1-8.054-3.454l2.28-2.2a7.32,7.32,0,0,0,5.734,2.6c3.414,0,5.572-2.234,5.572-6.222,0-4.192-2.157-5.653-4.961-5.653a8.472,8.472,0,0,0-3.867.936h-2.925V662.024h14.724l-.529,2.931Z" transform="translate(-876.948 -110.795)" fill="#616262"/>
      <path id="Path_2171" data-name="Path 2171" d="M1045.527,684.227c0,2.117.692,4.35,3.3,4.35,2.641,0,3.292-2.157,3.292-4.35,0-2.117-.651-4.314-3.292-4.314-2.6,0-3.3,2.117-3.3,4.314Zm9.886,0c0,4.228-2.768,6.874-6.589,6.874s-6.63-2.646-6.63-6.874,2.8-6.873,6.63-6.873,6.589,2.64,6.589,6.873Zm-4.228-20.83-18.836,28.477-2.605-1.71,18.835-28.477,2.605,1.709Zm-22.417,6.467c0,2.117.692,4.355,3.3,4.355,2.641,0,3.291-2.157,3.291-4.355,0-2.117-.651-4.35-3.291-4.35-2.6,0-3.3,2.152-3.3,4.35Zm9.926,0c0,4.233-2.809,6.879-6.629,6.879-3.786,0-6.589-2.645-6.589-6.879s2.8-6.874,6.589-6.874c3.821,0,6.629,2.646,6.629,6.874Z" transform="translate(-859.943 -112.168)" fill="#616262"/>
      <path id="Path_2172" data-name="Path 2172" d="M1011.735,605.4H1008.2v6.712h-3.623V605.4H992.94v-2.685l8.177-18.225,3.134,1.3-7.362,16.64h7.729l.326-7.323h3.256v7.323h3.536V605.4Z" transform="translate(-992.94 -427.758)" fill="#f6c864"/>
      <path id="Path_2173" data-name="Path 2173" d="M1001.224,598.523c0,8.013,1.785,11.107,5.2,11.107,3.379,0,5.21-3.093,5.21-11.107,0-7.973-1.832-11.066-5.21-11.066-3.419,0-5.2,3.093-5.2,11.066Zm14.317,0c0,9.031-3.007,14.073-9.113,14.073s-9.112-5.042-9.112-14.073,3.012-14.037,9.112-14.037,9.113,5.047,9.113,14.037Z" transform="translate(-975.052 -427.76)" fill="#f6c864"/>
      <path id="Path_2174" data-name="Path 2174" d="M1021.757,606.769c0,2.117.692,4.355,3.292,4.355,2.646,0,3.3-2.157,3.3-4.355,0-2.111-.651-4.314-3.3-4.314-2.6,0-3.292,2.117-3.292,4.314Zm9.886,0c0,4.233-2.768,6.874-6.594,6.874s-6.629-2.641-6.629-6.874,2.808-6.874,6.629-6.874,6.594,2.645,6.594,6.874Zm-4.233-20.83-18.835,28.482-2.605-1.709,18.841-28.482,2.6,1.709ZM1005,592.411c0,2.111.692,4.35,3.292,4.35,2.646,0,3.3-2.152,3.3-4.35,0-2.117-.651-4.355-3.3-4.355-2.6,0-3.292,2.157-3.292,4.355Zm9.926,0c0,4.228-2.808,6.874-6.635,6.874-3.78,0-6.589-2.646-6.589-6.874s2.808-6.879,6.589-6.879c3.826,0,6.635,2.645,6.635,6.879Z" transform="translate(-957.131 -428.806)" fill="#f6c864"/>
    </g>
    <g id="Group_1731" data-name="Group 1731" transform="translate(1039.841 6461.986)">
      <path id="Path_2175" data-name="Path 2175" d="M1812.418,1076.585H1301.85a2.327,2.327,0,1,1,0-4.654h510.568a2.327,2.327,0,1,1,0,4.654Z" transform="translate(-1214.879 -690.277)" fill="silver"/>
      <path id="Path_2176" data-name="Path 2176" d="M1812.418,1060.286H1301.85a2.327,2.327,0,0,1,0-4.655h510.568a2.327,2.327,0,0,1,0,4.655Z" transform="translate(-1214.879 -749.844)" fill="silver"/>
      <path id="Path_2177" data-name="Path 2177" d="M1812.418,1043.987H1301.85a2.327,2.327,0,0,1,0-4.655h510.568a2.327,2.327,0,0,1,0,4.655Z" transform="translate(-1214.879 -809.411)" fill="silver"/>
      <path id="Path_2178" data-name="Path 2178" d="M1812.418,1027.688H1301.85a2.327,2.327,0,1,1,0-4.654h510.568a2.327,2.327,0,1,1,0,4.654Z" transform="translate(-1214.879 -868.978)" fill="silver"/>
      <path id="Path_2179" data-name="Path 2179" d="M1812.418,1011.389H1301.85a2.327,2.327,0,0,1,0-4.655h510.568a2.327,2.327,0,0,1,0,4.655Z" transform="translate(-1214.879 -928.545)" fill="silver"/>
      <path id="Path_2180" data-name="Path 2180" d="M1812.418,995.091H1301.85a2.327,2.327,0,0,1,0-4.655h510.568a2.327,2.327,0,0,1,0,4.655Z" transform="translate(-1214.879 -988.109)" fill="silver"/>
      <path id="Path_2181" data-name="Path 2181" d="M1830.117,1454.437h-531.2a4.653,4.653,0,0,1-4.654-4.654V994.591a4.655,4.655,0,1,1,9.309,0v450.537h526.548a4.655,4.655,0,1,1,0,9.309Z" transform="translate(-1234.113 -989.936)" fill="silver"/>
      <path id="Path_2182" data-name="Path 2182" d="M1292.319,1100.86h-3.156v-19.629l-5.362,3.263-1.383-2.234,7.118-4.4h2.783v23Z" transform="translate(-1277.391 -668.616)" fill="silver"/>
      <path id="Path_2183" data-name="Path 2183" d="M1289.066,1089.648c0,6.772,1.508,9.384,4.4,9.384,2.844,0,4.4-2.611,4.4-9.384,0-6.736-1.555-9.356-4.4-9.356-2.891,0-4.4,2.62-4.4,9.356Zm12.1,0c0,7.628-2.546,11.892-7.7,11.892s-7.7-4.264-7.7-11.892,2.532-11.865,7.7-11.865,7.7,4.264,7.7,11.865Z" transform="translate(-1265.155 -668.886)" fill="silver"/>
      <path id="Path_2184" data-name="Path 2184" d="M1293.187,1089.648c0,6.772,1.509,9.384,4.4,9.384,2.854,0,4.4-2.611,4.4-9.384,0-6.736-1.545-9.356-4.4-9.356-2.89,0-4.4,2.62-4.4,9.356Zm12.1,0c0,7.628-2.546,11.892-7.7,11.892s-7.7-4.264-7.7-11.892,2.546-11.865,7.7-11.865,7.7,4.264,7.7,11.865Z" transform="translate(-1250.095 -668.886)" fill="silver"/>
      <path id="Path_2185" data-name="Path 2185" d="M1295.309,1067.754c0,4.3-2.747,7.354-9.789,14.4h10.343l-.382,2.658h-13.573V1082.3c8.108-8.467,10.1-10.664,10.1-14.41a3.541,3.541,0,0,0-3.779-3.807c-1.923,0-3.193.754-4.673,2.509l-2.127-1.657a8.507,8.507,0,0,1,6.973-3.472c4.227,0,6.908,2.718,6.908,6.293Z" transform="translate(-1281.01 -728.538)" fill="silver"/>
      <path id="Path_2186" data-name="Path 2186" d="M1288.605,1073.326c0,6.772,1.508,9.379,4.4,9.379,2.854,0,4.4-2.607,4.4-9.379,0-6.735-1.545-9.356-4.4-9.356-2.891,0-4.4,2.62-4.4,9.356Zm12.1,0c0,7.629-2.546,11.892-7.7,11.892s-7.7-4.263-7.7-11.892,2.541-11.864,7.7-11.864,7.7,4.263,7.7,11.864Z" transform="translate(-1266.84 -728.538)" fill="silver"/>
      <path id="Path_2187" data-name="Path 2187" d="M1292.726,1073.326c0,6.772,1.518,9.379,4.4,9.379,2.854,0,4.4-2.607,4.4-9.379,0-6.735-1.545-9.356-4.4-9.356-2.881,0-4.4,2.62-4.4,9.356Zm12.1,0c0,7.629-2.537,11.892-7.7,11.892s-7.7-4.263-7.7-11.892,2.546-11.864,7.7-11.864,7.7,4.263,7.7,11.864Z" transform="translate(-1251.779 -728.538)" fill="silver"/>
      <path id="Path_2188" data-name="Path 2188" d="M1295.362,1050.98c0,2.923-1.89,4.678-4.468,5.3,2.891.275,5.19,2.09,5.19,5.567,0,4.026-3.062,7.052-7.838,7.052a8.654,8.654,0,0,1-6.908-3.1l1.89-1.755a6.454,6.454,0,0,0,4.92,2.271,4.259,4.259,0,0,0,4.636-4.5c0-3.165-1.792-4.128-4.576-4.128h-1.718l.382-2.444h1.164a3.867,3.867,0,0,0,4.166-4.059c0-2.159-1.518-3.5-3.821-3.5a6.5,6.5,0,0,0-4.743,2.062l-1.648-1.89a9.291,9.291,0,0,1,6.568-2.709c4.4,0,6.8,2.742,6.8,5.837Z" transform="translate(-1281.338 -788.174)" fill="silver"/>
      <path id="Path_2189" data-name="Path 2189" d="M1288.618,1057c0,6.773,1.508,9.379,4.4,9.379,2.854,0,4.4-2.606,4.4-9.379,0-6.74-1.545-9.346-4.4-9.346-2.9,0-4.4,2.606-4.4,9.346Zm12.1,0c0,7.634-2.546,11.9-7.7,11.9s-7.7-4.263-7.7-11.9,2.546-11.855,7.7-11.855,7.7,4.264,7.7,11.855Z" transform="translate(-1266.793 -788.174)" fill="silver"/>
      <path id="Path_2190" data-name="Path 2190" d="M1292.739,1057c0,6.773,1.522,9.379,4.4,9.379,2.854,0,4.4-2.606,4.4-9.379,0-6.74-1.545-9.346-4.4-9.346-2.881,0-4.4,2.606-4.4,9.346Zm12.1,0c0,7.634-2.537,11.9-7.7,11.9s-7.7-4.263-7.7-11.9,2.546-11.855,7.7-11.855,7.7,4.264,7.7,11.855Z" transform="translate(-1251.732 -788.174)" fill="silver"/>
      <path id="Path_2191" data-name="Path 2191" d="M1297.282,1046.486h-2.988v5.674h-3.054v-5.674h-9.84v-2.262l6.912-15.4,2.653,1.1-6.228,14.053h6.536l.274-6.182h2.747v6.182h2.988v2.509Z" transform="translate(-1281.111 -847.822)" fill="silver"/>
      <path id="Path_2192" data-name="Path 2192" d="M1288.741,1040.677c0,6.772,1.512,9.384,4.4,9.384,2.853,0,4.4-2.611,4.4-9.384,0-6.735-1.546-9.347-4.4-9.347-2.891,0-4.4,2.612-4.4,9.347Zm12.1,0c0,7.638-2.546,11.9-7.7,11.9s-7.7-4.264-7.7-11.9,2.546-11.855,7.7-11.855,7.7,4.264,7.7,11.855Z" transform="translate(-1266.343 -847.822)" fill="silver"/>
      <path id="Path_2193" data-name="Path 2193" d="M1292.862,1040.677c0,6.772,1.522,9.384,4.4,9.384,2.853,0,4.4-2.611,4.4-9.384,0-6.735-1.545-9.347-4.4-9.347-2.881,0-4.4,2.612-4.4,9.347Zm12.1,0c0,7.638-2.536,11.9-7.7,11.9s-7.7-4.264-7.7-11.9,2.546-11.855,7.7-11.855,7.7,4.264,7.7,11.855Z" transform="translate(-1251.282 -847.822)" fill="silver"/>
      <path id="Path_2194" data-name="Path 2194" d="M1294.957,1015.048h-8.974v6.777a7.93,7.93,0,0,1,3.677-.894c3.887,0,6.536,2.719,6.536,7.284s-3.2,7.774-7.974,7.774a9.034,9.034,0,0,1-6.81-2.919l1.927-1.866a6.172,6.172,0,0,0,4.845,2.2c2.881,0,4.711-1.89,4.711-5.255,0-3.547-1.829-4.78-4.194-4.78a7.223,7.223,0,0,0-3.272.791h-2.471v-11.585H1295.4l-.447,2.472Z" transform="translate(-1281.068 -907.195)" fill="silver"/>
      <path id="Path_2195" data-name="Path 2195" d="M1288.626,1024.367c0,6.772,1.517,9.379,4.4,9.379,2.858,0,4.4-2.607,4.4-9.379,0-6.735-1.545-9.356-4.4-9.356-2.881,0-4.4,2.62-4.4,9.356Zm12.1,0c0,7.629-2.537,11.893-7.7,11.893s-7.7-4.263-7.7-11.893,2.546-11.865,7.7-11.865,7.7,4.264,7.7,11.865Z" transform="translate(-1266.763 -907.465)" fill="silver"/>
      <path id="Path_2196" data-name="Path 2196" d="M1292.749,1024.367c0,6.772,1.509,9.379,4.4,9.379,2.849,0,4.4-2.607,4.4-9.379,0-6.735-1.555-9.356-4.4-9.356-2.89,0-4.4,2.62-4.4,9.356Zm12.1,0c0,7.629-2.546,11.893-7.7,11.893s-7.7-4.263-7.7-11.893,2.537-11.865,7.7-11.865,7.7,4.264,7.7,11.865Z" transform="translate(-1251.696 -907.465)" fill="silver"/>
      <path id="Path_2197" data-name="Path 2197" d="M1293.373,1011.824c0-3.645-1.555-4.92-3.719-4.92a5.917,5.917,0,0,0-4.948,3.165c.14,5.018,1.476,7.355,4.539,7.355,2.718,0,4.129-2.234,4.129-5.6Zm3.188-.1c0,5.018-3.263,8.206-7.317,8.206-5.6,0-7.736-4.6-7.736-11.2,0-7.536,3.263-12.554,8.7-12.554a8.362,8.362,0,0,1,4.743,1.406l-1.243,2.1a6.683,6.683,0,0,0-3.537-1c-3.338,0-5.325,3.473-5.5,8.737a6.471,6.471,0,0,1,5.539-3.03c3.365,0,6.354,2.411,6.354,7.331Z" transform="translate(-1280.717 -967.116)" fill="silver"/>
      <path id="Path_2198" data-name="Path 2198" d="M1288.746,1008.044c0,6.773,1.508,9.379,4.4,9.379,2.854,0,4.4-2.607,4.4-9.379,0-6.74-1.546-9.356-4.4-9.356-2.895,0-4.4,2.616-4.4,9.356Zm12.1,0c0,7.624-2.546,11.888-7.7,11.888s-7.7-4.264-7.7-11.888,2.546-11.865,7.7-11.865,7.7,4.264,7.7,11.865Z" transform="translate(-1266.329 -967.116)" fill="silver"/>
      <path id="Path_2199" data-name="Path 2199" d="M1292.866,1008.044c0,6.773,1.513,9.379,4.4,9.379,2.854,0,4.4-2.607,4.4-9.379,0-6.74-1.546-9.356-4.4-9.356-2.89,0-4.4,2.616-4.4,9.356Zm12.1,0c0,7.624-2.546,11.888-7.7,11.888s-7.7-4.264-7.7-11.888,2.546-11.865,7.7-11.865,7.7,4.264,7.7,11.865Z" transform="translate(-1251.267 -967.116)" fill="silver"/>
      <path id="Path_2200" data-name="Path 2200" d="M1321.953,1118.683h-5.334v-17.948l-4.985,3.063-2.369-3.607,7.834-4.748h4.855v23.24Z" transform="translate(-1179.279 -604.345)" fill="silver"/>
      <path id="Path_2201" data-name="Path 2201" d="M1347,1101.977c0,3.608-1.792,6.317-9.035,12.917h9.519l-.55,4.166h-15.127V1115.2c7.8-7.7,9.63-9.789,9.63-12.679a2.8,2.8,0,0,0-2.993-3.03c-1.69,0-2.854.767-4.2,2.411l-3.231-2.546a9.7,9.7,0,0,1,7.974-4.017c5.194,0,8.011,3.026,8.011,6.638Z" transform="translate(-1099.779 -604.722)" fill="silver"/>
      <path id="Path_2202" data-name="Path 2202" d="M1368.024,1101.247c0,2.821-1.694,4.711-4.539,5.539,2.881.307,5.293,2.025,5.293,5.707,0,3.882-3.128,7.149-8.876,7.149a9.873,9.873,0,0,1-7.969-3.51l2.918-2.849a6.313,6.313,0,0,0,4.744,2.229c2.136,0,3.608-1.238,3.608-3.365,0-2.444-1.336-3.338-3.78-3.338H1357.5l.582-3.742h1.336c2.062,0,3.338-1.1,3.338-3.03,0-1.681-1.2-2.681-3.091-2.681a6.306,6.306,0,0,0-4.538,2.03l-2.681-2.919a10.907,10.907,0,0,1,7.834-3.128c5.023,0,7.741,2.644,7.741,5.907Z" transform="translate(-1023.342 -604.722)" fill="silver"/>
      <path id="Path_2203" data-name="Path 2203" d="M1388.736,1114.125h-2.607v5.023h-5.3l-.028-5.023H1371v-3.608l6.6-15.2,4.608,1.732-5.609,13.024h4.264l.592-5.5h4.672v5.5h2.607v4.054Z" transform="translate(-953.648 -604.81)" fill="silver"/>
      <path id="Path_2204" data-name="Path 2204" d="M1408.163,1099.325h-8.429v4.883a7.98,7.98,0,0,1,3.445-.754c3.812,0,6.665,2.746,6.665,7.563,0,4.911-3.57,8.248-9.109,8.248a9.736,9.736,0,0,1-7.735-3.51l3.062-2.82a5.54,5.54,0,0,0,4.464,2.239c2.347,0,3.757-1.448,3.757-4.129,0-2.881-1.345-3.882-3.273-3.882a5.481,5.481,0,0,0-2.783.828h-3.682v-12.549h14.239l-.62,3.882Z" transform="translate(-873.261 -604.345)" fill="silver"/>
      <path id="Path_2205" data-name="Path 2205" d="M1623.521,996.065h-323.5v37.772h323.5c6.429,0,11.637-8.457,11.637-18.888s-5.208-18.884-11.637-18.884Z" transform="translate(-1213.052 -967.536)" fill="#f6c864"/>
      <path id="Path_2206" data-name="Path 2206" d="M1704.978,1018.216H1300.023v35.962h404.954c6.428,0,11.637-8.048,11.637-17.981s-5.208-17.981-11.637-17.981Z" transform="translate(-1213.052 -886.583)" fill="#f7f2e0"/>
      <path id="Path_2207" data-name="Path 2207" d="M1704.978,1052.216H1300.023v35.962h404.954c6.428,0,11.637-8.048,11.637-17.981s-5.208-17.981-11.637-17.981Z" transform="translate(-1213.052 -762.325)" fill="#f7f2e0"/>
      <path id="Path_2208" data-name="Path 2208" d="M1746.368,1007.328H1299.523v36.357h446.845c6.429,0,11.637-8.136,11.637-18.181s-5.208-18.176-11.637-18.176Z" transform="translate(-1214.879 -926.374)" fill="#616262"/>
      <path id="Path_2209" data-name="Path 2209" d="M1623.521,1028.892h-323.5v37.772h323.5c6.429,0,11.637-8.457,11.637-18.888s-5.208-18.884-11.637-18.884Z" transform="translate(-1213.052 -847.566)" fill="#f6c864"/>
      <path id="Path_2210" data-name="Path 2210" d="M1623.521,1062.892h-323.5v37.772h323.5c6.429,0,11.637-8.458,11.637-18.888s-5.208-18.884-11.637-18.884Z" transform="translate(-1213.052 -723.308)" fill="#f6c864"/>
      <path id="Path_2211" data-name="Path 2211" d="M1746.368,1040.914H1299.523v36.357h446.845c6.429,0,11.637-8.136,11.637-18.181s-5.208-18.176-11.637-18.176Z" transform="translate(-1214.879 -803.63)" fill="#616262"/>
      <path id="Path_2212" data-name="Path 2212" d="M1746.368,1074.914H1299.523v36.358h446.845c6.429,0,11.637-8.136,11.637-18.181s-5.208-18.177-11.637-18.177Z" transform="translate(-1214.879 -679.372)" fill="#616262"/>
    </g>
    <g id="Group_1732" data-name="Group 1732" transform="translate(-733.222 6189.131)">
      <path id="Path_2213" data-name="Path 2213" d="M1487.226,941.342H995.588a2.241,2.241,0,0,1,0-4.482h491.638a2.241,2.241,0,0,1,0,4.482Z" transform="translate(56.149 285.502)" fill="silver"/>
      <path id="Path_2214" data-name="Path 2214" d="M1487.226,925.046H995.588a2.241,2.241,0,1,1,0-4.482h491.638a2.241,2.241,0,0,1,0,4.482Z" transform="translate(56.149 228.757)" fill="silver"/>
      <path id="Path_2215" data-name="Path 2215" d="M1487.226,908.747H995.588a2.241,2.241,0,1,1,0-4.482h491.638a2.241,2.241,0,0,1,0,4.482Z" transform="translate(56.149 172.002)" fill="silver"/>
      <path id="Path_2216" data-name="Path 2216" d="M1487.226,892.448H995.588a2.241,2.241,0,1,1,0-4.482h491.638a2.241,2.241,0,0,1,0,4.482Z" transform="translate(56.149 115.247)" fill="silver"/>
      <path id="Path_2217" data-name="Path 2217" d="M1487.226,876.149H995.588a2.241,2.241,0,1,1,0-4.482h491.638a2.241,2.241,0,0,1,0,4.482Z" transform="translate(56.149 58.492)" fill="silver"/>
      <path id="Path_2218" data-name="Path 2218" d="M1487.226,859.851H995.588a2.241,2.241,0,1,1,0-4.482h491.638a2.241,2.241,0,0,1,0,4.482Z" transform="translate(56.149 1.741)" fill="silver"/>
      <path id="Path_2219" data-name="Path 2219" d="M1504.082,1302.139H992.565a4.483,4.483,0,0,1-4.482-4.482V859.351a4.482,4.482,0,1,1,8.964,0v433.823h507.034a4.482,4.482,0,0,1,0,8.964Z" transform="translate(37.819 0)" fill="silver"/>
      <path id="Path_2220" data-name="Path 2220" d="M987.838,964.932H984.79v-18.9l-5.164,3.142-1.322-2.147,6.849-4.235h2.685v22.142Z" transform="translate(3.768 306.15)" fill="silver"/>
      <path id="Path_2221" data-name="Path 2221" d="M984.828,954.132c0,6.521,1.452,9.041,4.236,9.041,2.748,0,4.236-2.519,4.236-9.041,0-6.49-1.488-9-4.236-9-2.784,0-4.236,2.51-4.236,9Zm11.649,0c0,7.351-2.448,11.456-7.414,11.456s-7.414-4.105-7.414-11.456,2.452-11.416,7.414-11.416,7.414,4.105,7.414,11.416Z" transform="translate(15.419 305.893)" fill="silver"/>
      <path id="Path_2222" data-name="Path 2222" d="M990.682,932.449c0,4.142-2.645,7.082-9.43,13.868h9.959l-.368,2.545h-13.07v-2.416c7.813-8.14,9.731-10.26,9.731-13.868a3.417,3.417,0,0,0-3.64-3.675c-1.851,0-3.079.726-4.5,2.416l-2.048-1.582a8.168,8.168,0,0,1,6.714-3.344c4.074,0,6.656,2.618,6.656,6.056Z" transform="translate(0.313 249.058)" fill="silver"/>
      <path id="Path_2223" data-name="Path 2223" d="M984.367,937.805c0,6.526,1.457,9.045,4.235,9.045,2.748,0,4.236-2.519,4.236-9.045,0-6.486-1.488-9-4.236-9-2.779,0-4.235,2.51-4.235,9Zm11.649,0c0,7.355-2.443,11.461-7.414,11.461s-7.413-4.106-7.413-11.461,2.452-11.412,7.413-11.412,7.414,4.106,7.414,11.412Z" transform="translate(13.813 249.058)" fill="silver"/>
      <path id="Path_2224" data-name="Path 2224" d="M990.731,915.7c0,2.82-1.82,4.5-4.3,5.105a5.1,5.1,0,0,1,5,5.356c0,3.872-2.944,6.79-7.552,6.79a8.348,8.348,0,0,1-6.651-2.981l1.82-1.689a6.247,6.247,0,0,0,4.737,2.188,4.107,4.107,0,0,0,4.469-4.339c0-3.043-1.721-3.967-4.4-3.967h-1.658l.367-2.358h1.125a3.72,3.72,0,0,0,4-3.9c0-2.084-1.453-3.38-3.671-3.38a6.253,6.253,0,0,0-4.572,1.99l-1.587-1.824a8.978,8.978,0,0,1,6.32-2.613c4.236,0,6.558,2.649,6.558,5.625Z" transform="translate(0 192.23)" fill="silver"/>
      <path id="Path_2225" data-name="Path 2225" d="M984.382,921.495c0,6.522,1.456,9.036,4.235,9.036,2.743,0,4.235-2.514,4.235-9.036,0-6.486-1.493-9-4.235-9-2.779,0-4.235,2.519-4.235,9Zm11.649,0c0,7.351-2.447,11.456-7.414,11.456s-7.414-4.105-7.414-11.456,2.443-11.421,7.414-11.421,7.414,4.106,7.414,11.421Z" transform="translate(13.866 192.23)" fill="silver"/>
      <path id="Path_2226" data-name="Path 2226" d="M992.579,910.768H989.7v5.464h-2.945v-5.464h-9.466v-2.183l6.651-14.831,2.55,1.058-6,13.54h6.3l.26-5.956H989.7v5.956h2.881v2.416Z" transform="translate(0.223 135.401)" fill="silver"/>
      <path id="Path_2227" data-name="Path 2227" d="M984.5,905.174c0,6.522,1.457,9.031,4.235,9.031,2.748,0,4.236-2.51,4.236-9.031,0-6.486-1.488-9-4.236-9-2.779,0-4.235,2.519-4.235,9Zm11.649,0c0,7.346-2.447,11.452-7.414,11.452s-7.413-4.106-7.413-11.452,2.447-11.42,7.413-11.42,7.414,4.105,7.414,11.42Z" transform="translate(14.291 135.402)" fill="silver"/>
      <path id="Path_2228" data-name="Path 2228" d="M990.339,879.892H981.7v6.521a7.641,7.641,0,0,1,3.541-.861c3.743,0,6.289,2.618,6.289,7.019s-3.08,7.48-7.678,7.48a8.673,8.673,0,0,1-6.557-2.815l1.856-1.784a5.974,5.974,0,0,0,4.666,2.115c2.779,0,4.536-1.82,4.536-5.065,0-3.406-1.757-4.6-4.034-4.6a6.915,6.915,0,0,0-3.146.758h-2.389V877.508h11.985l-.43,2.385Z" transform="translate(0.258 78.832)" fill="silver"/>
      <path id="Path_2229" data-name="Path 2229" d="M984.389,888.851c0,6.526,1.461,9.036,4.24,9.036,2.743,0,4.235-2.51,4.235-9.036,0-6.486-1.492-9-4.235-9-2.779,0-4.24,2.514-4.24,9Zm11.654,0c0,7.351-2.447,11.456-7.414,11.456s-7.418-4.105-7.418-11.456,2.447-11.416,7.418-11.416,7.414,4.106,7.414,11.416Z" transform="translate(13.89 78.577)" fill="silver"/>
      <path id="Path_2230" data-name="Path 2230" d="M988.816,876.173c0-3.51-1.492-4.733-3.581-4.733a5.693,5.693,0,0,0-4.76,3.048c.13,4.832,1.42,7.082,4.366,7.082,2.617,0,3.975-2.151,3.975-5.4Zm3.075-.1c0,4.832-3.146,7.915-7.05,7.915-5.392,0-7.449-4.437-7.449-10.793,0-7.252,3.146-12.084,8.377-12.084a8.026,8.026,0,0,1,4.572,1.358l-1.2,2.017a6.515,6.515,0,0,0-3.411-.959c-3.209,0-5.127,3.348-5.293,8.4a6.233,6.233,0,0,1,5.329-2.909c3.245,0,6.123,2.317,6.123,7.051Z" transform="translate(0.592 21.742)" fill="silver"/>
      <path id="Path_2231" data-name="Path 2231" d="M984.5,872.529c0,6.521,1.457,9.041,4.24,9.041,2.748,0,4.236-2.519,4.236-9.041,0-6.486-1.488-9-4.236-9-2.783,0-4.24,2.515-4.24,9Zm11.653,0c0,7.355-2.452,11.461-7.414,11.461s-7.413-4.105-7.413-11.461,2.447-11.416,7.413-11.416,7.414,4.106,7.414,11.416Z" transform="translate(14.305 21.742)" fill="silver"/>
      <path id="Path_2232" data-name="Path 2232" d="M1059.754,890.256c-15.62,0-46.87,250.12-62.485,250.12h124.975c-15.629,0-46.869-250.12-62.489-250.12Z" transform="translate(69.806 123.221)" fill="#616262"/>
      <path id="Path_2233" data-name="Path 2233" d="M1118.642,904.417c-11.649,0-34.965,186.649-46.623,186.649h93.259c-11.663,0-34.974-186.649-46.636-186.649Z" transform="translate(330.094 172.531)" fill="#616262"/>
      <path id="Path_2234" data-name="Path 2234" d="M1112.963,855.19c-25.432,0-76.312,407.289-101.753,407.289h203.51c-25.445,0-76.321-407.289-101.757-407.289Z" transform="translate(118.35 1.118)" fill="#f7f2e0"/>
      <path id="Path_2235" data-name="Path 2235" d="M1116.818,892.827c-14.9,0-44.7,238.6-59.608,238.6h119.215c-14.9,0-44.709-238.6-59.607-238.6Z" transform="translate(278.527 132.174)" fill="#f7f2e0"/>
      <path id="Path_2236" data-name="Path 2236" d="M1088.6,903.737c-11.846,0-35.543,189.7-47.39,189.7h94.784c-11.855,0-35.543-189.7-47.394-189.7Z" transform="translate(222.813 170.164)" fill="#f6c864"/>
      <path id="Path_2237" data-name="Path 2237" d="M1117.6,922.558c-8.449,0-25.338,105.339-33.791,105.339h67.581c-8.453,0-25.341-105.339-33.79-105.339Z" transform="translate(371.144 235.7)" fill="#f6c864"/>
    </g>
    <g id="Group_1733" data-name="Group 1733" transform="translate(169.027 6439.69)">
      <path id="Path_2238" data-name="Path 2238" d="M1148.154,844.31c-171.878,9.961-308.181,152.443-308.181,326.81,0,180.829,146.582,327.417,327.411,327.417,134.691,0,250.327-81.358,300.6-197.577H1148.154V844.31Z" transform="translate(0 0)" fill="#f7f2e0"/>
      <path id="Path_2239" data-name="Path 2239" d="M1438.236,1141.83c0,161.075-132.773,291.655-296.561,291.655S845.1,1302.9,845.1,1141.83s132.779-291.673,296.572-291.673,296.561,130.592,296.561,291.673Z" transform="translate(25.708 29.296)" fill="#fff"/>
      <path id="Path_2240" data-name="Path 2240" d="M1161.625,859.5a269.9,269.9,0,0,0-46.618-4.106c-146.125,0-264.58,116.5-264.58,260.2s118.455,260.191,264.58,260.191c134.433,0,245.374-98.647,262.271-226.329H1161.625V859.5Z" transform="translate(52.384 55.531)" fill="#f6c864"/>
      <path id="Path_2241" data-name="Path 2241" d="M1320.8,1086.154c0,124.082-104.039,224.665-232.365,224.665-128.344,0-232.377-100.583-232.377-224.665S960.094,861.49,1088.438,861.49c128.326,0,232.365,100.589,232.365,224.664Z" transform="translate(80.623 86.096)" fill="#fff"/>
      <path id="Path_2242" data-name="Path 2242" d="M977.064,870.67c-68.079,30.387-115.341,96.922-115.341,174.168,0,105.9,88.794,191.751,198.34,191.751,69.233,0,130.171-34.331,165.638-86.33H977.064V870.67Z" transform="translate(108.998 132.1)" fill="#616262"/>
      <path id="Path_2243" data-name="Path 2243" d="M1200.091,1033.879c0,88.926-74.565,161.015-166.528,161.015-91.987,0-166.552-72.089-166.552-161.015s74.565-161.021,166.552-161.021c91.962,0,166.528,72.094,166.528,161.021Z" transform="translate(135.498 143.06)" fill="#fff"/>
      <path id="Path_2244" data-name="Path 2244" d="M1146.639,1008.148c0,73.032-61.226,132.214-136.736,132.214-75.527,0-136.747-59.182-136.747-132.214,0-73,61.22-132.191,136.747-132.191,75.51,0,136.736,59.188,136.736,132.191Z" transform="translate(166.293 158.596)" fill="#f7f2e0"/>
      <path id="Path_2245" data-name="Path 2245" d="M1094.43,985.211c0,57.823-48.482,104.694-108.266,104.694-59.807,0-108.271-46.871-108.271-104.694,0-57.806,48.464-104.677,108.271-104.677,59.784,0,108.266,46.871,108.266,104.677Z" transform="translate(190.032 181.533)" fill="#fff"/>
    </g>
  </g>
</svg>
