<svg xmlns="http://www.w3.org/2000/svg" width="813.93" height="379" viewBox="0 0 813.93 379">
  <g id="outline" transform="translate(-1 -1)">
    <path id="Path_2257" data-name="Path 2257" d="M397.531,1c2.295.994,4.121,1.987,6.2,3.117-.735.249-1.652.639-2.608.869-2.917.7-6.212-.007-7.955,3.938-.578,1.309-4.054,1.6-6.264,1.876-6.846.858-13.707,1.808-20.589,2.118-8,.361-16.04-.123-24.049.146-7.26.244-14.523.822-21.749,1.59-8.471.9-16.905,2.152-25.352,3.278-14.971,2-29.953,3.915-44.9,6.05-13.167,1.88-26.465,3.279-39.4,6.214-16.1,3.651-31.885,8.674-47.813,13.079-4.96,1.372-10.033,2.394-14.9,4.039-11.155,3.771-22.529,7.13-33.228,11.955-11.78,5.313-23.078,11.781-34.253,18.317A206.787,206.787,0,0,0,57.941,93.028c-5.6,4.373-10.5,9.686-15.5,14.8-3.934,4.025-8.555,7.854-11.043,12.707-3.685,7.189-9.662,12.881-11.775,21.26-1.672,6.629-4.594,12.977-4.625,19.974-.029,6.5-.242,13.061.56,19.48,1.765,14.128,10.357,25.208,17.145,37.162,7.045,12.406,17.52,21.384,27.94,30.467,5.643,4.919,11.928,9.135,18.117,13.386,5.373,3.691,11.072,6.9,16.533,10.474,8.411,5.5,16.721,11.154,25.132,16.654a27.8,27.8,0,0,0,4.248,1.725c6.784,2.944,13.515,6.017,20.351,8.834,4.52,1.864,9.229,3.266,13.778,5.065,7.188,2.842,14.224,6.091,21.488,8.716,9.179,3.316,18.491,6.274,27.8,9.209,9.932,3.132,19.876,6.257,29.919,9,6.3,1.722,13.168,1.848,19.105,4.315,6.21,2.579,12.613,3.357,18.944,4.9,1.02.248,1.741,1.729,2.913,1.69,2.263.687,4.486,1.735,6.8,1.991,6.249.692,12.561.834,18.8,1.615,3.695.463,7.278,1.769,10.931,2.611,3.069.708,6.166,1.293,9.251,1.931,6.325,1.311,12.613,2.87,18.99,3.839,3.95.6,8.035.312,12.06.4.656.013,1.542-.427,1.939-.136,8.341,6.105,18.007-.18,26.661,2.884,1.063.376,2.452.047,3.367.589,4.654,2.755,9.321,1.02,14.1.6,3.983-.349,8.265-.8,11.578,3.022.758.876,3.629-.159,5.529-.173,5.7-.043,11.4-.017,17.1-.017,3.942,0,7.889.116,11.826-.025,6.611-.237,13.377-1.684,19.784-.7,8,1.225,15.1-2.1,22.688-2.355,4.245-.14,8.527.324,12.745-.033,5.7-.482,11.346-1.553,17.029-2.261,7.32-.913,14.6-4.35,22.057-.426.4.208,1.386-.788,2.131-1.16,1.4-.7,3.173-2.264,4.193-1.88,6.312,2.377,11.615-1.483,17.279-2.552,11.294-2.132,22.445-5.019,33.648-7.624,7.057-1.641,14.214-2.972,21.121-5.107,7.551-2.334,14.833-5.526,22.311-8.114,1.235-.428,2.877.319,4.4.533-.009-.147-.053-.847-.1-1.668l9.994-3.2c-.128-.269-.257-.537-.385-.806,2.764-1.388,5.542-2.75,8.291-4.169,6.085-3.141,12.169-6.283,18.227-9.477,5.233-2.759,10.495-5.476,15.624-8.422,5.283-3.033,10.128-7.054,15.709-9.276,4.881-1.943,7.837-6.472,13.637-7.566,4.334-.818,7.772-6.137,11.719-9.315,4.924-3.965,10.663-7.167,14.787-11.819,6.439-7.263,16.953-9.762,21.508-19.1.54-1.106,2.721-1.411,3.336-1.7.973-2.708,1.4-5.256,2.69-7.238,4.375-6.7,9.9-12.787,13.424-19.883,5.167-10.406,9.515-21.642,8.257-33.438-.767-7.2-4.182-14.226-7.077-21.046a51,51,0,0,0-7.977-13.4c-3.569-4.124-8.5-7.04-12.505-10.829-1.55-1.464-1.812-4.289-3.36-5.758a41.114,41.114,0,0,0-7.911-5.5c-13.867-7.966-27.65-16.1-41.762-23.609-6.841-3.642-14.236-6.338-21.563-8.948-10.4-3.706-20.95-7.033-31.5-10.314-3.091-.962-6.446-1.042-9.6-1.831-8.908-2.224-17.773-4.623-26.665-6.914-2.9-.748-5.912-1.164-8.736-2.132-1.887-.647-4.587-1.641-5.09-3.108-1.538-4.489-4.1-2.494-6.735-1.88-2.284.532-4.768,1.332-6.963.928-11.284-2.077-22.5-4.548-33.748-6.8-11.824-2.365-23.622-4.906-35.517-6.849-7.523-1.229-15.2-1.568-22.812-2.194-16.475-1.354-32.94-2.913-49.44-3.845-10.165-.574-20.386-.156-30.582-.166-9.87-.01-19.955-1.281-29.558.322-12.793,2.136-25.583,1.766-38.355,2.724-10.632.8-21.237,1.984-31.846,3.07-6.634.679-13.338,1.061-19.861,2.34-10.887,2.134-21.635,4.964-32.477,7.336-5.863,1.282-11.932,1.767-17.677,3.414-11.21,3.214-22.3,6.862-33.363,10.569-12.257,4.109-24.454,8.4-36.621,12.773-8,2.873-15.9,6.019-23.851,9.049-3.078,1.174-6.1,2.535-9.242,3.492a70.616,70.616,0,0,1-7.611,1.482l-.636-2.045c2.989-1.451,5.861-3.716,9-4.172,5.344-.778,7.791-5.974,13.518-6.912,5.86-.96,10.934-6.141,16.624-8.914,3.835-1.869,8.2-2.626,12.226-4.137,4.778-1.792,9.446-3.877,14.174-5.805a429.545,429.545,0,0,1,59.663-19.254c9.512-2.34,19.1-4.486,28.747-6.131,7.176-1.223,14.5-1.61,21.78-2.168,11.958-.917,23.937-1.559,35.889-2.533,7.227-.589,14.4-2.017,21.633-2.278,6.862-.248,13.759.672,20.645.795,2.767.049,5.554-1.009,8.321-.962,10.6.182,21.584-.969,31.652,1.51,6.5,1.6,12.092-.833,18.148.26a209.294,209.294,0,0,0,24.92,2.55c8.585.5,17.246-.038,25.8.726,13.507,1.205,26.962,3.03,40.417,4.771,6.3.815,12.518,2.629,18.829,2.982,21.044,1.178,41.466,5.561,61.781,10.807,7.061,1.823,14.338,2.795,21.434,4.5a96.855,96.855,0,0,1,10.9,3.855c8.026,2.988,16.031,6.029,24.06,9.008a70.764,70.764,0,0,0,8.1,2.741c6.178,1.47,11.507,4.351,16.9,7.743,5.918,3.718,13.08,5.391,19.356,8.622,5.657,2.913,10.8,6.814,16.268,10.112,2.828,1.705,6.021,2.819,8.8,4.592,8.673,5.535,15.962,12.687,23.588,19.548a82.218,82.218,0,0,1,16.461,20.6c4.07,7.083,7.657,14.445,11.741,21.345.285,9.682.285,19.7.006,29.852-3.74,6.982-7.123,13.878-10.689,20.677-2.984,5.687-5.64,11.663-9.425,16.784a154.3,154.3,0,0,1-15.316,17.156c-6.1,6.086-12.665,11.7-19.026,17.52-2.813,2.576-7.3,4.755-8.043,7.833-1.185,4.93-5.191,5.588-8.039,7.564-6.377,4.425-14.321,6.967-19.827,12.178-7.17,6.786-15.761,10.661-24.038,15.22-6.341,3.493-13.356,5.742-19.958,8.79-6.157,2.842-12.03,6.329-18.273,8.948-6.893,2.892-14.09,5.049-21.1,7.662-4.285,1.6-8.386,3.726-12.727,5.125-8.72,2.81-17.534,5.333-26.336,7.881-7.681,2.223-15.3,4.866-23.126,6.327-8.85,1.651-17.945,1.94-26.865,3.275-11.474,1.718-22.836,4.219-34.331,5.742-7.367.975-14.891.733-22.339,1.155-3.768.214-7.529.638-11.271,1.131-.4.053-.663,1.2-.989,1.841a2.1,2.1,0,0,1-1.326-.309,10.155,10.155,0,0,0-2.639-1.26q-.018.785-.035,1.569a2.251,2.251,0,0,1-1.334-.289,6.172,6.172,0,0,0-1.893-1.045q.114.668.227,1.334c-18.021,0-36.042,0-54.288-.393a7.649,7.649,0,0,0-3.278-1.553c-7.253-.424-14.519-.633-21.771-1.071-9.77-.589-19.531-1.317-29.3-2-4.769-.332-9.584-.383-14.3-1.1-9.48-1.435-18.908-3.223-28.353-4.893-10.7-1.892-21.424-3.687-32.089-5.774-5.813-1.137-11.506-2.877-17.288-4.193-9.027-2.053-18.11-3.862-27.115-6-4.534-1.079-8.937-2.7-13.418-4.013-9.885-2.9-19.882-5.455-29.644-8.715-8.745-2.92-17.185-6.738-25.858-9.886-5.9-2.143-12.122-3.443-17.93-5.788-7.761-3.134-15.283-6.869-22.861-10.445-2.609-1.231-5.008-2.914-7.629-4.114-4.019-1.84-8.368-3.052-12.182-5.225-7.518-4.282-14.721-9.113-22.136-13.579-6.224-3.749-12.949-6.784-18.765-11.068-8.516-6.274-16.258-13.587-24.62-20.085-12.046-9.36-21.5-20.867-30.424-33.163-8.247-11.355-16.536-22.41-19.942-36.32C2.734,190.289,1.628,190.2,1,190c0-12.021,0-24.042.279-36.191.656-.455,1.31-.736,1.372-1.114,1.817-11.175,7.63-20.805,12.773-30.484a79.518,79.518,0,0,1,15.609-20.242A289.74,289.74,0,0,1,61.4,77.312C72.216,69.611,83.42,62.2,95.241,56.22c13.168-6.666,27.123-11.838,40.928-17.162C144.428,35.873,153.041,33.6,161.52,31c7.878-2.415,15.725-4.977,23.705-7,7.874-2,15.934-3.253,23.847-5.114,9.076-2.134,17.993-5.041,27.139-6.757,10.112-1.9,20.391-2.955,30.625-4.147C282,6.213,297.2,4.685,312.361,2.928,313.632,2.781,314.79,1.666,316,1Z" fill="#dfa435"/>
    <path id="Path_2261" data-name="Path 2261" d="M479.333,380a2.658,2.658,0,0,1-.3-1.569,5.363,5.363,0,0,1,2.3,1.26A4.57,4.57,0,0,1,479.333,380Z"/>
    <path id="Path_2262" data-name="Path 2262" d="M476.25,380a2.881,2.881,0,0,1-.477-1.334,2.832,2.832,0,0,1,1.56,1.045A1.656,1.656,0,0,1,476.25,380Z"/>
  </g>
</svg>
