<svg xmlns="http://www.w3.org/2000/svg" width="25" height="25" viewBox="0 0 25 25">
  <g id="twitter" transform="translate(0.5 0.5)">
    <rect id="Boundary" width="24" height="24" fill="#fff" stroke="rgba(0,0,0,0)" stroke-width="1" opacity="0"/>
    <path id="Path_twitter" data-name="Path / twitter" d="M22.46,6A8.568,8.568,0,0,1,20,6.69a4.3,4.3,0,0,0,1.88-2.38,8.641,8.641,0,0,1-2.72,1.05A4.225,4.225,0,0,0,16,4a4.285,4.285,0,0,0-4.27,4.29,4.459,4.459,0,0,0,.11.98A12.194,12.194,0,0,1,3,4.79,4.273,4.273,0,0,0,4.33,10.5,4.243,4.243,0,0,1,2.38,10v.03a4.293,4.293,0,0,0,3.44,4.21,4.206,4.206,0,0,1-1.93.07,4.28,4.28,0,0,0,4,2.98,8.521,8.521,0,0,1-5.33,1.84,8.722,8.722,0,0,1-1.02-.06A12.144,12.144,0,0,0,8.12,21,12.136,12.136,0,0,0,20.33,8.79c0-.19,0-.37-.01-.56A8.572,8.572,0,0,0,22.46,6Z" transform="translate(0.46)" fill="#fff" stroke="rgba(0,0,0,0)" stroke-width="1"/>
  </g>
</svg>
