<svg xmlns="http://www.w3.org/2000/svg" width="284.469" height="176.357" viewBox="0 0 284.469 176.357">
  <g id="Group_1786" data-name="Group 1786" transform="translate(11763.564 -5046.716)">
    <g id="Group_26" data-name="Group 26" transform="translate(-11692.716 5208.672)">
      <path id="Path_190" data-name="Path 190" d="M3418.1-184.719c-.807-1.173-1.2-2.44-.2-3.707a2.811,2.811,0,0,1,3.061-.867,2.343,2.343,0,0,1,1.8,2.123c-.159.043-.324.081-.486.131a.526.526,0,0,1-.759-.365,1.447,1.447,0,0,0-1.621-.943,1.53,1.53,0,0,0-1.135,2.3,5.3,5.3,0,0,0,1.026,1.317c.932.924,1.907,1.806,2.9,2.739a13.735,13.735,0,0,0,.464-1.363c.212-.908.19-.914,1.174-.806a5.565,5.565,0,0,1-.941,3.1l2.171,1.963-.152.281a4.957,4.957,0,0,1-1.574-.178,5.445,5.445,0,0,1-1.223-1.115c-.26.19-.512.394-.784.568a4.388,4.388,0,0,1-3.98.6,2.811,2.811,0,0,1-1.145-4.638A12.2,12.2,0,0,1,3418.1-184.719Zm3.712,3.864-3.2-3.1a7.146,7.146,0,0,0-1.091,1.247,1.92,1.92,0,0,0,1.618,2.9A3.355,3.355,0,0,0,3421.814-180.855Z" transform="translate(-3337.814 189.66)" fill="#f2f2f2"/>
      <path id="Path_191" data-name="Path 191" d="M2833.971-184.83h2.526c3.1,0,4.769,1.8,4.769,5.011s-1.665,5.084-4.712,5.084h-2.583Zm2.431,9.042c2.36,0,3.537-1.479,3.537-4.031s-1.177-3.958-3.537-3.958h-1.146v7.989Z" transform="translate(-2833.971 185.693)" fill="#f2f2f2"/>
      <path id="Path_192" data-name="Path 192" d="M2897.265-188.137a.814.814,0,0,1,.874-.818.813.813,0,0,1,.874.818.824.824,0,0,1-.874.817A.826.826,0,0,1,2897.265-188.137Zm.232,2.354h1.266v7.478H2897.5Z" transform="translate(-2888.771 189.265)" fill="#f2f2f2"/>
      <path id="Path_193" data-name="Path 193" d="M2918.375-157.594a2.1,2.1,0,0,1,1.1-1.691v-.062a1.383,1.383,0,0,1-.667-1.225,1.794,1.794,0,0,1,.82-1.388v-.061a2.607,2.607,0,0,1-.967-2.008,2.655,2.655,0,0,1,2.806-2.663,3.064,3.064,0,0,1,1.056.184h2.608v.974h-1.534a2.159,2.159,0,0,1,.608,1.539,2.557,2.557,0,0,1-2.738,2.592,2.662,2.662,0,0,1-1.115-.254,1.1,1.1,0,0,0-.477.884c0,.475.309.812,1.31.812h1.456c1.738,0,2.613.546,2.613,1.786,0,1.389-1.47,2.586-3.781,2.586C2919.638-155.589,2918.375-156.306,2918.375-157.594Zm5.636-.392c0-.692-.525-.928-1.506-.928h-1.292a4.251,4.251,0,0,1-.971-.112,1.558,1.558,0,0,0-.762,1.253c0,.8.81,1.311,2.167,1.311C2923.074-156.461,2924.011-157.205,2924.011-157.986Zm-.958-6.043a1.6,1.6,0,0,0-1.589-1.746,1.592,1.592,0,0,0-1.587,1.746,1.634,1.634,0,0,0,1.587,1.777A1.637,1.637,0,0,0,2923.053-164.029Z" transform="translate(-2907.049 169.989)" fill="#f2f2f2"/>
      <path id="Path_194" data-name="Path 194" d="M2974.054-188.137a.813.813,0,0,1,.874-.818.813.813,0,0,1,.874.818.825.825,0,0,1-.874.817A.825.825,0,0,1,2974.054-188.137Zm.232,2.354h1.265v7.478h-1.265Z" transform="translate(-2955.257 189.265)" fill="#f2f2f2"/>
      <path id="Path_195" data-name="Path 195" d="M2993.863-173.682v-4.135h-1.113v-.958l1.169-.073.152-2.1h1.057v2.1h2.026v1.031h-2.026v4.157c0,.914.294,1.444,1.156,1.444a2.5,2.5,0,0,0,.852-.2l.243.955a4.486,4.486,0,0,1-1.386.277C2994.4-171.186,2993.863-172.194,2993.863-173.682Z" transform="translate(-2971.443 182.33)" fill="#f2f2f2"/>
      <path id="Path_196" data-name="Path 196" d="M3027.682-160.972c0-1.629,1.4-2.443,4.592-2.79,0-.962-.323-1.889-1.543-1.889a4.122,4.122,0,0,0-2.23.8l-.5-.867a5.487,5.487,0,0,1,2.937-.977c1.825,0,2.6,1.213,2.6,3.074v4.588h-1.045l-.107-.894h-.042a3.972,3.972,0,0,1-2.474,1.079A2.032,2.032,0,0,1,3027.682-160.972Zm4.592.117v-2.076c-2.5.3-3.352.915-3.352,1.871,0,.85.577,1.2,1.31,1.2A3.076,3.076,0,0,0,3032.274-160.855Z" transform="translate(-3001.688 169.989)" fill="#f2f2f2"/>
      <path id="Path_197" data-name="Path 197" d="M3084.314-181.806v-9.457h1.264v9.549c0,.387.169.541.354.541a1.106,1.106,0,0,0,.277-.031l.17.966a2.025,2.025,0,0,1-.728.118C3084.7-180.119,3084.314-180.724,3084.314-181.806Z" transform="translate(-3050.72 191.263)" fill="#f2f2f2"/>
      <path id="Path_198" data-name="Path 198" d="M3127.292-166.508h1.045l.106,1.084h.042a3.328,3.328,0,0,1,2.328-1.269,1.972,1.972,0,0,1,2.063,1.425,3.531,3.531,0,0,1,2.466-1.425c1.537,0,2.276,1.017,2.276,2.924v4.738h-1.267V-163.6c0-1.393-.439-1.989-1.391-1.989a2.735,2.735,0,0,0-1.874,1.148v5.415h-1.264V-163.6c0-1.393-.442-1.989-1.393-1.989a2.777,2.777,0,0,0-1.874,1.148v5.415h-1.265Z" transform="translate(-3087.932 169.989)" fill="#f2f2f2"/>
      <path id="Path_199" data-name="Path 199" d="M3213.581-162.759c0-2.434,1.639-3.933,3.36-3.933,1.907,0,2.984,1.37,2.984,3.509a4,4,0,0,1-.059.719h-5.036a2.487,2.487,0,0,0,2.484,2.611,3.271,3.271,0,0,0,1.862-.6l.452.83a4.393,4.393,0,0,1-2.467.776A3.575,3.575,0,0,1,3213.581-162.759Zm5.226-.612c0-1.5-.673-2.313-1.842-2.313a2.3,2.3,0,0,0-2.146,2.313Z" transform="translate(-3162.641 169.989)" fill="#f2f2f2"/>
      <path id="Path_200" data-name="Path 200" d="M3266.013-184.033c0-2.425,1.53-3.933,3.235-3.933a3.059,3.059,0,0,1,2.095.866l-.053-1.282v-2.881h1.264V-180.3h-1.044l-.107-.883h-.043a3.3,3.3,0,0,1-2.268,1.067C3267.225-180.119,3266.013-181.541,3266.013-184.033Zm5.277,1.828v-3.919a2.629,2.629,0,0,0-1.824-.777c-1.2,0-2.146,1.154-2.146,2.857,0,1.793.741,2.86,2.053,2.86A2.58,2.58,0,0,0,3271.29-182.2Z" transform="translate(-3208.037 191.263)" fill="#f2f2f2"/>
      <path id="Path_201" data-name="Path 201" d="M3327.282-188.137a.814.814,0,0,1,.874-.818.815.815,0,0,1,.875.818.826.826,0,0,1-.875.817A.825.825,0,0,1,3327.282-188.137Zm.232,2.354h1.264v7.478h-1.264Z" transform="translate(-3261.084 189.265)" fill="#f2f2f2"/>
      <path id="Path_202" data-name="Path 202" d="M3349.164-160.972c0-1.629,1.406-2.443,4.593-2.79,0-.962-.322-1.889-1.544-1.889a4.116,4.116,0,0,0-2.229.8l-.5-.867a5.485,5.485,0,0,1,2.937-.977c1.824,0,2.6,1.213,2.6,3.074v4.588h-1.045l-.105-.894h-.043a3.97,3.97,0,0,1-2.474,1.079A2.034,2.034,0,0,1,3349.164-160.972Zm4.593.117v-2.076c-2.506.3-3.354.915-3.354,1.871,0,.85.577,1.2,1.311,1.2A3.077,3.077,0,0,0,3353.757-160.855Z" transform="translate(-3280.03 169.989)" fill="#f2f2f2"/>
      <path id="Path_203" data-name="Path 203" d="M3508.854-181.076h-.042l-.12.772h-1.012v-10.959h1.266v3l-.042,1.341a3.778,3.778,0,0,1,2.35-1.041c1.931,0,2.97,1.5,2.97,3.8,0,2.554-1.53,4.043-3.238,4.043A3.341,3.341,0,0,1,3508.854-181.076Zm4.062-3.068c0-1.65-.562-2.756-1.97-2.756a3.039,3.039,0,0,0-2,1.02v3.92a2.885,2.885,0,0,0,1.821.777C3512-181.184,3512.916-182.3,3512.916-184.145Z" transform="translate(-3417.275 191.263)" fill="#f2f2f2"/>
      <path id="Path_204" data-name="Path 204" d="M3566.476-166.508h1.045l.106,1.362h.042a2.574,2.574,0,0,1,2.126-1.546,1.741,1.741,0,0,1,.8.154l-.238,1.11a2.07,2.07,0,0,0-.724-.123c-.632,0-1.387.455-1.892,1.72v4.8h-1.265Z" transform="translate(-3468.182 169.989)" fill="#f2f2f2"/>
      <path id="Path_205" data-name="Path 205" d="M3595.458-160.972c0-1.629,1.407-2.443,4.593-2.79,0-.962-.322-1.889-1.543-1.889a4.121,4.121,0,0,0-2.23.8l-.5-.867a5.485,5.485,0,0,1,2.937-.977c1.825,0,2.6,1.213,2.6,3.074v4.588h-1.045l-.107-.894h-.043a3.963,3.963,0,0,1-2.473,1.079A2.034,2.034,0,0,1,3595.458-160.972Zm4.593.117v-2.076c-2.506.3-3.354.915-3.354,1.871,0,.85.577,1.2,1.311,1.2A3.077,3.077,0,0,0,3600.052-160.855Z" transform="translate(-3493.275 169.989)" fill="#f2f2f2"/>
      <path id="Path_206" data-name="Path 206" d="M3652.09-166.508h1.046l.107,1.079h.042a3.572,3.572,0,0,1,2.509-1.263c1.574,0,2.281,1.017,2.281,2.924v4.738h-1.266V-163.6c0-1.393-.419-1.989-1.409-1.989a2.838,2.838,0,0,0-2.045,1.148v5.415h-1.265Z" transform="translate(-3542.307 169.989)" fill="#f2f2f2"/>
      <path id="Path_207" data-name="Path 207" d="M3706.231-184.033c0-2.425,1.529-3.933,3.234-3.933a3.059,3.059,0,0,1,2.095.866l-.053-1.282v-2.881h1.265V-180.3h-1.044l-.107-.883h-.044a3.3,3.3,0,0,1-2.268,1.067C3707.442-180.119,3706.231-181.541,3706.231-184.033Zm5.276,1.828v-3.919a2.628,2.628,0,0,0-1.823-.777c-1.2,0-2.147,1.154-2.147,2.857,0,1.793.741,2.86,2.053,2.86A2.579,2.579,0,0,0,3711.507-182.2Z" transform="translate(-3589.183 191.263)" fill="#f2f2f2"/>
      <path id="Path_208" data-name="Path 208" d="M3767.5-188.137a.815.815,0,0,1,.876-.818.813.813,0,0,1,.872.818.824.824,0,0,1-.872.817A.827.827,0,0,1,3767.5-188.137Zm.232,2.354H3769v7.478h-1.266Z" transform="translate(-3642.229 189.265)" fill="#f2f2f2"/>
      <path id="Path_209" data-name="Path 209" d="M3792.833-166.508h1.047l.107,1.079h.042a3.567,3.567,0,0,1,2.509-1.263c1.575,0,2.282,1.017,2.282,2.924v4.738h-1.266V-163.6c0-1.393-.42-1.989-1.411-1.989a2.836,2.836,0,0,0-2.044,1.148v5.415h-1.266Z" transform="translate(-3664.164 169.989)" fill="#f2f2f2"/>
      <path id="Path_210" data-name="Path 210" d="M3846.717-157.594a2.1,2.1,0,0,1,1.1-1.691v-.062a1.384,1.384,0,0,1-.668-1.225,1.793,1.793,0,0,1,.823-1.388v-.061a2.6,2.6,0,0,1-.969-2.008,2.655,2.655,0,0,1,2.806-2.663,3.065,3.065,0,0,1,1.056.184h2.607v.974h-1.535a2.159,2.159,0,0,1,.609,1.539,2.556,2.556,0,0,1-2.738,2.592,2.645,2.645,0,0,1-1.113-.254,1.089,1.089,0,0,0-.478.884c0,.475.309.812,1.31.812h1.456c1.738,0,2.612.546,2.612,1.786,0,1.389-1.47,2.586-3.779,2.586C3847.978-155.589,3846.717-156.306,3846.717-157.594Zm5.635-.392c0-.692-.526-.928-1.506-.928h-1.292a4.233,4.233,0,0,1-.97-.112,1.555,1.555,0,0,0-.764,1.253c0,.8.81,1.311,2.169,1.311C3851.414-156.461,3852.351-157.205,3852.351-157.986Zm-.958-6.043a1.6,1.6,0,0,0-1.59-1.746,1.593,1.593,0,0,0-1.589,1.746,1.637,1.637,0,0,0,1.589,1.777A1.636,1.636,0,0,0,3851.393-164.029Z" transform="translate(-3710.817 169.989)" fill="#f2f2f2"/>
    </g>
    <path id="Path_211" data-name="Path 211" d="M2306.006-867.636c10.843,0,21.684-.033,32.526.018a45.022,45.022,0,0,1,19.842,4.431,37.628,37.628,0,0,1,18.271,18.762,42.293,42.293,0,0,1,3.52,13.476,45.812,45.812,0,0,1-1.926,19,37.5,37.5,0,0,1-19.81,22.839,43.719,43.719,0,0,1-17.34,4.352c-1.2.057-2.4.093-3.6.094q-15.74.013-31.48.008Zm17.337,69.512h.758c4.383,0,8.765.023,13.146-.012a44.582,44.582,0,0,0,4.927-.272,22.261,22.261,0,0,0,10.132-3.766,22.7,22.7,0,0,0,8.85-12.589,39.728,39.728,0,0,0,.508-20.95,24.165,24.165,0,0,0-6.219-11.7,22.529,22.529,0,0,0-15.993-6.686c-5.25-.151-10.508-.048-15.763-.055a2.739,2.739,0,0,0-.346.045Z" transform="translate(-14069.57 5985.555)" fill="#f2f2f2"/>
    <path id="Path_212" data-name="Path 212" d="M3232.457-1342.832c-.008.233-.02.465-.02.7q0,23.419,0,46.838v.784a20.765,20.765,0,0,0,4.417-.238,3.622,3.622,0,0,0,1.91-1.363q2.8-3.677,5.567-7.381,3.907-5.208,7.806-10.426a6.142,6.142,0,0,1,5.212-2.667c4.674.016,9.346,0,14.023.006.127,0,.256.018.475.034l-2.4,3.065q-7.5,9.529-15,19.055a15.167,15.167,0,0,1-4.072,3.569c2.937,2.153,4.442,5.348,6.319,8.242,5.25,8.1,10.435,16.231,15.647,24.351.11.174.211.356.363.619h-.637q-6.894,0-13.789,0a5.6,5.6,0,0,1-5.188-2.892c-4.342-7.22-8.787-14.38-13.159-21.584a3.849,3.849,0,0,0-3.563-2.066c-1.276.015-2.554,0-3.9,0v26.5H3216.63v-85.144Z" transform="translate(-14857.998 6396.976)" fill="#f2f2f2"/>
    <path id="Path_213" data-name="Path 213" d="M3269.077-636.673h-15.728v-.757q0-18.471-.006-36.944a12.907,12.907,0,0,0-.966-5.161,7.679,7.679,0,0,0-7.007-4.835c-4.479-.338-8.173,1.43-11.543,4.2a3.273,3.273,0,0,0-1.3,2.847c.05,13.265.031,26.53.031,39.8v.843h-15.719v-58.885h.634q4.451,0,8.9,0a3.819,3.819,0,0,1,4.216,3.329c.273,1.128.543,2.257.837,3.482.212-.193.389-.353.566-.516a25.7,25.7,0,0,1,9.076-5.838c5.812-1.985,11.61-2.071,17.249.58,4.742,2.228,7.689,6.075,9.34,10.97a28.573,28.573,0,0,1,1.42,9.2q.006,18.56,0,37.119Z" transform="translate(-14858.176 5837.435)" fill="#f2f2f2"/>
    <path id="Path_214" data-name="Path 214" d="M3648.973-663.506c.563,4.717,1.491,9.159,5.149,12.465a13.818,13.818,0,0,0,8.175,3.381,21.37,21.37,0,0,0,12.887-3.1c.708-.4,1.432-.773,2.159-1.133a4.847,4.847,0,0,1,3.539-.542,3.758,3.758,0,0,1,1.763,1.015c1.651,1.927,3.2,3.941,4.81,5.953a23.065,23.065,0,0,1-4.057,3.823,29.437,29.437,0,0,1-13.716,5.478,55.063,55.063,0,0,1-7.411.527,29.131,29.131,0,0,1-17.034-5.117,26.909,26.909,0,0,1-9.821-13.1,37.579,37.579,0,0,1-2.082-15.44,28.541,28.541,0,0,1,7.435-18.3,26.443,26.443,0,0,1,14.247-8.034,30.7,30.7,0,0,1,16.569.811c7.748,2.643,12.669,8.032,15.033,15.8a32.371,32.371,0,0,1,1.165,12.135,6.022,6.022,0,0,1-.167.971,2.662,2.662,0,0,1-2.938,2.4c-.215.01-.427,0-.64,0h-35.063Zm.145-9.454h24.729c-.13-1.09-.2-2.131-.384-3.153a10.909,10.909,0,0,0-3.095-6.119,10.536,10.536,0,0,0-6.607-2.929,14.818,14.818,0,0,0-6.908.871,11.307,11.307,0,0,0-6.424,6.959C3649.9-675.933,3649.56-674.46,3649.117-672.959Z" transform="translate(-15218.714 5837.279)" fill="#f2f2f2"/>
    <path id="Path_215" data-name="Path 215" d="M3642.916-1129.789a28.9,28.9,0,0,0-.509-7.6c-1.056-3.889-3.914-5.977-8.09-6.112a18.572,18.572,0,0,0-9.732,2.454q-1.5.826-3.013,1.634a6.751,6.751,0,0,1-4.175.7,5.309,5.309,0,0,1-3.8-2.807c-.909-1.485-1.7-3.042-2.568-4.554-.2-.35-.111-.532.163-.772a35.124,35.124,0,0,1,16.178-8.114,38.132,38.132,0,0,1,11.5-.708c8.409.8,15.441,5.793,18.218,14.51a27.446,27.446,0,0,1,1.247,8.355q.02,18.213.005,36.424v.606c-.219.014-.388.035-.555.035-2.387,0-4.771.011-7.157-.005a11.61,11.61,0,0,1-1.56-.15,3.812,3.812,0,0,1-3.125-2.708c-.437-1.158-.8-2.342-1.2-3.514-.06-.178-.128-.352-.214-.585-.8.656-1.556,1.282-2.32,1.9a24.823,24.823,0,0,1-9.5,5.1c-5.287,1.315-10.569,1.419-15.7-.648a13.685,13.685,0,0,1-8.683-10.9,15.355,15.355,0,0,1,1.349-10.224,16.056,16.056,0,0,1,5.559-5.826,33.91,33.91,0,0,1,9.78-4.194,59.953,59.953,0,0,1,12.479-2C3639.274-1129.6,3641.053-1129.686,3642.916-1129.789Zm-.021,9.5a1.168,1.168,0,0,0-.193-.033,62.11,62.11,0,0,0-10.609,1.23,16.713,16.713,0,0,0-6.425,2.569,5.855,5.855,0,0,0-2.549,5.137c.061,2.928,1.288,4.717,3.937,5.485a14.709,14.709,0,0,0,7.477-.021c3.3-.755,5.854-2.745,8.176-5.085a.954.954,0,0,0,.206-.622c.013-2.754.009-5.509.008-8.262C3642.923-1120.023,3642.9-1120.154,3642.9-1120.291Z" transform="translate(-15196.859 6235.063)" fill="#f2f2f2"/>
    <path id="Path_216" data-name="Path 216" d="M3983.159-1069.362c1.167-2.491,2.3-4.925,3.444-7.358q3.708-7.913,7.428-15.821a1.233,1.233,0,0,0,.016-1.14q-8.017-18.323-16.011-36.656-3.6-8.247-7.2-16.5c-.054-.12-.094-.245-.18-.472h.674q6.515,0,13.031,0a4.4,4.4,0,0,1,4.654,3.192c3.611,9.1,7.259,18.187,10.833,27.3.888,2.264,1.545,4.618,2.31,6.934.028-.062.087-.167.129-.277q3.97-10.877,7.94-21.753c1.51-4.124,3.048-8.238,4.571-12.357a4.288,4.288,0,0,1,4.2-3.018c4.149-.071,8.3-.021,12.45-.019a2.168,2.168,0,0,1,.3.052c-.07.2-.118.377-.19.546q-7.571,17.819-15.146,35.637-6.505,15.308-13.009,30.617c-1.1,2.6-2.229,5.192-3.317,7.8a4.876,4.876,0,0,1-4.867,3.341c-3.937-.021-7.874-.006-11.812-.008A1.86,1.86,0,0,1,3983.159-1069.362Z" transform="translate(-15510.842 6227.7)" fill="#f2f2f2"/>
    <g id="Group_27" data-name="Group 27" transform="translate(-11729.461 5046.716)">
      <path id="Path_217" data-name="Path 217" d="M95.237,44.267a36.567,36.567,0,0,0-.618-4.643,40.731,40.731,0,0,0-2.748-9.793,44.991,44.991,0,0,0-3.148-6.362,53.132,53.132,0,0,0-4.542-6.426,42.287,42.287,0,0,0-5.448-5.524,46.922,46.922,0,0,0-5.78-4.242A54.776,54.776,0,0,0,65.91,3.622,45,45,0,0,0,58.3,1.17,51.991,51.991,0,0,0,51.812.16,65.474,65.474,0,0,0,45.076.019a25.82,25.82,0,0,0-4.763.547,46.129,46.129,0,0,0-5.628,1.175,67.416,67.416,0,0,0-6.93,2.587,48.269,48.269,0,0,0-6.162,3.387,45.66,45.66,0,0,0-6.675,5.3A46.505,46.505,0,0,0,8.9,19.941a48.129,48.129,0,0,0-6,11.34,49,49,0,0,0-1.817,6.19A52.357,52.357,0,0,0,.073,44.8C-.072,46.7.044,48.59.044,50.483A33.131,33.131,0,0,0,.7,55.83a39.6,39.6,0,0,0,1.576,6.62c.569,1.636,1.2,3.253,1.918,4.841a46.985,46.985,0,0,0,11.414,15.56,48.466,48.466,0,0,0,8.962,6.387,47.635,47.635,0,0,0,6.18,2.873c.4.152.729.334.817.833.828,4.694,1.689,9.381,2.506,14.077a11.956,11.956,0,0,0,1.687,4.828,9.685,9.685,0,0,0,4.082,3.426,9.138,9.138,0,0,0,4.67.806c1.617-.151,3.2-.519,4.8-.8,6.91-1.239,13.822-2.472,20.726-3.751A23.426,23.426,0,0,0,75.9,110.15a9.444,9.444,0,0,0,3.877-3.3,9.739,9.739,0,0,0,1.455-7.534c-.924-4.937-1.788-9.886-2.691-14.828a.852.852,0,0,1,.278-.9c.448-.388.89-.784,1.317-1.194a49.4,49.4,0,0,0,8.84-11.167,47.7,47.7,0,0,0,5.346-13.947,44.781,44.781,0,0,0,.988-8.161A36.4,36.4,0,0,0,95.237,44.267ZM33.166,27.342c-5.348,4.67-7.292,8.159-7.311,8.193l-.33.6-.232-.646a21.648,21.648,0,0,0-7.683-10.107c-.165-.123-.274-.2-.342-.263-.282-.247-1.21-.109-1.748.062l-.188-.59c.278-.089,1.7-.5,2.343.062.049.043.162.127.3.232a23.35,23.35,0,0,1,3.6,3.242,21.638,21.638,0,0,1,4.07,6.554,38.853,38.853,0,0,1,7.076-7.779,71.388,71.388,0,0,1,11.051-7.834,105.647,105.647,0,0,1,17.562-8.041l.208.583C47.037,16.8,38.1,23.03,33.166,27.342Z" transform="translate(0 0)" fill="#fff"/>
      <path id="Path_218" data-name="Path 218" d="M4.034,10.738c3.8-.623,7.6-1.3,11.388-1.98,5.369-.964,10.733-1.95,16.1-2.925,3.714-.675,7.432-1.327,11.139-2.033A7.1,7.1,0,0,0,46.12,2.2c.762-.679.575-1.467-.382-1.812A5.414,5.414,0,0,0,43.565.011a10.414,10.414,0,0,0-1.513.075Q30.265,2.209,18.478,4.325c-4.92.888-9.84,1.774-14.751,2.707A6.516,6.516,0,0,0,.277,8.76a.819.819,0,0,0-.25.844,1.129,1.129,0,0,0,.909.838A6.717,6.717,0,0,0,4.034,10.738Z" transform="translate(39.803 126.964)" fill="#fff"/>
      <path id="Path_219" data-name="Path 219" d="M44.125.477a6.469,6.469,0,0,0-3.9-.329C36.571.73,32.935,1.4,29.3,2.056Q20.948,3.556,12.6,5.081C9.532,5.643,6.438,6.1,3.4,6.822A5.765,5.765,0,0,0,.344,8.43.9.9,0,0,0,.648,10a8.482,8.482,0,0,0,2.839.527c.276-.03.553-.044.824-.093q10.274-1.847,20.546-3.7c5.331-.959,10.667-1.894,15.992-2.885a6.4,6.4,0,0,0,3.567-1.745C45.055,1.446,44.952.872,44.125.477Z" transform="translate(41.565 131.071)" fill="#fff"/>
      <path id="Path_220" data-name="Path 220" d="M.313,8.439A.866.866,0,0,0,.548,9.914a4.562,4.562,0,0,0,.82.334,7.248,7.248,0,0,0,3.523.057q7.068-1.23,14.126-2.514,10.649-1.92,21.295-3.866a7.3,7.3,0,0,0,4.056-1.8c.721-.721.562-1.389-.412-1.742A4.975,4.975,0,0,0,41.821.017,10.846,10.846,0,0,0,40.154.1Q33.5,1.3,26.847,2.483c-5.369.966-10.738,1.926-16.1,2.913-2.468.454-4.961.788-7.4,1.4A5.887,5.887,0,0,0,.313,8.439Z" transform="translate(39.772 123.158)" fill="#fff"/>
      <path id="Path_221" data-name="Path 221" d="M.822,9.529a9,9,0,0,0,2.444.422c.472-.056.947-.089,1.412-.172q9.047-1.613,18.092-3.24,3.384-.607,6.768-1.223c2.722-.5,5.449-.967,8.159-1.523a5.572,5.572,0,0,0,3.113-1.6A.936.936,0,0,0,40.547.553a5.391,5.391,0,0,0-3.4-.469c-2.831.44-5.647.974-8.467,1.483Q19.634,3.2,10.593,4.847c-2.43.442-4.865.861-7.287,1.345A5.968,5.968,0,0,0,.484,7.628,1.043,1.043,0,0,0,.822,9.529Z" transform="translate(40.853 119.407)" fill="#fff"/>
      <path id="Path_222" data-name="Path 222" d="M40.39.409A4.022,4.022,0,0,0,38.262.024a17.959,17.959,0,0,0-4.174.517q-10.36,1.846-20.71,3.748c-3.247.59-6.5,1.162-9.736,1.8a5.976,5.976,0,0,0-3.172,1.5c-.736.727-.6,1.5.358,1.9a6.064,6.064,0,0,0,3.383.328c6.422-1.131,12.837-2.3,19.256-3.459,4.551-.819,9.105-1.622,13.654-2.456a6.749,6.749,0,0,0,3.6-1.673C41.434,1.539,41.3.816,40.39.409Z" transform="translate(44.126 135.394)" fill="#fff"/>
      <path id="Path_223" data-name="Path 223" d="M.4,6.884A1.092,1.092,0,0,0,.68,8.738,4.07,4.07,0,0,0,2.8,9.183a7.22,7.22,0,0,0,1.891-.161q7.094-1.255,14.181-2.547,6.973-1.259,13.944-2.527a7.326,7.326,0,0,0,3.355-1.392A1.187,1.187,0,0,0,35.806.345,6.638,6.638,0,0,0,32.367.129Q27.233,1.053,22.1,1.988,12.879,3.648,3.658,5.3A6.257,6.257,0,0,0,.4,6.884Z" transform="translate(42.337 115.778)" fill="#fff"/>
      <path id="Path_224" data-name="Path 224" d="M36.026.435a5.851,5.851,0,0,0-3.544-.3q-8.055,1.43-16.106,2.888Q10.306,4.118,4.239,5.217A6.946,6.946,0,0,0,.428,6.843,1.124,1.124,0,0,0,.8,8.8a8.606,8.606,0,0,0,2.444.449c.229-.028.466-.046.7-.088q11.028-2,22.054-4c2.624-.48,5.273-.829,7.874-1.433a5.253,5.253,0,0,0,2.467-1.351A1.085,1.085,0,0,0,36.026.435Z" transform="translate(47.019 139.71)" fill="#fff"/>
      <path id="Path_225" data-name="Path 225" d="M2.686,7.7c.147-.022.3-.041.458-.069Q8.25,6.715,13.356,5.8c3.676-.665,7.352-1.327,11.023-2.016A3.242,3.242,0,0,0,26.711,2.3a1.217,1.217,0,0,0-.39-1.711A3.214,3.214,0,0,0,23.9.053Q13.195,1.99,2.484,3.895A3.578,3.578,0,0,0,.433,5.077a1.314,1.314,0,0,0,.3,2.153A4.925,4.925,0,0,0,2.686,7.7Z" transform="translate(46.754 112.518)" fill="#fff"/>
      <path id="Path_226" data-name="Path 226" d="M26.343.545A3.8,3.8,0,0,0,23.485.089q-9.577,1.7-19.146,3.443a8.927,8.927,0,0,0-3.125.859C.089,5.062-.342,6.1.3,6.793a2.561,2.561,0,0,0,2.295.864c7.4-1.3,14.789-2.644,22.182-3.978a3.123,3.123,0,0,0,1.805-1.16,1.3,1.3,0,0,0,.333-.87A1.248,1.248,0,0,0,26.343.545Z" transform="translate(52.492 144.526)" fill="#fff"/>
    </g>
  </g>
</svg>
