<svg xmlns="http://www.w3.org/2000/svg" width="25" height="25" viewBox="0 0 25 25">
  <g id="youtube" transform="translate(0.5 0.5)">
    <rect id="Boundary" width="24" height="24" fill="#fff" stroke="rgba(0,0,0,0)" stroke-width="1" opacity="0"/>
    <path id="Path_youtube" data-name="Path / youtube" d="M10,15l5.19-3L10,9v6M21.56,7.17a10.338,10.338,0,0,1,.28,1.9c.07.8.1,1.49.1,2.09L22,12a19.868,19.868,0,0,1-.44,4.83,2.343,2.343,0,0,1-1.73,1.73,14.1,14.1,0,0,1-2.65.28c-1.3.07-2.49.1-3.59.1L12,19a40.932,40.932,0,0,1-7.83-.44,2.343,2.343,0,0,1-1.73-1.73,10.339,10.339,0,0,1-.28-1.9c-.07-.8-.1-1.49-.1-2.09L2,12a19.868,19.868,0,0,1,.44-4.83A2.343,2.343,0,0,1,4.17,5.44a14.1,14.1,0,0,1,2.65-.28c1.3-.07,2.49-.1,3.59-.1L12,5a40.932,40.932,0,0,1,7.83.44A2.343,2.343,0,0,1,21.56,7.17Z" fill="#fff" stroke="rgba(0,0,0,0)" stroke-width="1"/>
  </g>
</svg>
